<svg version="1.1" xmlns="http://www.w3.org/2000/svg" viewBox="0 0 108.29180161913246 86.6867846352875" width="108.29180161913246" height="86.6867846352875">
  <!-- svg-source:excalidraw -->
  
  <defs>
    <style>
      @font-face {
        font-family: "Virgil";
        src: url("https://plus.excalidraw.com/Virgil.woff2");
      }
      @font-face {
        font-family: "Cascadia";
        src: url("https://plus.excalidraw.com/Cascadia.woff2");
      }
    </style>
  </defs>
  <g stroke-linecap="round" transform="translate(16.214999704275215 21.31689057837002) rotate(0 30.079107672897862 27.684947028458964)"><path d="M40.88 1.99 C46.54 3.66, 52.35 9.17, 55.4 14.23 C58.45 19.29, 60.21 26.45, 59.19 32.34 C58.17 38.23, 54.25 45.82, 49.3 49.55 C44.36 53.29, 35.87 54.78, 29.53 54.74 C23.19 54.71, 16.29 52.95, 11.27 49.34 C6.25 45.72, 0.75 38.98, -0.58 33.03 C-1.9 27.09, -0.22 18.85, 3.33 13.68 C6.89 8.5, 14.11 3.9, 20.76 1.99 C27.41 0.08, 38.79 1.53, 43.23 2.23 C47.67 2.93, 47.51 5.72, 47.4 6.18 M28.22 0.98 C34.39 0.21, 43.25 1.73, 48.31 5.07 C53.37 8.41, 57.3 15.03, 58.6 21 C59.9 26.97, 59.01 35.79, 56.12 40.9 C53.24 46.02, 47.16 49.69, 41.29 51.7 C35.42 53.71, 27.14 54.58, 20.9 52.95 C14.67 51.33, 7.32 46.67, 3.89 41.96 C0.46 37.26, -0.83 30.44, 0.34 24.73 C1.5 19.02, 6.07 12.08, 10.88 7.72 C15.68 3.36, 26.11 -0.26, 29.16 -1.42 C32.22 -2.57, 29.3 0.3, 29.21 0.81" stroke="none" stroke-width="0" fill="#fff"></path><path d="M31.84 0.16 C37.79 0.26, 45.68 4.26, 50.54 8.39 C55.4 12.52, 60.19 19.21, 60.99 24.94 C61.79 30.67, 59.14 37.73, 55.34 42.77 C51.54 47.8, 44.65 53.43, 38.21 55.14 C31.77 56.85, 22.58 55.59, 16.69 53.03 C10.8 50.47, 5.56 45.25, 2.85 39.78 C0.13 34.32, -1.4 25.85, 0.4 20.24 C2.19 14.62, 7.7 9.52, 13.62 6.08 C19.53 2.64, 31.49 0.24, 35.9 -0.4 C40.3 -1.05, 39.95 1.57, 40.04 2.2 M32.11 -0.39 C38.2 0.14, 47.49 5.31, 52.13 9.89 C56.78 14.47, 59.69 21.53, 60 27.1 C60.3 32.68, 57.9 38.69, 53.98 43.33 C50.06 47.96, 42.78 53.27, 36.5 54.9 C30.22 56.54, 21.76 55.82, 16.31 53.16 C10.85 50.49, 6.34 44.31, 3.78 38.9 C1.22 33.5, -0.5 26.68, 0.93 20.72 C2.36 14.76, 6.93 6.72, 12.35 3.17 C17.76 -0.39, 29.88 -0.43, 33.42 -0.62 C36.97 -0.8, 33.72 1.34, 33.6 2.07" stroke="#000000" stroke-width="2" fill="none"></path></g><g stroke-linecap="round"><g transform="translate(11.32495780084264 23.322178295745744) rotate(0 42.82094300872359 8.99593154080003)"><path d="M0.09 -0.76 C14.51 2.49, 72.6 15.59, 86.97 18.75 M-1.32 1.46 C12.94 4.47, 71.83 14.79, 86.3 17.24" stroke="#000000" stroke-width="2" fill="none"></path></g></g><g stroke-linecap="round" transform="translate(25.72260680731506 14.665451879966895) rotate(10.74366233694554 25.86620102625602 8.922675867321459)"><path d="M-0.35 -1.14 L52.83 -0.99 L49.87 17.06 L-1.69 16.4" stroke="none" stroke-width="0" fill="#0dce93"></path><path d="M0.89 1.94 C12.14 1.29, 23.47 0.53, 53.29 -1.81 M-0.56 -0.51 C17.3 0.84, 32.27 -1.09, 52.03 0.15 M52.25 -0.18 C50.08 6.12, 52.01 15.07, 51.6 19.13 M51.91 -0.19 C52.05 5.82, 51.75 9.9, 52.28 17.16 M51.94 19.63 C40.42 18.67, 29.85 17.57, 1.45 18.44 M50.81 17.92 C35.43 17.45, 20.19 18.38, -0.16 17.22 M1.58 16.26 C0.13 12.11, 0.66 2.64, -1.73 0.81 M-0.11 17.74 C0.1 11.12, 0.59 4.64, -0.23 -0.44" stroke="#000000" stroke-width="2" fill="none"></path></g><g stroke-linecap="round" transform="translate(33.43713854172074 50.50939212163894) rotate(0 0.514128394270756 0.6751180934870717)"><path d="M0.59 0.78 C0.46 0.89, -0.14 0.3, -0.08 0.29 C-0.02 0.28, 0.86 0.68, 0.94 0.71 C1.02 0.75, 0.28 0.22, 0.41 0.48 C0.54 0.73, 1.77 2.26, 1.71 2.23 C1.64 2.21, 0.24 0.5, 0.01 0.33 C-0.21 0.15, 0.24 1.13, 0.38 1.19 C0.51 1.26, 0.81 0.83, 0.81 0.71 C0.82 0.59, 0.44 0.74, 0.39 0.47 C0.35 0.2, 0.53 -0.88, 0.53 -0.92 C0.53 -0.96, 0.23 0.09, 0.39 0.25 M0.12 0.34 C0.21 0.64, 0.27 0.94, 0.64 1.05 C1.01 1.16, 2.34 0.83, 2.32 1 C2.3 1.18, 1.02 2.3, 0.52 2.12 C0.03 1.94, -0.58 0.22, -0.65 -0.06 C-0.72 -0.35, -0.05 0.03, 0.09 0.39 C0.22 0.75, 0.25 2, 0.16 2.12 C0.07 2.25, -0.38 1.5, -0.43 1.15 C-0.47 0.8, -0.48 0.14, -0.11 0.03 C0.26 -0.08, 1.63 0.45, 1.78 0.49 C1.93 0.53, 0.93 0.58, 0.79 0.29" stroke="#000000" stroke-width="1" fill="none"></path></g><g stroke-linecap="round" transform="translate(58.131919758260665 49.03534966274992) rotate(0 0.5193216103748455 0.8828467376367826)"><path d="M1.42 -0.88 C1.65 -0.88, 1.12 0.08, 1.09 0.29 C1.06 0.49, 1.34 0.01, 1.23 0.38 C1.11 0.74, 0.34 2.32, 0.39 2.49 C0.44 2.66, 1.7 1.51, 1.51 1.41 C1.32 1.32, -0.54 1.82, -0.76 1.91 C-0.99 2, 0.02 2.13, 0.17 1.94 C0.32 1.75, 0.09 1.08, 0.16 0.76 C0.23 0.43, 0.64 0.17, 0.58 -0.01 C0.52 -0.19, -0.27 -0.47, -0.21 -0.3 C-0.15 -0.14, 0.8 0.8, 0.95 0.99 M0.77 -0.32 C1.13 -0.03, 1.45 1.35, 1.53 1.46 C1.6 1.57, 1.16 0.56, 1.23 0.34 C1.29 0.11, 2.23 -0.11, 1.92 0.1 C1.6 0.31, -0.29 1.3, -0.68 1.59 C-1.06 1.89, -0.76 2.01, -0.41 1.89 C-0.06 1.77, 1.23 1.14, 1.43 0.89 C1.64 0.63, 1.04 0.28, 0.82 0.35 C0.61 0.43, 0.13 1.39, 0.15 1.34 C0.16 1.3, 0.83 0.27, 0.92 0.1 C1.01 -0.07, 1.01 0.3, 0.7 0.32" stroke="#000000" stroke-width="1" fill="none"></path></g><g stroke-linecap="round"><g transform="translate(34.634670722244664 65.76925187216739) rotate(176.9342677679617 11.145959869738817 -0.9343877874755435)"><path d="M0 -1.05 C1.93 -1.58, 7.86 -4.81, 11.58 -4.23 C15.3 -3.65, 20.51 1.32, 22.29 2.43 M0 -1.05 C1.93 -1.58, 7.86 -4.81, 11.58 -4.23 C15.3 -3.65, 20.51 1.32, 22.29 2.43" stroke="#000" stroke-width="2" fill="none"></path></g></g></svg>