<svg version="1.1" xmlns="http://www.w3.org/2000/svg" viewBox="0 0 916.6462651695956 294.59548101158407" width="916.6462651695956" height="294.59548101158407">
  <!-- svg-source:excalidraw -->
  
  <defs>
    <style>
      @font-face {
        font-family: "Virgil";
        src: url("https://plus.excalidraw.com/Virgil.woff2");
      }
      @font-face {
        font-family: "Cascadia";
        src: url("https://plus.excalidraw.com/Cascadia.woff2");
      }
    </style>
  </defs>
  <g stroke-linecap="round" transform="translate(395.39265105600407 104.16666666666697) rotate(0 80.19070434570312 23.971771240234375)"><path d="M0.69 0.36 L158.7 -0.66 L160.7 47.39 L-1.75 47.61" stroke="none" stroke-width="0" fill="#fff"></path><path d="M1.62 -0.66 C32.06 2.02, 66.37 0.87, 160.83 1.26 M-0.54 0.73 C45.84 1.34, 89.03 -0.41, 159.97 0.57 M161.84 0.93 C161.9 19.3, 159.06 38.23, 159.23 49.46 M160.12 -0.99 C159.47 9.87, 159.21 18.59, 160.5 47.69 M158.68 48.72 C125.98 48.2, 89.54 46.4, 0.33 48.68 M159.49 47.73 C123.39 46.83, 87.53 47.1, -0.11 48.14 M-1.47 48.09 C-1.37 36.53, 0.79 26.01, -0.96 0.5 M-0.72 47.6 C-0.54 30.75, 0.03 14.91, -0.86 0.68" stroke="#000000" stroke-width="1" fill="none"></path></g><g stroke-linecap="round" transform="translate(145.39265105600498 105.83333333333394) rotate(0 88.52403767903616 23.971771240234375)"><path d="M-1.55 -1.84 L175.89 1.58 L176.38 46.15 L0.11 47.15" stroke="none" stroke-width="0" fill="#fff"></path><path d="M-0.1 -1.67 C49.17 1.41, 96.59 1.35, 175.72 -1.98 M0.54 0.33 C69.34 0.87, 140.25 1.28, 177.27 -0.2 M177.05 -0.13 C177.77 11.24, 176.12 26.34, 176.22 49.8 M177.73 0 C177.38 13.93, 177.65 27.4, 177.47 47.41 M178.86 49.93 C108.96 47.94, 43.23 45.35, 0.76 47.87 M176.54 47.34 C131.67 46.98, 88.93 47.74, 0.74 48.4 M1.35 49.77 C-1.91 38.68, -0.19 28.23, -1.14 0.99 M-0.32 48.55 C-0.34 36.64, -0.15 25.29, -0.91 0.87" stroke="#000000" stroke-width="1" fill="none"></path></g><g stroke-linecap="round" transform="translate(652.1783653417169 10) rotate(0 80.19070434570312 23.971771240234375)"><path d="M-0.96 0.5 L159.85 1.48 L161.13 46.88 L-0.08 49.84" stroke="none" stroke-width="0" fill="#fff"></path><path d="M-0.63 0.78 C39.07 0.6, 80.9 0.41, 161.38 -1.87 M0.02 0.59 C41.18 -0.68, 84.12 -0.16, 160.24 0.1 M161.53 -1.38 C161.51 16.4, 161.59 35.49, 160.86 48.1 M160.41 0.61 C160.97 17.75, 160.41 37.33, 159.45 48.62 M162.35 47.52 C97.59 48.51, 33.94 47.19, -0.74 46.2 M160.95 48.93 C104.75 46.56, 50.22 45.85, 0.12 48.43 M0.34 47.56 C1.49 30.95, -0.95 11.96, -1.66 1.41 M0.79 47.25 C-0.01 29.3, 0.28 8.98, -0.23 -0.95" stroke="#000000" stroke-width="1" fill="none"></path></g><g stroke-linecap="round" transform="translate(648.3129318362617 91.26214767825059) rotate(0 129.16666666666697 96.66666666666674)"><path d="M0 0 C0 0, 0 0, 0 0 M0 0 C0 0, 0 0, 0 0 M-0.71 7.04 C0.94 4.4, 1.16 3.25, 5.43 0.56 M-0.39 6.53 C1.77 4.63, 2.76 2.57, 5.37 0.24 M-0.6 10.71 C3.31 9.86, 4.86 3.98, 12.02 -0.47 M-0.26 11.35 C3.59 7.24, 7.84 3.28, 11.07 0 M0.27 17.99 C2.5 12.97, 9.76 6.49, 14.64 0.32 M0.49 17.94 C4.57 13.51, 8.06 10.2, 16.26 0.51 M-0.06 23.37 C4.8 17.22, 12.63 10.7, 21.31 1.28 M0.31 24.01 C4.94 18.42, 10.88 12.1, 21.27 0.38 M-1.76 30.29 C7.38 22.14, 14.81 12.88, 26.79 2.16 M0.35 30.79 C9.64 20.37, 17.58 9.5, 25.59 0.94 M-1.78 34.91 C13.34 22.75, 26.03 8.35, 31.41 -0.8 M-0.55 37.19 C9.52 26.17, 20.47 14.96, 32.23 -0.67 M-1.22 44.25 C13.51 27.56, 26.03 14.02, 36.88 1.37 M-0.73 43.22 C9.05 33.29, 16.85 22.59, 36.8 0.9 M1.34 48.85 C16.7 30.82, 31.19 12.48, 42.24 0.67 M0.44 48.58 C11.55 35.42, 22.8 21.5, 41.91 0.5 M1.11 53.74 C19.62 33.98, 37.86 12.18, 47.25 0.45 M0.32 54.72 C17.89 35.88, 34.35 16.9, 48.02 0.89 M-1.42 62.83 C19.66 37.95, 37.34 15.78, 52.36 1.71 M-0.07 61.25 C20.5 37.56, 41.82 12.25, 53.94 0.03 M-1.24 65.92 C22.9 41.17, 42.69 18.01, 58.17 -0.55 M-0.34 67.98 C17.39 47.25, 34.19 28.36, 57.64 -0.56 M1.88 71.28 C22.12 51.19, 42.39 29.03, 65.3 0.9 M-0.51 73.52 C17.95 51.31, 36.37 31.21, 64.73 -0.46 M0.17 80.22 C26.87 47.57, 50.39 20.17, 69.91 1.94 M0.18 78.92 C20.05 53.23, 42.15 29.26, 69.32 0.02 M-0.9 84.14 C16.21 63.52, 36.66 44.28, 75.56 1.32 M-0.02 84.7 C22.39 58.35, 45.53 31.71, 74.44 -0.86 M-1.18 90.86 C20.56 69.83, 41.34 46.9, 80.69 1.04 M0.57 92.24 C18.43 71.47, 34.85 52.55, 78.96 0.12 M-0.55 97.66 C29.58 63.78, 58.9 30.09, 86.58 0.6 M-0.17 98.83 C30.8 63.81, 60.3 29.02, 85.99 0.42 M1.79 101.84 C23.8 74.6, 47.28 51.16, 88.72 1.38 M0.97 103.31 C21.77 78.09, 44.67 53.86, 89.77 0.18 M-1.94 109.33 C25.43 79.91, 54.12 49.85, 96.81 0.89 M0.74 110.66 C29.21 77.84, 58.49 44.56, 96.09 -0.55 M-0.86 113.69 C23.84 92.19, 44.13 66.23, 102.16 1.14 M1.23 116.04 C38.21 72.34, 75.4 29.71, 101.19 0.65 M-1.94 120.46 C33.56 83.12, 66.77 46.12, 105.65 -1.12 M0.7 121.21 C36.3 80.5, 73.39 40.66, 106.18 -0.2 M1.24 130.22 C33.68 86.83, 69.62 45.43, 113.15 2.01 M-0.63 128.55 C29.42 93.12, 58.79 59.69, 111.94 0.96 M-0.78 135.13 C41.52 88.19, 80.34 39.96, 114.8 0.54 M-0.4 133.71 C27.96 101.21, 55.33 69.22, 116.85 0.26 M-0.61 141.53 C39.76 93.46, 83.15 47.84, 123.77 -0.78 M-0.91 141.19 C34.85 99.23, 71.17 57.19, 121.01 0.51 M-0.74 146.94 C38.45 103.77, 75.39 59.58, 124.93 0.11 M-0.38 145.39 C34.81 106.66, 69.45 67.06, 127.4 0.84 M-0.08 150.67 C32.54 117.39, 61.36 79.24, 132.17 -0.41 M0.84 152.08 C42.85 102.4, 83.58 53.34, 132.63 -0.26 M-0.71 157.91 C45.69 102.39, 94.98 49.34, 137.65 -1.19 M-0.43 159.16 C45.05 106.04, 90.18 52.62, 136.99 0.32 M0.64 163.81 C47.86 110.22, 95.61 57.14, 142.35 -0.63 M-0.11 164.88 C43.64 113.19, 89.69 62.03, 143.33 -0.94 M0.07 172.55 C35.21 128.49, 70.7 89.52, 148.28 -0.92 M0.31 170 C56.19 106.82, 113.14 40.76, 147.97 0.21 M0.64 178.15 C53.12 115.65, 108.13 54.96, 154.05 -1.49 M-0.36 177.09 C48.46 121.04, 96.51 66.82, 153.06 -0.41 M0.7 183.01 C35.2 144.81, 68.28 108.89, 159.01 0.24 M0.37 183.19 C62.5 111.95, 122.77 40.84, 158.75 0.42 M0.85 189.17 C55.48 127.21, 108.75 64.09, 165.48 1.46 M-1.03 189.35 C50.5 131.47, 99.98 73.96, 165.22 -0.94 M-0.06 195.13 C41.25 144.33, 85.85 95, 169.22 0.5 M1.46 193.89 C37.86 151.43, 77.51 106.28, 170.2 0.48 M4.97 194.76 C72.45 121.08, 135.49 46.26, 175.04 -0.95 M5.9 193.68 C60.7 129.83, 114.68 67.44, 174.28 -0.6 M11.49 194.45 C57.67 142.36, 100.65 91.25, 180.67 -1.36 M11.56 194.93 C74.6 122.26, 137.5 49.48, 179.76 0.38 M17.63 192.78 C64.3 137.4, 114.92 80.77, 185.9 -0.2 M17.15 193.63 C73.31 127.65, 131.57 61.88, 186.4 -0.78 M21.91 192.92 C72.35 136.48, 126.58 74.75, 189.44 -1.35 M21.44 194.51 C88.84 117.57, 153.25 42.36, 190.33 -0.34 M26.8 194.4 C79.53 133.25, 131.79 73.64, 194.75 -1.17 M27.16 193.89 C94.08 118.11, 161.22 39.31, 195.83 -0.39 M34.03 194.02 C87.33 134.91, 137.45 74.9, 200.46 1.7 M32.73 193.54 C72.63 146.88, 112.51 100.69, 201.38 -0.14 M38.41 194.78 C103.99 116.39, 170.64 42.37, 206.28 -1.07 M37.67 194.33 C82.92 141.78, 128.3 90.42, 206.65 -0.04 M42.59 192.82 C110.48 119.49, 175.68 43.57, 213.01 1.35 M44.06 194.49 C109.92 118.16, 175.35 42.41, 211.39 0.5 M47.55 193.36 C103.78 131.04, 158.6 66.88, 218.75 -0.68 M49.07 195.08 C111.2 120.66, 175.76 47.8, 217.57 -1.09 M55.2 193.64 C109.49 129.53, 164.02 64.91, 222.28 1.24 M53.47 194.23 C104.28 135.3, 155.45 77.68, 221.88 -0.13 M58.8 195.68 C96.07 149.99, 136.17 104.29, 228.78 0.42 M59.01 194.29 C108.68 136.91, 158.6 78.74, 227.5 -0.14 M64.94 192.41 C117.02 136.44, 167.35 78.11, 233.94 0.63 M64.04 194.42 C122 128.41, 180.22 62.56, 233.37 0.7 M71.07 193.26 C113.33 145.28, 154.66 95.62, 238.73 -0.16 M68.96 194.52 C112.98 146.42, 155.25 98.56, 238.91 -0.25 M74.55 194.3 C133.87 124.91, 195.48 55.54, 243.16 -0.82 M75.04 194.29 C119.42 142.2, 165.34 91.25, 244.58 -0.35 M79.22 194.12 C121.67 146.66, 163.65 97.83, 248.09 0.59 M80.21 193.89 C115.4 152.05, 152.19 110.28, 248.44 -0.35 M85.1 192.88 C134.38 136.2, 185.25 78.37, 255.53 -1.4 M85.95 194.67 C141.81 127.9, 197.43 63.36, 254.86 -0.59 M91.77 195.43 C145.49 129.3, 203.01 66.08, 260.12 1.86 M91.44 194.95 C127.31 154.3, 161.41 114.44, 259.14 1.25 M97.7 194.19 C133.21 152.04, 169.51 108.84, 260.29 7.84 M97.29 193.97 C128.07 154.85, 160.16 118.27, 259.05 6.62 M100.28 194.82 C146.4 138.25, 195.75 83.57, 258.93 13.16 M101.15 194.17 C163.06 121.86, 225.3 49.09, 258.35 13.68 M108.54 192.56 C141.55 155.99, 172.96 116.03, 257.73 19.91 M106.48 193.81 C140.83 154.06, 174.56 114.21, 259.88 19.26 M113.42 195.17 C145.73 156.17, 177.13 117.8, 260.62 24.92 M111.67 194.07 C169.03 127.45, 228.35 60.84, 258.31 24.86 M116.82 195.2 C151.12 158.5, 181.28 122.18, 260.12 31.55 M116.94 193.33 C166.28 136.78, 216.52 78.72, 259.2 30.88 M122.33 193.1 C157.28 150.44, 195.76 108.96, 259.78 36.95 M121.89 194.38 C175.28 134.71, 226.89 75.46, 258.42 37.5 M126.86 193.6 C176.23 139.18, 224.54 82.99, 257.3 45.11 M129.27 193.36 C160.87 155.95, 193.36 119.06, 258.39 42.68 M132.44 194.47 C160.7 161.33, 192.09 128.4, 257.45 48.54 M133.07 194.3 C178.93 143.81, 223.03 94.21, 259.13 50.11 M139.85 193.31 C171.71 158.58, 202.23 123.34, 257.55 54.34 M138.72 194.79 C181.82 144.6, 222.58 98.02, 258.74 55.53 M145.53 195.01 C170.34 163.34, 201.12 131.38, 260.55 61.3 M144.66 193.32 C176.81 156.8, 207.95 119.02, 258.73 61.41 M148.15 196.19 C178.6 160.6, 205.61 130.53, 259.84 66.55 M148.45 193.99 C170.74 168.54, 193.51 141.57, 259.08 68.61 M155.96 192.26 C183.98 164.15, 208.57 132.13, 257.97 74.02 M154.51 194.52 C192.6 149.51, 231.2 105.63, 258.45 75.03 M158.21 193.71 C182.32 165.65, 208.44 140.62, 257.92 81.58 M159.02 194.65 C195.81 151.33, 234.38 109.17, 259.94 79.63 M165.1 192.44 C201.12 155.6, 235.94 112.63, 258.54 85.31 M164.34 193.44 C202.75 151.02, 238.74 111.24, 259.95 86.84 M171.16 194.08 C190.92 170.03, 209.48 147.89, 257.83 90.56 M169.91 193.67 C196.18 163.58, 222.3 131.79, 257.98 92.58 M175.28 192.29 C200.26 168.39, 222.35 140.3, 259.69 96.55 M176.65 193.11 C203.68 162.39, 231.01 129.78, 258.78 98.91 M180.07 193.09 C204.76 167.98, 229.87 137.75, 258.59 102.89 M179.88 194.95 C197.06 174.45, 214.73 153.61, 259.57 103.63 M187.82 193.11 C201.78 178.03, 216.42 160.1, 260.86 110.67 M185.7 193.05 C212.6 163.62, 239.25 132.57, 258.76 109.32 M191.96 196.01 C206.88 176.43, 220.83 160, 258.16 116.76 M191.93 194.37 C210.7 171.19, 229.64 150.09, 259.89 116.74 M196.98 194.7 C210.78 179.25, 223.71 163.15, 260.75 122.88 M196.5 194.25 C216.16 172.44, 233.01 152.11, 258.34 123.87 M201.86 195.69 C216.33 174.52, 234.55 157.81, 258.19 130.14 M202.35 194.79 C215.21 178.5, 227.73 165.59, 258.55 129.56 M208.01 193.4 C224.18 175.17, 240.59 154.84, 258.05 135.64 M207.84 194.19 C220.4 177.29, 235.56 163.2, 258.19 134.09 M214.73 194.48 C223.76 181.8, 235.63 168.63, 261.25 139.51 M213.68 195.07 C225.52 179.1, 240.12 163.78, 259.91 141.25 M219.13 192.09 C229.21 179.05, 243.88 165.64, 257.42 145.23 M219.29 193.84 C230.22 181.61, 241.23 167.46, 258.27 146.75 M223.54 194.26 C234.55 183.75, 244.38 170.65, 260.24 154.68 M223.74 195.03 C233 181.61, 245.11 169.23, 259.45 154.21 M227.5 194.16 C237.91 181.3, 250 169.65, 258.14 160.7 M228.15 194.65 C238.42 183.41, 246.4 173.18, 259.47 159.85 M235.18 194.46 C239.76 184.33, 248.51 177.71, 259 165.68 M234.6 194.5 C239.33 188.12, 244.78 180.94, 259.37 166.04 M239.3 193.56 C246.42 185.3, 255.14 179.7, 259.47 170.61 M240.52 193.55 C245.71 186.63, 251.87 179.52, 259.95 170.39 M244.56 194.02 C246.65 191.03, 249.32 187.94, 258.37 177.37 M245.6 194.26 C248.99 187.47, 255.35 182.23, 259.69 177.11 M251.16 193.1 C252.5 191.47, 254.68 188.35, 258.28 185.16 M250.26 193.88 C253.22 190.71, 254.39 188.29, 259.25 184.03 M255.65 193.9 C256.41 192.68, 258.86 190.69, 259.7 189.21 M255.01 193.8 C256.46 192.13, 257.91 190.81, 259.4 189.85 M0.12 193.44 C0.12 193.44, 0.12 193.44, 0.12 193.44 M0.12 193.44 C0.12 193.44, 0.12 193.44, 0.12 193.44 M6.55 192.51 C4.68 192.32, 1.65 190.03, -0.11 187.89 M5.7 193.36 C4.12 191.25, 2.21 190.19, -0.42 187.88 M13.46 194.43 C6.48 187.89, 4.57 184.83, 1.32 183.23 M12.49 193.1 C9.31 189.45, 4.26 186.56, 0.79 182.04 M19.43 192.97 C13.22 187.98, 10.98 185.46, -2.19 178.98 M18.93 192.72 C11.14 186.89, 3.05 181.37, -0.66 177.59 M23.52 191.3 C16.65 187.3, 12.43 183.55, -0.77 170.76 M23.53 192.25 C16.06 186.99, 8.22 178.49, 0.26 172.03 M31.34 192.06 C20.2 182.89, 5.37 172.36, -0.25 168.29 M29.67 194.3 C21.74 186.5, 13.2 178.14, 0.01 165.68 M35.94 194.87 C24.28 182.32, 13.58 173.85, -0.73 162.49 M36.9 193.48 C23.34 180.24, 8.12 170.04, -0.4 162.37 M40.92 192.24 C30.24 183.02, 18.29 171.6, 0.31 156.72 M43.26 193.96 C28.63 179.59, 12.58 168.26, -0.12 155.31 M49.78 193.2 C33.72 177.68, 16 165.08, -1.18 150.29 M49.12 194.24 C37.76 184.42, 26.91 175.22, -0.26 150.74 M52.89 191.65 C41.88 185.34, 32.76 173.99, 1.54 146.2 M55.63 193.41 C43.33 183.19, 31.74 173.73, -0.04 146.64 M60.45 192.62 C47.87 178.74, 32.16 167.37, 0.93 139.44 M60.12 192.53 C38.15 171.49, 12.94 151.13, -0.32 141.04 M65.89 193.98 C44.47 175.26, 25.81 157.22, 0.19 135.24 M66.98 192.33 C52.68 180.24, 38.75 169.56, -0.24 135.35 M74.61 191.99 C55.37 176.62, 34.21 162.53, 0.61 130.79 M72.87 193.83 C50.18 174.4, 28.41 154.31, -0.3 130.12 M79.33 195.06 C56.46 173.21, 36.24 156.55, -1.71 124.82 M79.54 194.07 C58.8 176.98, 38.97 158.81, 0.82 125.59 M85.12 194.01 C62.41 173.1, 39.71 154.95, -1.18 118.67 M85.34 193.43 C63.89 173.72, 42.44 155.17, 0.36 118.83 M92.29 194.33 C56.28 163.96, 23.35 134.86, 2.02 113.83 M91.54 193.96 C56.64 162.31, 23.12 133.48, 0.7 114.32 M97.83 191.94 C78.24 176.18, 56.26 159.93, 0.53 108.99 M96.27 192.1 C73.38 171.18, 47.8 149.49, -0.54 109.02 M102.1 192.71 C70.92 163.32, 36.96 132.67, 0.58 101.66 M102.71 192.31 C63.88 158.24, 23.57 122, 0.71 102.99 M110.29 192.21 C74.92 160.99, 38.47 130.45, 0.64 97.17 M110.94 193.77 C85.74 171.76, 62.1 150.28, -0.92 98.48 M115.31 191.98 C84.83 164.76, 54.98 136.76, 0.12 94.26 M116.34 192.75 C91.34 172.77, 66.81 151.12, 0.95 92.53 M122.77 193.81 C80.82 158.18, 40.23 120.33, -1.96 86.15 M121.09 193.87 C81.54 158.76, 39.47 122.42, 0.57 88.03 M126.41 193.48 C80.45 154.74, 35.21 112.78, 1.75 82.09 M126.95 193.89 C81.67 152.02, 34.34 111.34, -0.74 82.36 M132.77 194.26 C102.84 164.97, 73.81 139.67, 1.59 76.43 M134.52 194.28 C89.6 154.54, 43.19 115.04, -0.47 76.45 M140.65 192.72 C87.74 149.77, 33.77 102.74, -0.43 70.15 M140.09 192.99 C104.13 161.86, 68.42 129.26, 0.26 71.39 M146 192.92 C109.59 158.6, 72.57 128.35, 0.09 64 M147.05 193.73 C88.84 143.16, 31.89 93.98, -1.16 65.51 M152.91 194.63 C98.27 144.33, 43.74 95.93, -1.23 60.07 M152.34 194.22 C106 155.52, 60.25 114.84, 0.31 60.99 M159.03 193.62 C99.97 142.34, 44.73 94.68, 0.28 54.52 M158.22 193.36 C124.48 164.15, 91 135.79, -0.36 55 M166.25 192.36 C110.94 146.53, 59.56 102.58, 0.82 51.44 M164.69 193.99 C130.57 164.32, 95.16 134.38, 0.55 50.09 M170.66 191.96 C111.15 140.3, 49.74 86.79, 0.91 44.75 M171.12 192.79 C105.96 135.53, 38.17 77.84, 0.23 45.42 M175.82 192.62 C113.02 137.77, 51.37 82.78, -0.41 37.98 M176.81 192.92 C124.45 149.45, 73.19 103.81, 0.04 39.89 M183.41 192.69 C116.6 136.53, 53.73 79.82, -0.02 34.37 M182.51 193.35 C140.49 154.88, 97.48 116.83, 0.34 34.66 M188.79 192.71 C127.21 140.03, 63.39 86.32, 0.24 29.21 M188.62 193.16 C121.15 135.02, 53.6 76.67, 0.23 29.38 M195.93 194.19 C135.37 141.86, 75.15 87.62, -0.05 23.9 M195.52 192.86 C130.35 137.5, 65.31 81.39, 0.13 24.55 M202.69 193.72 C120.79 123.78, 45.26 57.13, 0.18 18.11 M201.79 193.3 C159.32 156.1, 116.66 117.72, 0.6 18.05 M205.56 191.73 C149.2 140.83, 90.32 90.58, 0.39 13.68 M207.37 193.85 C126.45 122.43, 47.65 54.37, 0.48 13.82 M214.69 192.81 C159.49 145.09, 104.16 97.33, 0.92 6.57 M212.75 193.23 C135.9 124.33, 58.24 57.59, -0.22 8.14 M219.74 192.14 C137.78 123.33, 57.76 52.45, 0.23 3.1 M219.22 193.63 C138.28 122.57, 57.9 52.64, 0.94 3.06 M224.37 191.92 C149.08 127.76, 71.18 61.12, 1.59 -2.06 M225.84 193.93 C153.41 131.98, 83.76 70.32, 0.84 -1.2 M233.36 193.69 C186.53 153.58, 142.48 115.24, 7.5 -0.72 M231.21 193.8 C145.89 118.37, 57.51 42.54, 7.38 -0.7 M237.84 193.28 C191.38 154.22, 144.87 114.56, 12.67 -2.03 M237.21 192.81 C178.17 140.38, 118.96 88.39, 13.34 -1.44 M243.14 194.8 C189.9 148.01, 138.59 103.48, 19.61 -0.19 M243.25 193.46 C194.76 148.39, 144.77 105.17, 20.51 -1.81 M249.29 192.96 C179.36 133.98, 111.28 74.47, 24.17 -1.16 M249.98 192.41 C200.28 150.95, 152.04 108.7, 25.61 -2.32 M256.05 193.32 C202.94 147.65, 149.44 103.12, 30.94 -0.9 M255.86 192.58 C172.97 120.66, 89.92 47.7, 32.28 -1.54 M258.81 192.71 C199.61 137.48, 135.83 81.24, 38.14 -1.54 M260.03 191 C201.13 139.9, 143.02 88.06, 37.86 -1.18 M258.88 186.98 C214.39 145.88, 165.73 104.85, 43.34 -1.85 M259.6 185.84 C216.8 146.15, 171.33 106.69, 44.59 -2.41 M258.9 181.51 C211.81 139.31, 166.36 98.18, 50.71 -0.86 M259.53 181.06 C194.06 125, 127.75 67.74, 50.87 -1.35 M259.45 176.17 C197.87 122.64, 137.77 68.73, 57.28 -0.88 M259.15 174.96 C211.86 135.5, 167.15 94.49, 56.53 -2.48 M260.33 169.32 C216.52 131.45, 173.57 95.38, 60.75 -2 M260.63 170.58 C190.76 110.4, 120.54 49.29, 62.2 -1.68 M259.53 165.45 C209.09 119.62, 161.6 77.91, 67.55 -1.68 M259.03 165.21 C184.45 100.23, 109.12 35.08, 68.85 -1.35 M260.01 159.98 C217.39 125.54, 177.08 90.47, 75.17 -1.93 M259.59 159 C189.57 98.32, 119.7 37.71, 74.61 -1.18 M259.33 153.39 C192.5 96.84, 129 37.41, 80.93 -2.53 M259.92 154.18 C220.96 121.87, 181.99 88.56, 80.29 -0.64 M259.5 148.91 C192.92 91.4, 126.87 36.48, 85.6 -1.86 M259.17 149.09 C210.09 104.14, 159.94 60.13, 86.8 -2.6 M260.67 144.68 C204.71 91.93, 148.24 44.43, 93.68 -3.18 M260.53 144.57 C219.85 108.82, 181.02 73.04, 92.97 -0.93 M260.53 137.55 C211.08 99.64, 167.84 59.16, 99.97 -2.02 M260.13 137.83 C200.63 86.1, 141.55 35.08, 99.59 -0.94 M258.77 132.34 C229.03 105.38, 194.65 75.83, 106.08 -2.73 M260.4 134.23 C202.57 82.97, 143.13 31.83, 105.09 -1.83 M259.58 129.04 C206.07 83.56, 156.18 38.65, 111.26 -2.58 M259.91 127.15 C230.26 100.43, 199.88 73.49, 110.34 -2.16 M258.81 124.07 C226.11 93.95, 190.45 63.78, 118.5 -0.51 M260.34 122.36 C206.35 76.51, 152.89 30.01, 117.72 -2.03 M260.28 118.6 C226.88 93.65, 199.02 67.52, 124.34 -0.56 M260.63 116.63 C205.61 70.68, 151.66 24.2, 122.35 -0.79 M261.61 112.77 C231.17 85.67, 197.92 58.88, 129.68 -1.67 M260.16 111.7 C216.87 76.15, 175.25 39.64, 128.91 -1.21 M260.62 106.53 C215.63 69.54, 174.36 31.74, 136.83 -3.49 M258.88 107.51 C233.58 85.18, 207.49 60.89, 135.06 -2.14 M260.12 101.26 C213.07 60.77, 167.6 20.58, 140.51 -2.09 M260.47 100.78 C214.31 61.17, 166.72 22.31, 141.86 -2.21 M258.48 96.78 C232.59 72.39, 208.04 50.6, 149.22 -2.28 M260.5 96.1 C221.21 61.17, 181.95 27.92, 147.65 -1.1 M258.45 88.99 C233.43 67.6, 206.75 43.56, 151.98 -2 M259.6 90.52 C232.72 66.46, 205.39 42.49, 154.24 -1.91 M261.72 86.84 C240.07 66.8, 219.89 50, 159.74 -0.65 M259.59 84.67 C219.42 50.86, 178.91 16.31, 160.79 -0.43 M261.71 81.97 C240.56 62.4, 218.16 46.25, 164.3 -2.76 M260.68 79.32 C232.86 57.37, 205.42 33.45, 166.23 -0.84 M258.16 73.72 C223.91 41.6, 191.06 12.6, 171.3 0.24 M259.55 74.5 C230.92 49.39, 203.34 23.57, 172.67 -2.36 M261.93 70.72 C229.09 45.26, 200.26 17.06, 179.61 -0.21 M260.59 70.08 C230.34 44.62, 201.16 19.11, 178.28 -1.56 M261.59 63.95 C233.14 39.37, 202.68 14.32, 186.06 -0.26 M260 64.85 C243 48.98, 226.81 34.37, 184.5 -1.69 M260.16 60.31 C245.79 47.88, 229.71 34.17, 188.82 -1.97 M260.98 59.15 C232.73 34.64, 204.17 10.45, 190.88 -0.99 M257.76 51.64 C236.92 32.31, 212.07 11.24, 196.38 -2.95 M259.85 53.94 C236.66 34.75, 215.16 14.96, 196.52 -1.36 M260.37 48.33 C247.89 36.51, 237.35 26.1, 202.51 -0.14 M259.25 47.4 C241.19 32.79, 222.31 15.16, 202.49 -2.04 M258.41 44.37 C241.15 25.13, 220.61 10.36, 207.61 -2.06 M260.27 42.01 C244.56 28.95, 226.85 14.24, 207.7 -2.85 M259.54 38.9 C248.9 29.74, 239.86 18.99, 213.51 -1.28 M259.6 37.17 C247.5 26.8, 235.88 18.21, 215.11 -0.64 M259.24 33.28 C249.85 24.99, 241.84 16.51, 220.81 -2.67 M259.7 32.27 C248.42 23.27, 239.18 15.01, 221.57 -0.49 M261.59 28.67 C249.6 19.36, 239.77 10.07, 227.86 -3.12 M259.96 27.28 C250.66 18.45, 240.02 10.15, 226.27 -1.43 M258.66 23.72 C252.95 16.02, 243.31 7.79, 231.74 -1.27 M259.6 22.55 C253.08 15.32, 244.49 7.58, 234.14 -1.1 M259.43 16.84 C256.18 13.24, 249.83 6.99, 239.58 -3.81 M259.05 16.05 C251.43 10.21, 244.57 1.2, 238.74 -2.03 M260.79 10.55 C254.39 7.74, 249.85 2.6, 245.39 0.13 M260.42 11.73 C255.63 8.09, 252.72 4.95, 245.45 -1.03 M260.46 6.56 C257.19 4.11, 253.68 -0.41, 252.59 -2.45 M259.59 6.08 C256.96 2.53, 253.28 -0.11, 252 -1.4" stroke="#ced4da" stroke-width="0.5" fill="none"></path><path d="M0.23 -0.27 C89.07 0.76, 180.81 2.99, 258.61 0.84 M0.24 0.56 C54.77 -2.36, 109.26 -1.33, 258.43 -0.04 M259.06 -0.03 C259.78 73.39, 258.86 151.22, 256.8 191.67 M259.12 0.28 C258.85 45.23, 259.19 88.76, 257.91 192.82 M258.69 191.77 C183.95 191.01, 108.32 190.34, 0.84 193.71 M258.35 193.26 C159.89 194, 63.08 194.09, -0.36 193.92 M-1.57 192.52 C1.32 146.76, 0.78 100.88, -1.61 1.91 M0.98 192.58 C-1.02 132.99, -2.34 71.75, -0.28 -0.34" stroke="#000000" stroke-width="1" fill="none"></path></g><g transform="translate(446.8344538966967 114.80510457356786) rotate(0 46 12.5)"><text x="0" y="18" font-family="Virgil, Segoe UI Emoji" font-size="20px" fill="#000000" text-anchor="start" style="white-space: pre;" direction="ltr">Service A</text></g><g stroke-linecap="round" transform="translate(405.86705283784795 116.52302151351842) rotate(0 15.575186169955487 10.782083060049672)"><path d="M0.71 -3.37 L29.82 0.63 L30.05 18.07 L-0.67 23.86" stroke="none" stroke-width="0" fill="#b1e7ff"></path><path d="M-1.33 -1.62 C10.3 0.76, 17.21 0.4, 33.67 -0.81 M1.45 1.97 C8.54 -1.02, 11.87 -0.48, 32.28 1.97 M33.01 2.66 C31.69 4.31, 31.35 12.36, 34.18 17.68 M29.17 -0.98 C31.75 3.08, 29.75 9.41, 30.65 20.04 M32.7 24.5 C23.74 22.83, 12.7 21.7, 1.47 18.69 M30.73 20.79 C18.79 21.74, 8.24 20.79, 0.4 20.54 M0.29 19.77 C0.7 15.49, 3.48 2.42, 0.99 1.59 M-0.68 19.7 C-2.09 16.13, -1.19 10.42, 1.36 0.69" stroke="#0eb1e4" stroke-width="1" fill="none"></path></g><g stroke-linecap="round"><g transform="translate(412.4528918319684 119.47492684366307) rotate(0 0.5879316281739193 3.7696948428381347)"><path d="M-0.93 -1.14 C-0.63 0.45, -0.52 9.65, -0.76 11.76 M3.76 -4.22 C3.99 -3.72, -1.18 4.03, -2.58 7.23" stroke="#0eb1e4" stroke-width="4" fill="none"></path></g></g><g stroke-linecap="round"><g transform="translate(428.31085351955335 122.72859569123148) rotate(0 0.5235873946012362 5.943361571014293)"><path d="M-1.14 0.76 C-1.62 2.58, -0.68 8.04, -0.64 10.02 M3.44 -1.3 C2.46 1.02, -1.43 11.62, -2.39 13.18" stroke="#0eb1e4" stroke-width="4" fill="none"></path></g></g><g stroke-linecap="round"><g transform="translate(420.3387452076904 122.89403917281061) rotate(0 -2.1634594079455383 5.201094692491097)"><path d="M0.76 0.88 C0.52 2.99, -2.29 9.94, -2.38 11.51 M-2.27 -1.11 C-2.88 0.2, -5.36 4.47, -5.08 6.84" stroke="#0eb1e4" stroke-width="4" fill="none"></path></g></g><g transform="translate(200.16778723003063 117.30510457356786) rotate(0 56.5 12.5)"><text x="0" y="18" font-family="Virgil, Segoe UI Emoji" font-size="20px" fill="#000000" text-anchor="start" style="white-space: pre;" direction="ltr">Ingress GW</text></g><g stroke-linecap="round" transform="translate(154.2003861711819 119.02302151351842) rotate(0 15.575186169955487 10.782083060049672)"><path d="M-3.69 -2.32 L34.32 -1.34 L27.56 21.79 L-1.6 18.87" stroke="none" stroke-width="0" fill="#b1e7ff"></path><path d="M-3.35 0.24 C13.66 -2.99, 25.77 -2.63, 27.19 3.89 M0.66 -1.95 C8.66 -1.09, 17.91 0.11, 30.76 -0.6 M30.89 1.62 C27.94 4.38, 32.24 10.45, 34.87 21.34 M31.15 0.46 C31.05 7.91, 29.76 14.65, 30.09 23.06 M35.13 18.15 C21.96 20, 6.17 23.64, -0.14 19.6 M29.95 19.62 C21.45 22.63, 13.71 22.72, 0.91 19.74 M3.65 18.03 C1.54 14.37, 0.66 5.08, 1.97 -2.29 M1.22 20.42 C0.38 15.39, 0.95 8.95, 1.75 -1.55" stroke="#0eb1e4" stroke-width="1" fill="none"></path></g><g stroke-linecap="round"><g transform="translate(160.7862251653023 121.97492684366307) rotate(0 -0.3817692720517698 4.5157474838497365)"><path d="M-2.34 0.16 C-2.24 1.65, -0.82 7.29, -0.53 8.76 M1.58 -2.21 C1.5 -0.43, -1.65 9.02, -2.24 11.25" stroke="#0eb1e4" stroke-width="4" fill="none"></path></g></g><g stroke-linecap="round"><g transform="translate(176.6441868528873 125.22859569123148) rotate(0 -1.0059233599854451 5.410821010537802)"><path d="M0.16 0.99 C-0.42 3.34, -3.04 10.58, -3.63 11.77 M-3.19 -0.95 C-2.88 0.74, 0.68 5.47, 1.62 7.24" stroke="#0eb1e4" stroke-width="4" fill="none"></path></g></g><g stroke-linecap="round"><g transform="translate(168.67207854102435 125.39403917281061) rotate(0 -0.735328612997364 4.7605234248865145)"><path d="M0.99 -2.11 C1.27 -0.64, 0.25 6.4, -0.63 9.02 M-1.92 2.91 C-1.72 4.68, -2.88 10.53, -2.38 11.64" stroke="#0eb1e4" stroke-width="4" fill="none"></path></g></g><g stroke-linecap="round" transform="translate(681.345032008383 201.66666666666652) rotate(0 80.19070434570312 23.971771240234375)"><path d="M-1.75 -0.34 L161.53 -1.31 L160.94 46.89 L1.63 48.4" stroke="none" stroke-width="0" fill="#fff"></path><path d="M0.45 1.26 C52.06 -1.11, 104.31 -0.58, 161.83 1.97 M-0.41 0.57 C62.69 1.85, 123.71 2.19, 160.85 0.66 M159.23 1.51 C158.08 13.13, 161.48 29.22, 158.4 46.96 M160.5 -0.25 C159.26 14.46, 160.17 29.29, 160.77 48.68 M160.71 48.68 C110.67 47.64, 63.23 44.74, -0.42 47.17 M160.27 48.14 C121.96 48.35, 85.3 46.62, 0.07 47.49 M-0.96 48.44 C0.49 30.71, 0.93 15.3, -0.68 -1.86 M-0.86 48.62 C0.52 38.11, -0.67 27.59, 0.16 -0.28" stroke="#000000" stroke-width="1" fill="none"></path></g><g stroke-linecap="round" transform="translate(682.345032008383 113.33333333333348) rotate(0 80.19070434570312 23.971771240234375)"><path d="M-1.89 0.84 L162.08 -1.91 L160.76 47.07 L0.14 46.82" stroke="none" stroke-width="0" fill="#fff"></path><path d="M-0.93 1.64 C48.52 2.1, 95.89 -0.49, 160.9 0.84 M-0.55 -0.2 C36.37 -1.51, 74.35 -0.68, 159.84 0.1 M158.68 0.16 C159.83 16.92, 159.66 34.09, 162.02 48.87 M159.94 -0.79 C159.89 16.81, 159.46 32.49, 160.12 48.12 M159.7 49.69 C114.85 49.44, 70.95 48.74, -0.24 49.66 M159.79 48.22 C118.05 49.24, 76.81 48.42, 0.77 47.49 M1.7 47.23 C0.97 30.52, 1.11 13.46, 0.99 -1.41 M0.66 47.95 C0.6 36.79, -0.01 24.63, 0.84 0.79" stroke="#000000" stroke-width="1" fill="none"></path></g><g transform="translate(705.1677872300297 18.971771240234375) rotate(0 46.5 12.5)"><text x="0" y="18" font-family="Virgil, Segoe UI Emoji" font-size="20px" fill="#000000" text-anchor="start" style="white-space: pre;" direction="ltr">Service B</text></g><g stroke-linecap="round" transform="translate(661.9384814092755 21.52302151351796) rotate(0 15.575186169955487 10.782083060049672)"><path d="M1 -1.06 L34.12 1.49 L29.02 21.4 L3.78 19.76" stroke="none" stroke-width="0" fill="#b1e7ff"></path><path d="M1.55 -3.65 C9.97 -1.6, 17.89 2.2, 27.41 -1.54 M1.19 -1.52 C10.53 0.45, 22.22 -0.3, 31.35 1.34 M28.39 2.9 C29.15 8.1, 32.13 11.06, 31.45 24.82 M32.37 0.99 C30.43 6.78, 33.03 11.95, 32.5 23.48 M30.31 22.87 C24.11 23.06, 13.22 20.69, -3.48 23.39 M33.12 21.19 C24.28 23.38, 15.89 22.15, 0.97 23.09 M-0.76 24.81 C2.34 12.87, 0.42 4.1, 2.82 3.94 M-1.39 21.2 C1.01 16.09, -1.42 9.69, -1.9 -0.96" stroke="#0eb1e4" stroke-width="1" fill="none"></path></g><g stroke-linecap="round"><g transform="translate(668.5243204033959 25.602179166617134) rotate(0 -0.46099919819016577 5.006707540221896)"><path d="M1.09 -2.56 C0.96 -0.81, -0.06 7.15, -0.34 9.62 M-1.77 2.22 C-2.2 4.42, -1.91 11.69, -1.94 12.57" stroke="#0eb1e4" stroke-width="4" fill="none"></path></g></g><g stroke-linecap="round"><g transform="translate(684.3822820909827 26.26597205402868) rotate(0 -2.2220756769711443 5.576160320781355)"><path d="M-2.56 1.18 C-2.87 2.97, -3.18 10.62, -2.77 11.8 M1.25 -0.65 C0.53 0.16, -5.29 5.52, -5.69 7.29" stroke="#0eb1e4" stroke-width="4" fill="none"></path></g></g><g stroke-linecap="round"><g transform="translate(676.410173779117 26.2772189416155) rotate(0 -0.6701619110240244 5.511718726113713)"><path d="M1.18 -1.26 C0.9 1.22, 0.29 10.44, -0.6 12.28 M-1.63 4.24 C-2.29 6.11, -2.82 6.68, -2.33 8.03" stroke="#0eb1e4" stroke-width="4" fill="none"></path></g></g><g stroke-linecap="round"><g transform="translate(31.86525166160027 133.25512315774404) rotate(0 56.732605588482784 -0.14299005355474037)"><path d="M-1.15 -0.71 C17.64 -0.96, 93.11 -1.55, 112.26 -1.82 M0.44 1.53 C19.67 1.53, 95.79 0.24, 114.62 -0.21" stroke="#000000" stroke-width="2" fill="none"></path></g><g transform="translate(31.86525166160027 133.25512315774404) rotate(0 56.732605588482784 -0.14299005355474037)"><path d="M112.92 -1.88 L100.3 5.2 L102.34 -6.38 L115.01 1.42" stroke="none" stroke-width="0" fill="#000000" fill-rule="evenodd"></path><path d="M113.73 -1.06 C111.28 2.41, 107.2 1.75, 102.41 7.8 M114.21 -0.53 C110.92 1.84, 106.93 2.85, 101.33 6.82 M102.11 5.65 C100.42 2.83, 100.37 -1.03, 99.97 -5.38 M100.92 6.65 C101.55 2.7, 101.28 -0.17, 100.84 -6.06 M99.7 -7.32 C102.59 -4.99, 107.49 -3.2, 113.65 -0.16 M100.47 -6.4 C105.79 -4.41, 111.74 -1.84, 114.08 0.53 M114.62 -0.21 C114.62 -0.21, 114.62 -0.21, 114.62 -0.21 M114.62 -0.21 C114.62 -0.21, 114.62 -0.21, 114.62 -0.21" stroke="#000000" stroke-width="2" fill="none"></path></g></g><g stroke-linecap="round"><g transform="translate(320.6414836452532 129.78231715393895) rotate(0 35.02415849474255 -0.6995936472721951)"><path d="M0.4 0.9 C12.4 0.89, 59.28 -0.11, 70.9 -0.76 M-0.85 0.33 C11.17 0.07, 58.71 -1.87, 70.43 -2.3" stroke="#000000" stroke-width="2" fill="none"></path></g><g transform="translate(320.6414836452532 129.78231715393895) rotate(0 35.02415849474255 -0.6995936472721951)"><path d="M71.44 -1.12 L57.08 5.93 L58.08 -7.97 L68.95 -0.34" stroke="none" stroke-width="0" fill="#000000" fill-rule="evenodd"></path><path d="M71.56 -1.17 C69.01 -0.65, 63.46 1.16, 55.96 3.29 M69.79 -2.89 C66.83 -1.25, 63.3 1.92, 57.58 4.69 M56.25 5.07 C57.41 0.79, 56.86 -5.57, 55.56 -8.76 M57.64 5.08 C56.66 0.09, 57.19 -4.8, 57.17 -8.62 M57.96 -8.37 C58.74 -5.46, 64 -5.45, 71.31 -0.9 M56.33 -7.37 C62.14 -5.33, 66.56 -3.2, 70.64 -2.72 M70.43 -2.3 C70.43 -2.3, 70.43 -2.3, 70.43 -2.3 M70.43 -2.3 C70.43 -2.3, 70.43 -2.3, 70.43 -2.3" stroke="#000000" stroke-width="2" fill="none"></path></g></g><g stroke-linecap="round" transform="translate(817.9795985029277 147.51214767825013) rotate(0 28.333333333333485 14.583333333333258)"><path d="M0 0 C0 0, 0 0, 0 0 M0 0 C0 0, 0 0, 0 0 M0.19 5.85 C1.79 4.13, 2.68 2.11, 4.39 0.83 M-0.26 6.78 C1.79 4.01, 3.65 1.83, 5.3 0.02 M-0.79 12.35 C3.35 7.87, 6.63 2.93, 9.93 0.79 M0.18 11.69 C2.68 9.43, 5.85 5.1, 10.3 -0.78 M-1.96 20.4 C4.36 13.01, 9.62 9.72, 15.81 0.31 M-0.62 18.88 C5.66 11.43, 11.07 5.44, 15.64 0.81 M-1.17 23.09 C7.48 16.73, 14.7 10.23, 22.51 -1.97 M0.15 24.3 C7.75 17.06, 12.75 8.13, 21.21 0.69 M1.94 28.88 C5.77 22.39, 13.29 14.97, 28.01 0.55 M-0.28 29.32 C6.34 23.83, 11.62 16.48, 27.2 0.68 M5.62 28.42 C14.69 21.14, 22.37 11.33, 33.71 -1.67 M6.07 30.75 C14.89 21.63, 22.79 10.46, 32.42 -0.73 M12.74 28.73 C21.98 20.54, 28.75 7.22, 37.71 0.25 M12.24 28.98 C20.44 19.33, 27.51 9.85, 36.07 0.8 M16.58 28.76 C23.23 22.63, 25.96 15.35, 40.72 -2.12 M16.75 30.44 C25.68 17.82, 36.44 6.57, 43.21 -0.2 M21.58 29.63 C26.22 21.75, 32.29 15.58, 47.51 -0.12 M21.65 30.02 C29.06 20.11, 37.33 12.51, 46.61 0.33 M28.7 29.03 C35.89 18.43, 48.48 6.69, 52.86 0.2 M26.5 30.37 C36.21 18.23, 47.26 7.48, 52.2 0.3 M33.41 29.46 C39.39 22.26, 47.44 13.36, 58.31 1.24 M31.75 30.28 C42.91 18.95, 52.39 7.15, 58.29 1.64 M39.13 28.62 C46.79 19.05, 54.34 12.96, 59.51 5.12 M36.64 29.99 C41.42 25.45, 46.12 19.63, 58.38 7.58 M43.15 27.65 C47.45 21.5, 56.22 14.52, 59.45 14.45 M42.62 29.57 C47.93 23.64, 53.27 17.74, 56.84 12.44 M49.48 29.62 C51.61 25.48, 54.08 21.33, 56.82 20.13 M47.52 30.15 C51.22 26.9, 54.09 23.38, 56.8 19.71 M53.77 30.03 C55.36 28.39, 56.34 26.32, 57.9 24.8 M53.75 29.29 C54.5 28.29, 55.75 27.55, 58.05 25.02 M-0.1 29.08 C-0.1 29.08, -0.1 29.08, -0.1 29.08 M-0.1 29.08 C-0.1 29.08, -0.1 29.08, -0.1 29.08 M6.86 28.9 C4.82 28.94, 2.86 27.15, -0.02 24.21 M6.24 29.71 C3.88 27.66, 1.52 25.14, 0.08 23.84 M12.99 30.15 C6.48 25.68, 2.5 21.97, -1.44 17.88 M12.44 28.84 C9.45 26.56, 6.1 23.3, -0.69 17.82 M19.74 27.23 C11.92 23.08, 8.41 18.69, -0.1 13.2 M18.88 28.3 C11.99 24.41, 5.74 17.09, 0.34 12.65 M24.35 30.59 C16.84 22.79, 9.25 13.42, 0.08 7.59 M23.92 28.93 C18.45 24.93, 12.94 19.44, 0.18 8.19 M29.04 29.56 C17.36 19.11, 10.21 10.95, 0.2 2.1 M31.33 28.48 C21.37 20.24, 10.07 11.17, 0.8 3.33 M37.45 28.4 C27.51 21.42, 22.95 16.06, -0.16 -3.25 M37 29.6 C23.41 18.15, 11.83 7.49, 1.21 -1.2 M42.35 28.32 C31.02 20.67, 21.24 10.72, 9.38 -0.13 M41.93 29.55 C35.74 22.55, 27.34 16.28, 8.49 -0.39 M50.31 29.11 C40.03 22.66, 30.61 12.94, 11.67 -2.66 M49.45 28.83 C36.57 18.22, 25.47 8.75, 12.83 -1.73 M57.16 30.77 C45.65 17.65, 31.52 8.82, 18.76 0.63 M56.09 28.88 C47.51 23.16, 41.54 15.95, 18.86 -2.11 M58.63 25.89 C51.84 21.22, 44.47 14.95, 26.08 -0.07 M58.71 27.49 C45.85 17.01, 32.49 6.2, 25.2 -2.69 M59.6 21.87 C52.91 15.8, 47.65 13.89, 33.11 -2.28 M59.2 21 C48.25 13.53, 38.17 5.23, 31.66 -2.26 M59.78 15.84 C52.41 10.6, 48.12 5.95, 38.86 -1.52 M58.66 16.35 C54.98 13.28, 50.95 9.98, 38.11 -1.54 M59.07 11.16 C53.91 7.07, 48 -0.35, 42.78 -1.07 M58.23 11.47 C55.61 9.01, 52.4 6.33, 43.9 -1.82 M57.95 5.74 C56.64 4.22, 53.91 2.01, 50.93 -0.35 M58.96 6.34 C57.09 4.66, 55.34 2.67, 50.27 -1.02" stroke="#ced4da" stroke-width="0.5" fill="none"></path><path d="M1.93 1.31 C20.54 -0.77, 39.12 -0.23, 56.15 0.57 M-0.43 0.79 C17.53 -1.24, 36.04 0.35, 56.89 0.89 M55.66 1.87 C56.98 8.16, 55.74 12.64, 57.87 29.93 M56.05 -0.54 C55.62 5.7, 56.25 13.86, 57.53 30.16 M57.02 29.72 C37.49 30.92, 13.15 29.34, 0.67 27.59 M55.95 28.28 C42.67 27.93, 28.9 27.67, 0.42 28.37 M-0.92 29.01 C0.5 20.79, 1.54 14.69, -1.92 -1.6 M-0.45 28.42 C0.86 18.79, -0.21 8.26, -0.57 -0.77" stroke="#000000" stroke-width="1" fill="none"></path></g><g transform="translate(834.8129318362608 144.59548101158362) rotate(0 11.5 17.5)"><text x="11.5" y="25" font-family="Virgil, Segoe UI Emoji" font-size="28px" fill="#000000" text-anchor="middle" style="white-space: pre;" direction="ltr">v1</text></g><g stroke-linecap="round" transform="translate(819.1462651695947 236.67881434491665) rotate(0 28.333333333333485 14.583333333333258)"><path d="M0 0 C0 0, 0 0, 0 0 M0 0 C0 0, 0 0, 0 0 M0.44 6.5 C0.91 4.14, 3.1 1.49, 4.66 0.4 M0.12 6.55 C1.66 4.59, 3.75 2.27, 4.65 0.5 M1.59 10.79 C4.02 6.24, 7.98 4.03, 11.7 1.36 M0.56 11.54 C4.58 8.11, 8.44 3.28, 10.25 0.72 M0.71 18.43 C6.12 12.22, 10.6 7.23, 14.19 2.2 M-0.93 18.98 C2.26 14.2, 6.86 11.37, 14.97 0.89 M-1.53 22.1 C7.83 19.78, 11.14 12.7, 22.04 -1.5 M0.95 24.02 C5.26 16.66, 11.59 10.82, 21.25 -0.93 M0.67 29.38 C6.91 22.49, 12.22 15.42, 26.97 -0.96 M-0.24 29.83 C7.27 22.31, 12.83 17.4, 25.75 -0.44 M5.36 30.46 C15.54 20.33, 22.46 9.94, 32.6 -1.6 M4.7 30.56 C12.96 20.8, 20.06 13.53, 31.81 -0.63 M12.12 29.98 C22.73 19.16, 31.59 6, 38.18 1.64 M12.1 30.39 C21.55 19.01, 29.67 8.74, 36.2 0.9 M17.91 28.58 C20.05 22.79, 29.02 15.32, 42.54 -1.4 M16.78 31.04 C27.14 18.32, 36.27 7.43, 41.55 -0.88 M23.75 31.12 C27.99 23.25, 34.32 15.61, 47.46 0.21 M21.14 29.11 C29.34 22.09, 35.84 15.51, 47.27 0.08 M26.15 31.09 C34.64 22.47, 40.83 11.1, 53.72 0.82 M26.12 30.49 C35.32 20.64, 42.44 11.35, 53.94 0.12 M33.05 28.88 C40.76 20.9, 51.67 8.28, 55.76 -0.76 M33.55 29.61 C38.87 22.88, 46.25 14.32, 57.56 1.03 M39.29 28.1 C44.18 22.42, 49.24 16.43, 59.08 8.09 M37.12 29.88 C43.35 22.67, 50.34 14.98, 57.33 6.43 M42.49 29.88 C50.83 22.56, 55.19 16.06, 59.45 12.54 M42.74 28.96 C49.6 23.43, 53.97 17.52, 58.37 12.46 M47.02 29.45 C50.55 26.49, 55.54 23.38, 57.16 20.13 M47.68 29.4 C51.16 26.29, 53.62 24.04, 56.66 19.15 M53.72 29.47 C55.19 28.07, 56.1 27.61, 57.2 25.2 M53.85 29.31 C55.44 27.54, 57.05 25.94, 57.92 25.07 M-0.1 29.08 C-0.1 29.08, -0.1 29.08, -0.1 29.08 M-0.1 29.08 C-0.1 29.08, -0.1 29.08, -0.1 29.08 M6.3 29.05 C4.84 27.16, 2.72 27.21, -0.22 24.77 M6.54 29.54 C4.18 27.6, 2.75 26.3, 0.07 23.78 M10.77 27.55 C9.84 27.97, 6.57 24.27, 0.28 17.73 M11.87 29.18 C8.73 26.1, 5.1 23.32, -0.38 18.18 M20.02 30.32 C9.87 23.34, 6.12 16.93, 1.44 14.22 M19.12 30.05 C13.06 25.18, 9.06 21.6, 0.18 13.24 M23.06 28.44 C17.42 22.67, 8.27 16.13, -0.92 7.6 M24.22 29.37 C18.46 24.04, 11.39 19.73, 0.48 8.58 M29.39 31.07 C22.5 23, 19.39 19.87, -0.97 1.97 M29.5 28.33 C20.49 20.74, 12.35 13.73, -0.41 2.76 M37.47 31.03 C27.53 21.38, 16 10.6, 2.08 -1.55 M36.59 28.41 C23.24 18.4, 11.54 7.92, 1.51 -1.45 M43.75 28.16 C35.15 22.4, 27.06 16.23, 6.79 -1.46 M42.3 28.19 C30.89 18.26, 20.23 9.78, 7.39 -1.52 M49.49 28.92 C37.87 20.92, 30.45 13.87, 13.1 -0.61 M48.74 28.91 C37.2 19.41, 24.67 8.62, 13.52 -0.94 M54.11 30.06 C40.97 18.51, 29.4 7.73, 21.1 -0.24 M55.29 29.27 C40.5 18.26, 26.05 4.82, 19.65 -1.16 M59.88 28.97 C46.09 17.69, 38.97 10.01, 27.19 -0.79 M58.68 27.75 C47.47 16.46, 34.81 6.85, 25.56 -1.4 M59.16 19.91 C49.89 12.86, 44.73 6.87, 30.77 -2.34 M58.71 21.88 C51.16 16.66, 45.36 9.43, 31.22 -1.07 M58.06 14.97 C53.61 12.32, 49.26 7.32, 39.69 -0.93 M59.41 17.23 C50.68 9.94, 42.02 2.97, 38.73 -1.02 M59.8 10.51 C54.53 8.02, 48.05 1.71, 45.07 -0.31 M58.86 10.89 C54.57 7.66, 51.33 4.71, 44.66 -1.25 M58.68 5.56 C56.37 2.81, 52.84 0.63, 50.46 -1.35 M58.54 5.77 C55.53 3.38, 52.97 0.75, 49.92 -1.43" stroke="#ced4da" stroke-width="0.5" fill="none"></path><path d="M0.07 0.78 C19.91 0.96, 38.98 -0.32, 56.06 0.07 M0.35 -0.76 C15.54 0.33, 29.99 0.37, 55.98 0.38 M55.18 1.17 C57.85 9.4, 57.96 15.83, 58.57 29.96 M57.46 -0.84 C57.55 7.8, 55.74 15.18, 56.86 28.66 M55.79 30.2 C37.91 30.36, 21.98 29.31, -0.88 28.52 M56.25 28.23 C33.66 28.69, 11.58 28.09, 0.98 29.33 M0.19 29.15 C0.73 19.44, -0.92 12.7, 0.87 0.27 M0.02 29.65 C0.09 23.05, 0.91 15.43, -0.5 0.39" stroke="#000000" stroke-width="1" fill="none"></path></g><g transform="translate(829.4795985029286 233.76214767825013) rotate(0 18 17.5)"><text x="18" y="25" font-family="Virgil, Segoe UI Emoji" font-size="28px" fill="#000000" text-anchor="middle" style="white-space: pre;" direction="ltr">v2</text></g><g stroke-linecap="round"><g transform="translate(561.6462651695947 118.76214767814372) rotate(0 43.756363406054334 -42.40325804273289)"><path d="M0.99 -0.39 C15.69 -14.33, 73.21 -68.74, 87.46 -82.45 M0.05 -1.65 C14.72 -15.46, 72.67 -71.14, 86.93 -84.41" stroke="#000000" stroke-width="1" fill="none"></path></g><g transform="translate(561.6462651695947 118.76214767814372) rotate(0 43.756363406054334 -42.40325804273289)"><path d="M85.48 -83.95 L81.07 -70.22 L72.56 -79.99 L87.41 -82.72" stroke="none" stroke-width="0" fill="#000000" fill-rule="evenodd"></path><path d="M86.44 -83.42 C86.12 -81.22, 84.56 -76.53, 81.83 -69.54 M86.19 -83.77 C85.32 -79.05, 83.54 -73.96, 81.13 -70.43 M82.43 -71.31 C78.73 -74.16, 74.95 -77.02, 72.93 -79.96 M80.84 -70.29 C78.82 -73.8, 75.3 -76.12, 72.7 -79.71 M73.9 -78.33 C79.11 -82.38, 82.83 -83.65, 87.96 -83.24 M72.42 -80.11 C77.18 -80.88, 80.63 -81.39, 86.42 -83.72 M86.93 -84.41 C86.93 -84.41, 86.93 -84.41, 86.93 -84.41 M86.93 -84.41 C86.93 -84.41, 86.93 -84.41, 86.93 -84.41" stroke="#000000" stroke-width="1" fill="none"></path></g></g><g stroke-linecap="round"><g transform="translate(566.9795985029268 134.3710019888258) rotate(0 56.054153819391104 0.9993090898885839)"><path d="M0.36 -0.57 C19.28 -0.49, 94.41 0.78, 113.01 1.08 M-0.9 1.74 C17.99 1.98, 93.92 2.44, 112.61 2.57" stroke="#000000" stroke-width="1" fill="none"></path></g><g transform="translate(566.9795985029268 134.3710019888258) rotate(0 56.054153819391104 0.9993090898885839)"><path d="M110.86 1.25 L98.46 8.71 L99.18 -4.24 L112.89 2.08" stroke="none" stroke-width="0" fill="#000000" fill-rule="evenodd"></path><path d="M111.9 3.88 C109.02 4.28, 105.64 6.78, 99.96 9.02 M112.04 2.49 C109.6 4.59, 106.3 5.28, 98.35 8.5 M98.53 7.99 C98.78 4.16, 99.89 1.38, 99.68 -4.18 M99.36 9.14 C98.65 6.06, 98.72 2.09, 99.56 -4.32 M98.21 -4.63 C103.56 -1.37, 108.21 0.02, 112.56 3.42 M99.06 -3.94 C102.34 -2.09, 105.15 -0.72, 111.88 2.55 M112.61 2.57 C112.61 2.57, 112.61 2.57, 112.61 2.57 M112.61 2.57 C112.61 2.57, 112.61 2.57, 112.61 2.57" stroke="#000000" stroke-width="1" fill="none"></path></g></g><g stroke-linecap="round"><g transform="translate(616.8254883993086 135.78724371533417) rotate(0 27.226870489856537 43.862260868633484)"><path d="M1.7 1.9 C-1.48 17.38, -1.36 36.3, -0.33 87.1 M0.1 0.31 C-0.26 30.57, -2.03 60.81, -2.3 85.69 M-2.24 87.41 C18.51 84.91, 42.01 86.45, 56.75 85.49 M-1.41 86.39 C14.95 86.31, 32.15 86.56, 55.03 85.57" stroke="#000000" stroke-width="1" fill="none"></path></g><g transform="translate(616.8254883993086 135.78724371533417) rotate(0 27.226870489856537 43.862260868633484)"><path d="M53.43 87.32 L40.5 91.26 L42.32 80.49 L53.72 86.36" stroke="none" stroke-width="0" fill="#000000" fill-rule="evenodd"></path><path d="M56.31 86.99 C51.58 86.06, 49.07 87.7, 42.78 92.93 M55.11 85.81 C50.8 88.23, 45.29 90.7, 41.31 91.87 M41.4 93.03 C40.87 86.87, 42 83.34, 42.47 79.9 M41.92 92.38 C41.45 88.5, 41.59 85.13, 41.38 79.96 M42.4 81.1 C42.84 80.76, 47.05 81.49, 55.02 86.28 M41.18 79.16 C46.41 81.97, 50.89 84.17, 54.97 85.16 M55.03 85.57 C55.03 85.57, 55.03 85.57, 55.03 85.57 M55.03 85.57 C55.03 85.57, 55.03 85.57, 55.03 85.57" stroke="#000000" stroke-width="1" fill="none"></path></g></g><g transform="translate(627.3129318362617 141.522564344918) rotate(0 20.33333333333303 11.119791666666515)"><text x="20.33333333333303" y="15.239583333333005" font-family="Virgil, Segoe UI Emoji" font-size="17.7916666666664px" fill="#000000" text-anchor="middle" style="white-space: pre;" direction="ltr">50%</text></g><g transform="translate(623.8129318362617 232.35589767825104) rotate(0 20.33333333333303 11.119791666666515)"><text x="20.33333333333303" y="15.239583333333005" font-family="Virgil, Segoe UI Emoji" font-size="17.7916666666664px" fill="#000000" text-anchor="middle" style="white-space: pre;" direction="ltr">50%</text></g><g stroke-linecap="round"><g transform="translate(10.96757060177606 163.13943328042797) rotate(0 28.106468339611183 -23.93624849971343)" fill-rule="evenodd"><path d="M1.74 -1.26 L4.17 -26.08 L4.99 -30.65 L14.08 -43.59 L25.44 -47.44 L32.65 -47.06 L41.51 -42.43 L56.13 -18.44 L58.14 -11.57 L54.46 -1.52 L44.55 -1.88 L1.16 -1.73" stroke="none" stroke-width="0" fill="#868e96" fill-rule="evenodd"></path><path d="M-0.79 0.2 C0.07 -5.3, 0.45 -24.25, 5.11 -32.44 C9.76 -40.63, 20.28 -48.51, 27.15 -48.92 C34.02 -49.34, 41.76 -42.56, 46.33 -34.91 C50.9 -27.26, 62.45 -8.97, 54.57 -3.01 C46.69 2.94, 8.16 0.17, -0.97 0.8 M0.99 -0.73 C2.22 -6.13, 2.98 -23.24, 7.3 -31.1 C11.63 -38.95, 20.38 -46.88, 26.94 -47.89 C33.51 -48.89, 42.32 -44.69, 46.7 -37.12 C51.08 -29.55, 61.01 -8.68, 53.22 -2.46 C45.43 3.76, 8.76 -0.19, -0.06 0.18" stroke="#000000" stroke-width="1" fill="none"></path></g></g><g stroke-linecap="round" transform="translate(24.88061408003614 89.50578064304455) rotate(0 13.913043478260988 12.173913043478251)"><path d="M15.87 -0.39 C18.72 0.13, 22.95 2.87, 25.08 5.16 C27.21 7.44, 28.83 10.87, 28.66 13.33 C28.49 15.79, 26.32 18.12, 24.07 19.9 C21.82 21.67, 18.11 23.58, 15.18 23.96 C12.24 24.34, 8.79 23.64, 6.46 22.19 C4.12 20.73, 2.2 17.61, 1.17 15.24 C0.13 12.87, -0.72 10.26, 0.25 7.96 C1.22 5.67, 4.17 2.78, 6.99 1.49 C9.81 0.2, 15.23 0.25, 17.17 0.2 C19.11 0.16, 18.61 0.97, 18.63 1.22 M12.04 -0.78 C14.87 -1.51, 17.48 0.66, 20.14 2.08 C22.81 3.5, 27.01 5.39, 28.04 7.75 C29.07 10.11, 27.55 13.62, 26.33 16.22 C25.12 18.82, 23.39 22.03, 20.77 23.34 C18.14 24.65, 13.53 24.64, 10.57 24.07 C7.6 23.5, 4.99 21.98, 2.99 19.93 C0.99 17.87, -1.28 14.26, -1.43 11.75 C-1.59 9.25, -0.17 6.86, 2.07 4.88 C4.31 2.89, 10.74 0.37, 12.01 -0.15 C13.28 -0.67, 9.6 1.55, 9.71 1.77" stroke="none" stroke-width="0" fill="#868e96"></path><path d="M11.98 0.69 C14.63 0.28, 18.92 0.65, 21.3 2.02 C23.68 3.39, 25.37 6.38, 26.28 8.91 C27.18 11.44, 27.5 14.96, 26.7 17.18 C25.91 19.4, 24.01 21.19, 21.49 22.21 C18.97 23.22, 14.74 23.56, 11.58 23.28 C8.42 23, 4.55 22.45, 2.53 20.52 C0.5 18.58, -0.67 14.29, -0.57 11.65 C-0.47 9, 0.83 6.51, 3.12 4.64 C5.41 2.76, 11.52 1.24, 13.19 0.37 C14.85 -0.49, 13.11 -0.73, 13.13 -0.55 M19.3 1.02 C22.1 1.72, 23.26 4.33, 24.44 6.39 C25.63 8.44, 26.52 10.94, 26.43 13.36 C26.34 15.77, 25.89 19.21, 23.89 20.88 C21.9 22.55, 17.6 23.06, 14.48 23.4 C11.37 23.74, 7.73 24.37, 5.21 22.92 C2.68 21.47, -0.24 17.49, -0.66 14.7 C-1.08 11.9, 1.2 8.55, 2.69 6.15 C4.19 3.75, 5.92 1.09, 8.3 0.3 C10.68 -0.5, 15.54 1.45, 16.96 1.37 C18.38 1.29, 16.97 -0.04, 16.84 -0.2" stroke="#000000" stroke-width="1" fill="none"></path></g><g transform="translate(17.56082091643748 170.32260696173626) rotate(0 21.5 10)"><text x="0" y="14" font-family="Virgil, Segoe UI Emoji" font-size="16px" fill="#000000" text-anchor="start" style="white-space: pre;" direction="ltr">Client</text></g><g transform="translate(735.3344538966958 123.97177124023438) rotate(0 45.5 12.5)"><text x="0" y="18" font-family="Virgil, Segoe UI Emoji" font-size="20px" fill="#000000" text-anchor="start" style="white-space: pre;" direction="ltr">Service C</text></g><g stroke-linecap="round" transform="translate(692.9384814092755 126.52302151351842) rotate(0 15.575186169955487 10.782083060049672)"><path d="M1.67 3.41 L27.32 0.76 L29.4 21.85 L-2.24 17.88" stroke="none" stroke-width="0" fill="#b1e7ff"></path><path d="M3.28 -0.74 C9.92 -3.5, 11.3 1.33, 32.83 -2.69 M-0.4 -1.94 C7.03 -0.35, 15.58 -0.74, 31.34 0.94 M31.47 -0.27 C31.35 3.98, 32.38 12.46, 33.01 22.84 M29.57 -1.05 C33.09 4.7, 32.63 12.7, 31.5 21.13 M34.63 19.82 C27.59 21.14, 18.75 20.88, 3.43 20.04 M31.71 20.89 C23.71 22.03, 13.87 22.73, -0.91 22.39 M-1.43 23.57 C-2.23 17.23, -3.65 10.26, -2.82 -1.92 M0 22.32 C1.97 15.64, 1.82 12.32, 1.58 -1.89" stroke="#0eb1e4" stroke-width="1" fill="none"></path></g><g stroke-linecap="round"><g transform="translate(699.5243204033959 130.6021791666176) rotate(0 1.1052044407483663 3.571386321664022)"><path d="M2.3 -0.52 C2.56 1.07, 1.68 6.2, 0.83 8.22 M0.1 -3.27 C0.26 -1.32, 0.77 7.35, -0.13 10.41" stroke="#0eb1e4" stroke-width="4" fill="none"></path></g></g><g stroke-linecap="round"><g transform="translate(715.3822820909827 131.26597205402913) rotate(0 -1.7288866320786838 6.849619701087704)"><path d="M-0.52 2.35 C-1 3.57, -4.13 7.99, -4.17 9.6 M-4.25 1.16 C-3.78 2.53, 0.45 11.54, 0.79 12.54" stroke="#0eb1e4" stroke-width="4" fill="none"></path></g></g><g stroke-linecap="round"><g transform="translate(707.410173779117 131.27721894161596) rotate(0 -1.686215085105232 4.475692891285007)"><path d="M2.35 -2.65 C1.5 -0.63, -2.34 9.66, -2.79 11.61 M0.18 2.08 C-1.36 3.25, -5.44 5.49, -5.72 6.99" stroke="#0eb1e4" stroke-width="4" fill="none"></path></g></g><g transform="translate(735.1677872300297 213.13843790690134) rotate(0 45.5 12.5)"><text x="0" y="18" font-family="Virgil, Segoe UI Emoji" font-size="20px" fill="#000000" text-anchor="start" style="white-space: pre;" direction="ltr">Service C</text></g><g stroke-linecap="round" transform="translate(691.9384814092755 215.68968818018493) rotate(0 15.575186169955487 10.782083060049672)"><path d="M-0.67 2.29 L28.54 1.11 L29.05 24.82 L0.91 21.9" stroke="none" stroke-width="0" fill="#b1e7ff"></path><path d="M2.52 -0.81 C7.11 -1.38, 18.51 2.77, 35.08 3.39 M1.13 1.97 C8.03 0.84, 15.92 1.19, 32.48 0.21 M34.18 -3.89 C27.67 7.76, 30.09 5.73, 29.19 22.14 M30.65 -1.53 C29.56 5.13, 29.08 10.46, 32.62 21.58 M32.62 18.69 C22.64 20.47, 6.1 20.83, -1.55 19.02 M31.55 20.54 C22.66 22.98, 8.72 21.64, -0.9 22.07 M0.99 23.15 C-3.67 16.2, -3.29 4.53, -3.72 -3.65 M1.36 22.25 C0.55 14.19, -0.47 10.51, -0.55 -1.75" stroke="#0eb1e4" stroke-width="1" fill="none"></path></g><g stroke-linecap="round"><g transform="translate(698.5243204033959 219.7688458332841) rotate(0 -1.0025583380247554 4.914177573800316)"><path d="M1.76 -0.57 C1.28 1, -2.97 7.77, -3.77 10.01 M-0.73 -3.35 C-0.27 -1.43, 2.23 11.2, 1.41 13.17" stroke="#0eb1e4" stroke-width="4" fill="none"></path></g></g><g stroke-linecap="round"><g transform="translate(714.3822820909827 220.43263872069565) rotate(0 -0.38609537994216225 4.97084991044585)"><path d="M-0.57 -2.25 C-1.07 -0.98, -2.56 6.73, -2.38 9.38 M4.32 2.7 C3.31 4.16, -4.34 11.04, -5.09 12.19" stroke="#0eb1e4" stroke-width="4" fill="none"></path></g></g><g stroke-linecap="round"><g transform="translate(706.410173779117 220.44388560828247) rotate(0 -0.34256211546107806 4.555849279903214)"><path d="M-2.25 -0.86 C-3.05 1.38, -3.6 10.56, -3.02 12.91 M1.73 -3.8 C1.7 -2.28, 2.7 6.87, 2.57 9.01" stroke="#0eb1e4" stroke-width="4" fill="none"></path></g></g></svg>