<svg version="1.1" xmlns="http://www.w3.org/2000/svg" viewBox="0 0 102.90414950783452 94.41437359730935" width="102.90414950783452" height="94.41437359730935">
  <!-- svg-source:excalidraw -->
  
  <defs>
    <style>
      @font-face {
        font-family: "Virgil";
        src: url("https://plus.excalidraw.com/Virgil.woff2");
      }
      @font-face {
        font-family: "Cascadia";
        src: url("https://plus.excalidraw.com/Cascadia.woff2");
      }
    </style>
  </defs>
  <g stroke-linecap="round" transform="translate(10.00000000000091 29.044479540391876) rotate(0 30.079107672897862 27.684947028458964)"><path d="M23.31 0.34 C29.03 -1.35, 36.74 -0.16, 42.3 2.39 C47.86 4.95, 54.02 10.17, 56.7 15.67 C59.38 21.17, 59.96 29.38, 58.36 35.37 C56.76 41.36, 52.29 48.19, 47.08 51.6 C41.86 55, 33.67 56.48, 27.07 55.8 C20.47 55.13, 11.97 51.88, 7.49 47.54 C3.02 43.19, 0.64 35.61, 0.21 29.75 C-0.21 23.89, 0.46 17.3, 4.94 12.37 C9.41 7.45, 23.05 2.07, 27.07 0.21 C31.08 -1.65, 28.98 0.57, 29.02 1.18 M42.54 2.18 C48.43 3.98, 54.36 9.97, 56.98 15.62 C59.59 21.27, 59.63 30.1, 58.23 36.07 C56.83 42.04, 53.72 48.14, 48.58 51.44 C43.44 54.73, 34.06 56.53, 27.41 55.84 C20.76 55.14, 13.4 51.5, 8.7 47.25 C3.99 43, -0.25 36.22, -0.84 30.35 C-1.42 24.47, 1.32 16.68, 5.2 11.99 C9.09 7.31, 16.33 3.98, 22.46 2.24 C28.6 0.5, 38.65 1.53, 42 1.55 C45.36 1.56, 42.61 1.61, 42.58 2.33" stroke="none" stroke-width="0" fill="#865a48"></path><path d="M28.43 -0.36 C34.45 -0.93, 43.51 1.78, 48.77 5.63 C54.02 9.49, 58.63 16.96, 59.97 22.76 C61.3 28.56, 59.79 35.47, 56.79 40.44 C53.8 45.41, 48.15 50.32, 42 52.57 C35.84 54.82, 26.2 55.65, 19.87 53.96 C13.55 52.28, 7.17 47.56, 4.06 42.48 C0.94 37.41, 0.11 29.47, 1.18 23.53 C2.25 17.59, 4.64 10.54, 10.47 6.83 C16.31 3.13, 30.74 1.89, 36.17 1.3 C41.6 0.7, 43.12 2.89, 43.04 3.25 M15.98 3.15 C21.39 0.4, 31.6 -1.02, 37.83 0.54 C44.06 2.09, 49.49 7.93, 53.37 12.5 C57.25 17.08, 61.14 22.5, 61.1 27.99 C61.07 33.49, 57.76 40.78, 53.18 45.46 C48.59 50.15, 40.13 55.45, 33.62 56.11 C27.1 56.77, 19.71 52.73, 14.07 49.4 C8.43 46.08, 1.5 41.68, -0.24 36.16 C-1.97 30.64, 0.98 21.86, 3.65 16.29 C6.32 10.71, 13.57 4.83, 15.76 2.7 C17.95 0.56, 16.44 2.89, 16.81 3.49" stroke="#000000" stroke-width="2" fill="none"></path></g><g stroke-linecap="round" transform="translate(20.561037486580062 14.59361862648393) rotate(10.74366233694554 25.86620102625602 13.02064783747096)"><path d="M-1.27 1.87 L53.18 1.57 L51.4 26.78 L-0.34 25.85" stroke="none" stroke-width="0" fill="#4c6ef5"></path><path d="M0.39 -0.43 C15.57 1.93, 29.52 -0.22, 52.97 -1.54 M0.1 0.89 C10.31 0.82, 20.98 0.27, 52.46 0.3 M49.89 0.16 C50.89 6.99, 52.14 16.84, 51.4 24.79 M52.62 -0.89 C52.05 10.55, 52.35 19, 50.76 26.49 M51.49 25.79 C32.49 25.62, 14.18 26.11, -0.51 25.06 M51.24 25.11 C36.72 25.48, 21.78 25.68, 0.09 26.19 M-1.95 27.23 C0.25 15.88, -1.6 7.17, 1.48 -0.01 M0.94 26.9 C-1 21.44, -0.21 15.04, -0.18 -0.13" stroke="#000000" stroke-width="2" fill="none"></path></g><g stroke-linecap="round" transform="translate(27.222138837451894 57.403647750325945) rotate(0 0.514128394270756 0.6751180934870717)"><path d="M0.42 0.64 C0.25 0.48, 0.07 -0.59, 0.16 -0.67 C0.25 -0.74, 0.83 -0.27, 0.97 0.19 C1.11 0.64, 1.11 1.75, 0.99 2.03 C0.87 2.32, 0.41 2.03, 0.24 1.89 C0.06 1.76, -0.16 1.36, -0.07 1.24 C0.01 1.11, 0.71 1.28, 0.74 1.16 C0.77 1.05, 0.15 0.89, 0.11 0.56 C0.07 0.22, 0.37 -0.69, 0.48 -0.85 C0.59 -1.01, 0.81 -0.59, 0.77 -0.4 C0.74 -0.21, 0.19 0.22, 0.25 0.27 M-1.1 1.36 C-1.43 1.18, -1.12 0.32, -0.63 0.26 C-0.13 0.2, 1.83 1.17, 1.88 1.02 C1.93 0.87, -0.25 -0.86, -0.31 -0.64 C-0.37 -0.42, 1.42 2.16, 1.51 2.33 C1.6 2.5, 0.46 0.61, 0.2 0.38 C-0.05 0.16, 0 0.94, -0.01 0.99 C-0.02 1.04, -0.05 0.77, 0.12 0.7 C0.29 0.64, 1.03 0.85, 1.01 0.62 C0.98 0.38, 0.12 -0.47, -0.03 -0.7 C-0.18 -0.94, -0.11 -0.82, 0.1 -0.81" stroke="#000000" stroke-width="1" fill="none"></path></g><g stroke-linecap="round" transform="translate(51.9169200539809 55.92960529143738) rotate(0 0.5193216103748455 0.8828467376367826)"><path d="M1.35 -0.69 C1.27 -0.6, 0.19 0.13, 0.05 0.45 C-0.1 0.76, 0.21 1.07, 0.49 1.21 C0.77 1.35, 1.62 1.23, 1.71 1.27 C1.8 1.31, 1.28 1.3, 1.02 1.46 C0.76 1.62, 0.27 2.31, 0.15 2.23 C0.03 2.16, 0.28 1.31, 0.3 1.03 C0.31 0.75, 0.38 0.73, 0.25 0.58 C0.11 0.42, -0.56 0.26, -0.54 0.11 C-0.52 -0.04, 0.11 -0.44, 0.37 -0.34 C0.64 -0.24, 1.02 0.71, 1.06 0.7 M2.06 -1.26 C2.03 -0.8, 1.26 1.23, 1.19 1.4 C1.13 1.57, 1.98 -0.38, 1.68 -0.24 C1.38 -0.09, -0.61 1.99, -0.63 2.27 C-0.64 2.56, 1.64 1.63, 1.61 1.47 C1.58 1.32, -0.51 1.41, -0.81 1.35 C-1.1 1.28, -0.32 1.1, -0.18 1.1 C-0.04 1.09, -0.12 1.57, 0.02 1.33 C0.16 1.09, 0.68 -0.09, 0.67 -0.35 C0.67 -0.6, 0.12 -0.4, -0.01 -0.19 C-0.15 0.02, -0.13 1.09, -0.13 0.92" stroke="#000000" stroke-width="1" fill="none"></path></g><g stroke-linecap="round"><g transform="translate(21.535747337643443 53.1627913421471) rotate(0 7.382389004632387 -2.348983798216068)"><path d="M0 -1.05 C1.35 -1.58, 5.65 -4.33, 8.11 -4.23 C10.57 -4.13, 13.66 -1.09, 14.76 -0.47 M0 -1.05 C1.35 -1.58, 5.65 -4.33, 8.11 -4.23 C10.57 -4.13, 13.66 -1.09, 14.76 -0.47" stroke="#000000" stroke-width="1" fill="none"></path></g></g><g stroke-linecap="round"><g transform="translate(47.30173249106247 52.11658207415621) rotate(0 6.224367199984044 -1.8817854325534427)"><path d="M0 0 C2.07 -0.63, 10.37 -3.14, 12.45 -3.76 M0 0 C2.07 -0.63, 10.37 -3.14, 12.45 -3.76" stroke="#000000" stroke-width="1" fill="none"></path></g></g><g stroke-linecap="round"><g transform="translate(105.56912140505756 56.90257668662025) rotate(0 -44.466853981281474 -10.108874642982073)"><path d="M-17.91 -4.72 C-27.05 -7.32, -71.69 -19.27, -72.34 -19 C-72.99 -18.73, -29.78 -5.15, -21.81 -3.09 C-13.84 -1.04, -19.65 -4.92, -24.5 -6.66 C-29.34 -8.41, -51.76 -13.38, -50.87 -13.56 C-49.98 -13.73, -24.33 -8.9, -19.15 -7.73 M-19.28 -5.9 C-28.56 -7.85, -72.86 -18.63, -72.9 -17.95 C-72.93 -17.27, -27.56 -3.89, -19.51 -1.82 C-11.46 0.26, -19.21 -3.57, -24.59 -5.5 C-29.97 -7.42, -52.37 -12.8, -51.78 -13.38 C-51.19 -13.95, -26.49 -9.95, -21.05 -8.96" stroke="#4c6ef5" stroke-width="2" fill="none"></path></g></g><g stroke-linecap="round"><g transform="translate(86.44757011649835 57.49567200595993) rotate(0 1.5375448521785984 -3.81457332284981)"><path d="M-0.25 0.74 C-0.24 -0.68, 0.73 -6.93, 1.1 -8.37 M1.81 0.08 C2.11 -1.25, 3.44 -6.26, 3.33 -7.43" stroke="#000000" stroke-width="2" fill="none"></path></g></g><g stroke-linecap="round"><g transform="translate(23.681799103817866 35.94109760369929) rotate(0 34.44612335046577 6.813515035265482)"><path d="M0.74 -0.92 C11.9 1.29, 55.96 10.69, 67.1 13.05 M-0.33 1.2 C11.17 3.64, 58.08 12.31, 69.22 14.55" stroke="#000000" stroke-width="2" fill="none"></path></g></g><g stroke-linecap="round" transform="translate(42.96507254115659 19.707779863451833) rotate(369.36158870286766 5.381689321900467 6.215472174589422)"><path d="M8.84 1.45 C9.72 2.31, 10.48 3.82, 10.68 5.14 C10.88 6.45, 10.62 8.17, 10.04 9.32 C9.47 10.48, 8.31 11.6, 7.22 12.06 C6.14 12.51, 4.62 12.51, 3.54 12.06 C2.46 11.6, 1.3 10.48, 0.72 9.32 C0.14 8.17, -0.12 6.45, 0.08 5.14 C0.28 3.82, 1.04 2.31, 1.92 1.45 C2.81 0.6, 4.23 0, 5.38 0 C6.53 0, 7.96 0.6, 8.84 1.45" stroke="#000" stroke-width="2" fill="none"></path></g><g stroke-linecap="round" transform="translate(43.886111352164335 20.47180233321251) rotate(369.36158870286766 4.32051114575097 6.215472174589422)"><path d="M7.1 1.45 C7.81 2.31, 8.41 3.82, 8.58 5.14 C8.74 6.45, 8.53 8.17, 8.06 9.32 C7.6 10.48, 6.67 11.6, 5.8 12.06 C4.93 12.51, 3.71 12.51, 2.84 12.06 C1.97 11.6, 1.04 10.48, 0.58 9.32 C0.12 8.17, -0.1 6.45, 0.07 5.14 C0.23 3.82, 0.83 2.31, 1.54 1.45 C2.25 0.6, 3.39 0, 4.32 0 C5.25 0, 6.39 0.6, 7.1 1.45" stroke="#000" stroke-width="2" fill="none"></path></g><g stroke-linecap="round" transform="translate(43.01664549430916 19.86993936453382) rotate(369.36158870286766 5.154293998439698 6.367069056896526)"><path d="M8.47 1.49 C9.31 2.37, 10.04 3.92, 10.23 5.26 C10.42 6.6, 10.17 8.37, 9.62 9.55 C9.07 10.73, 7.95 11.88, 6.92 12.35 C5.88 12.82, 4.43 12.82, 3.39 12.35 C2.35 11.88, 1.24 10.73, 0.69 9.55 C0.14 8.37, -0.11 6.6, 0.08 5.26 C0.27 3.92, 1 2.37, 1.84 1.49 C2.69 0.61, 4.05 0, 5.15 0 C6.26 0, 7.62 0.61, 8.47 1.49" stroke="#000" stroke-width="2" fill="none"></path></g><g stroke-linecap="round" transform="translate(43.035118223116115 20.11205407900934) rotate(369.36158870286766 4.926898674979384 6.367069056896526)"><path d="M8.09 1.49 C8.9 2.37, 9.6 3.92, 9.78 5.26 C9.96 6.6, 9.72 8.37, 9.19 9.55 C8.67 10.73, 7.6 11.88, 6.61 12.35 C5.62 12.82, 4.23 12.82, 3.24 12.35 C2.25 11.88, 1.19 10.73, 0.66 9.55 C0.13 8.37, -0.11 6.6, 0.07 5.26 C0.26 3.92, 0.95 2.37, 1.76 1.49 C2.57 0.61, 3.87 0, 4.93 0 C5.98 0, 7.29 0.61, 8.09 1.49" stroke="#000" stroke-width="2" fill="none"></path></g><g stroke-linecap="round" transform="translate(40.535441089775304 25.31347007011027) rotate(369.36158870286766 6.973456586124485 5.684883086514674)"><path d="M2.84 0 L11.1 0 L13.24 0.71 L13.95 2.84 L13.95 8.53 L13.24 10.66 L11.1 11.37 L2.84 11.37 L0.71 10.66 L0 8.53 L0.18 1.6 L2.84 0" stroke="none" stroke-width="0" fill="#fab005"></path><path d="M2.84 0 M2.84 0 C6.05 0, 9.27 0, 11.1 0 M2.84 0 C5.7 0, 8.55 0, 11.1 0 M11.1 0 C13 0, 13.95 0.95, 13.95 2.84 M11.1 0 C13 0, 13.95 0.95, 13.95 2.84 M13.95 2.84 C13.95 4.27, 13.95 5.69, 13.95 8.53 M13.95 2.84 C13.95 4.63, 13.95 6.42, 13.95 8.53 M13.95 8.53 C13.95 10.42, 13 11.37, 11.1 11.37 M13.95 8.53 C13.95 10.42, 13 11.37, 11.1 11.37 M11.1 11.37 C7.85 11.37, 4.59 11.37, 2.84 11.37 M11.1 11.37 C8.73 11.37, 6.36 11.37, 2.84 11.37 M2.84 11.37 C0.95 11.37, 0 10.42, 0 8.53 M2.84 11.37 C0.95 11.37, 0 10.42, 0 8.53 M0 8.53 C0 7.05, 0 5.57, 0 2.84 M0 8.53 C0 6.89, 0 5.24, 0 2.84 M0 2.84 C0 0.95, 0.95 0, 2.84 0 M0 2.84 C0 0.95, 0.95 0, 2.84 0" stroke="#000" stroke-width="2" fill="none"></path></g><g stroke-linecap="round"><g transform="translate(41.60123912081599 29.50858730449363) rotate(369.36158870286766 6.161351828538955 -0.049072713678697255)"><path d="M0 0 C2.05 -0.02, 10.27 -0.08, 12.32 -0.1 M0 0 C2.05 -0.02, 10.27 -0.08, 12.32 -0.1" stroke="#000" stroke-width="2" fill="none"></path></g></g><g stroke-linecap="round"><g transform="translate(41.032892980251745 32.95602975301608) rotate(369.36158870286766 6.161351828538955 -0.049072713678697255)"><path d="M0 0 C2.05 -0.02, 10.27 -0.08, 12.32 -0.1 M0 0 C2.05 -0.02, 10.27 -0.08, 12.32 -0.1" stroke="#000" stroke-width="2" fill="none"></path></g></g><g stroke-linecap="round"><g transform="translate(41.7207621964053 28.783590871962588) rotate(369.36158870286766 6.161351828538955 -0.049072713678697255)"><path d="M0 0 C2.05 -0.02, 10.27 -0.08, 12.32 -0.1 M0 0 C2.05 -0.02, 10.27 -0.08, 12.32 -0.1" stroke="#000" stroke-width="2" fill="none"></path></g></g><g stroke-linecap="round"><g transform="translate(40.97084310989794 33.332408409855816) rotate(369.36158870286766 6.161351828538955 -0.049072713678697255)"><path d="M0 0 C2.05 -0.02, 10.27 -0.08, 12.32 -0.1 M0 0 C2.05 -0.02, 10.27 -0.08, 12.32 -0.1" stroke="#000" stroke-width="2" fill="none"></path></g></g><g stroke-linecap="round"><g transform="translate(18.1720776371576 39.06844585904173) rotate(4.671279860087183 33.56425604483866 7.53085130966042)"><path d="M0 0.87 C11.32 3.13, 57.19 11.12, 68.59 13.2 M-1.46 0.28 C9.67 2.78, 56.3 12.36, 67.83 14.78" stroke="#000000" stroke-width="2" fill="none"></path></g></g><g stroke-linecap="round"><g transform="translate(28.213888804650196 73.58460665335542) rotate(178.9119155327144 11.145959869738817 -0.9343877874755435)"><path d="M0 -1.05 C1.93 -1.58, 7.86 -4.81, 11.58 -4.23 C15.3 -3.65, 20.51 1.32, 22.29 2.43 M0 -1.05 C1.93 -1.58, 7.86 -4.81, 11.58 -4.23 C15.3 -3.65, 20.51 1.32, 22.29 2.43" stroke="#000" stroke-width="2" fill="none"></path></g></g></svg>