<svg version="1.1" xmlns="http://www.w3.org/2000/svg" viewBox="0 0 96.73013949911456 79.97057844167193" width="96.73013949911456" height="79.97057844167193">
  <!-- svg-source:excalidraw -->
  
  <defs>
    <style>
      @font-face {
        font-family: "Virgil";
        src: url("https://plus.excalidraw.com/Virgil.woff2");
      }
      @font-face {
        font-family: "Cascadia";
        src: url("https://plus.excalidraw.com/Cascadia.woff2");
      }
    </style>
  </defs>
  <g stroke-linecap="round" transform="translate(15.72979934750856 10) rotate(0 32.57838066835984 29.985289220835966)"><path d="M19.01 2.03 C24.63 -0.97, 32.98 -0.31, 39.79 1.41 C46.6 3.14, 55.76 7.26, 59.86 12.39 C63.97 17.53, 65.11 25.79, 64.41 32.24 C63.71 38.69, 60.47 46.39, 55.68 51.09 C50.88 55.79, 42.53 59.9, 35.64 60.45 C28.74 61.01, 20.13 58.2, 14.31 54.43 C8.48 50.65, 2.68 43.86, 0.69 37.8 C-1.3 31.75, -1.21 24.3, 2.37 18.08 C5.96 11.86, 18.16 3.46, 22.22 0.48 C26.28 -2.5, 26.63 -0.34, 26.75 0.19 M34.23 0.91 C40.59 0.71, 48.04 4.59, 53.18 8.82 C58.33 13.05, 64.15 19.84, 65.09 26.29 C66.04 32.75, 62.45 42.17, 58.83 47.55 C55.22 52.94, 50.11 56.75, 43.41 58.6 C36.71 60.44, 25.12 60.84, 18.64 58.6 C12.16 56.37, 7.29 51.25, 4.53 45.18 C1.76 39.11, 0.5 28.68, 2.08 22.16 C3.66 15.65, 8.72 9.82, 13.99 6.09 C19.27 2.35, 30.43 0.82, 33.74 -0.24 C37.05 -1.31, 33.59 -1.05, 33.86 -0.32" stroke="none" stroke-width="0" fill="#fff"></path><path d="M24.45 0.84 C30.62 -1.35, 38.5 0.06, 44.75 2.85 C51.01 5.64, 58.71 11.82, 61.97 17.57 C65.23 23.33, 65.97 31.3, 64.32 37.39 C62.68 43.47, 57.9 50.4, 52.09 54.09 C46.28 57.78, 36.45 59.8, 29.46 59.53 C22.47 59.25, 15.05 56.71, 10.16 52.44 C5.27 48.18, 0.92 40.55, 0.12 33.93 C-0.69 27.31, 0.69 18.3, 5.35 12.72 C10 7.14, 23.41 2.38, 28.06 0.44 C32.71 -1.5, 32.97 0.6, 33.24 1.08 M27.73 0.08 C34 -0.73, 43.73 1.75, 49.98 5.27 C56.23 8.79, 63.03 15.12, 65.23 21.2 C67.42 27.27, 66.23 35.57, 63.17 41.71 C60.11 47.84, 53.21 55.1, 46.88 58.01 C40.54 60.92, 31.9 60.87, 25.17 59.18 C18.43 57.5, 10.88 53.12, 6.47 47.93 C2.05 42.73, -1.63 34.62, -1.3 28.03 C-0.97 21.45, 3.34 12.96, 8.46 8.42 C13.58 3.89, 26.01 2.25, 29.43 0.82 C32.84 -0.61, 28.75 -0.73, 28.97 -0.17" stroke="#000000" stroke-width="2" fill="none"></path></g><g stroke-linecap="round" transform="translate(32.42464462297994 35.172123479208494) rotate(0 0.556847321506666 0.7312136545040175)"><path d="M0.61 0.82 C0.91 0.77, 0.82 0.4, 0.95 0.33 C1.08 0.25, 1.5 0.33, 1.37 0.38 C1.24 0.42, 0.21 0.3, 0.14 0.6 C0.08 0.91, 0.94 1.93, 0.98 2.19 C1.02 2.45, 0.56 2.43, 0.39 2.17 C0.22 1.91, 0.09 0.84, -0.04 0.64 C-0.17 0.43, -0.38 0.91, -0.38 0.93 C-0.39 0.94, -0.4 0.86, -0.08 0.73 C0.23 0.6, 1.4 0.15, 1.51 0.15 C1.63 0.14, 0.88 0.89, 0.61 0.72 M1.88 -0.5 C2.26 -0.62, 1.85 -0.66, 1.72 -0.29 C1.59 0.07, 1.14 1.42, 1.1 1.67 C1.06 1.91, 1.51 1.17, 1.49 1.18 C1.47 1.18, 1.41 1.65, 0.99 1.71 C0.58 1.77, -0.74 1.77, -1 1.54 C-1.26 1.32, -0.79 0.41, -0.58 0.37 C-0.37 0.32, 0.2 1.47, 0.28 1.28 C0.37 1.09, -0.31 -0.71, -0.06 -0.75 C0.19 -0.8, 1.91 0.66, 1.77 1.01 C1.63 1.36, -0.49 1.47, -0.92 1.35" stroke="#000000" stroke-width="1" fill="none"></path></g><g stroke-linecap="round" transform="translate(61.783660312160464 37.69762294745124) rotate(0 0.5624720419259575 0.9562024712743096)"><path d="M1.1 0.23 C1.19 0.15, 0.94 0.44, 0.9 0.31 C0.87 0.17, 0.93 -0.71, 0.9 -0.58 C0.87 -0.44, 0.59 0.78, 0.75 1.13 C0.9 1.47, 1.71 1.42, 1.81 1.52 C1.91 1.62, 1.72 1.75, 1.37 1.73 C1.01 1.71, -0.11 1.5, -0.3 1.39 C-0.49 1.27, 0.09 1.03, 0.22 1.04 C0.36 1.06, 0.47 1.67, 0.51 1.47 C0.56 1.27, 0.41 0.22, 0.5 -0.15 C0.59 -0.52, 1.23 -0.77, 1.06 -0.73 M-0.09 0.85 C-0.08 0.57, -0.03 0.06, 0.35 0.08 C0.72 0.11, 2.01 0.77, 2.16 0.99 C2.3 1.22, 1.37 1.54, 1.21 1.43 C1.04 1.32, 1.28 0.39, 1.18 0.36 C1.09 0.33, 0.93 0.99, 0.63 1.25 C0.34 1.51, -0.59 1.99, -0.58 1.91 C-0.58 1.84, 0.7 0.84, 0.66 0.8 C0.61 0.75, -0.96 2.01, -0.84 1.64 C-0.71 1.27, 0.99 -0.94, 1.42 -1.42 C1.85 -1.91, 1.88 -1.69, 1.75 -1.28" stroke="#000000" stroke-width="1" fill="none"></path></g><g stroke-linecap="round" transform="translate(82.51039578521795 45.71736741273526) rotate(0 1.726513923735638 4.8001045742350925)"><path d="M0.86 0 L2.59 0 L3.45 0.86 L3.45 8.74 L2.59 9.6 L0.22 9.38 L0 8.74 L0 0.86 L0.86 0" stroke="none" stroke-width="0" fill="#e98d5e"></path><path d="M0.86 0 M0.86 0 C1.41 0, 1.97 0, 2.59 0 M0.86 0 C1.25 0, 1.63 0, 2.59 0 M2.59 0 C3.17 0, 3.45 0.29, 3.45 0.86 M2.59 0 C3.17 0, 3.45 0.29, 3.45 0.86 M3.45 0.86 C3.45 2.5, 3.45 4.14, 3.45 8.74 M3.45 0.86 C3.45 2.73, 3.45 4.6, 3.45 8.74 M3.45 8.74 C3.45 9.31, 3.17 9.6, 2.59 9.6 M3.45 8.74 C3.45 9.31, 3.17 9.6, 2.59 9.6 M2.59 9.6 C2.09 9.6, 1.6 9.6, 0.86 9.6 M2.59 9.6 C2.16 9.6, 1.72 9.6, 0.86 9.6 M0.86 9.6 C0.29 9.6, 0 9.31, 0 8.74 M0.86 9.6 C0.29 9.6, 0 9.31, 0 8.74 M0 8.74 C0 7.14, 0 5.55, 0 0.86 M0 8.74 C0 6.38, 0 4.02, 0 0.86 M0 0.86 C0 0.29, 0.29 0, 0.86 0 M0 0.86 C0 0.29, 0.29 0, 0.86 0" stroke="black" stroke-width="1" fill="none"></path></g><g stroke-linecap="round" transform="translate(76.62997161183102 33.61832497700334) rotate(5.555647157401859 5.029975536433994 8.284874136247936)"><path d="M8.26 1.94 C9.09 3.08, 9.8 5.1, 9.98 6.85 C10.17 8.59, 9.92 10.89, 9.39 12.43 C8.85 13.96, 7.76 15.46, 6.75 16.07 C5.74 16.68, 4.32 16.68, 3.31 16.07 C2.3 15.46, 1.21 13.96, 0.67 12.43 C0.14 10.89, -0.11 8.59, 0.08 6.85 C0.26 5.1, 0.97 3.08, 1.8 1.94 C2.62 0.8, 3.95 0, 5.03 0 C6.11 0, 7.44 0.8, 8.26 1.94" stroke="none" stroke-width="0" fill="#e98d5e"></path><path d="M8.26 1.94 C9.09 3.08, 9.8 5.1, 9.98 6.85 C10.17 8.59, 9.92 10.89, 9.39 12.43 C8.85 13.96, 7.76 15.46, 6.75 16.07 C5.74 16.68, 4.32 16.68, 3.31 16.07 C2.3 15.46, 1.21 13.96, 0.67 12.43 C0.14 10.89, -0.11 8.59, 0.08 6.85 C0.26 5.1, 0.97 3.08, 1.8 1.94 C2.62 0.8, 3.95 0, 5.03 0 C6.11 0, 7.44 0.8, 8.26 1.94" stroke="black" stroke-width="1" fill="none"></path></g><g stroke-linecap="round" transform="translate(10.941126370072197 41.70305845739904) rotate(0 1.8366495444829525 5.106306852518401)"><path d="M0.92 0 L3.44 0.23 L3.67 0.92 L3.67 9.29 L2.75 10.21 L0.92 10.21 L0 9.29 L0 0.92 L0.92 0" stroke="none" stroke-width="0" fill="#e98d5e"></path><path d="M0.92 0 M0.92 0 C1.56 0, 2.19 0, 2.75 0 M0.92 0 C1.46 0, 2 0, 2.75 0 M2.75 0 C3.37 0, 3.67 0.31, 3.67 0.92 M2.75 0 C3.37 0, 3.67 0.31, 3.67 0.92 M3.67 0.92 C3.67 3.06, 3.67 5.2, 3.67 9.29 M3.67 0.92 C3.67 3.99, 3.67 7.07, 3.67 9.29 M3.67 9.29 C3.67 9.91, 3.37 10.21, 2.75 10.21 M3.67 9.29 C3.67 9.91, 3.37 10.21, 2.75 10.21 M2.75 10.21 C2.19 10.21, 1.63 10.21, 0.92 10.21 M2.75 10.21 C2.31 10.21, 1.86 10.21, 0.92 10.21 M0.92 10.21 C0.31 10.21, 0 9.91, 0 9.29 M0.92 10.21 C0.31 10.21, 0 9.91, 0 9.29 M0 9.29 C0 6.67, 0 4.04, 0 0.92 M0 9.29 C0 6.25, 0 3.21, 0 0.92 M0 0.92 C0 0.31, 0.31 0, 0.92 0 M0 0.92 C0 0.31, 0.31 0, 0.92 0" stroke="black" stroke-width="1" fill="none"></path></g><g stroke-linecap="round" transform="translate(10.04278227523264 27.51402996044817) rotate(5.555647157401859 5.350841456154285 8.813372483851936)"><path d="M8.79 2.06 C9.67 3.28, 10.42 5.42, 10.62 7.28 C10.82 9.14, 10.56 11.58, 9.98 13.22 C9.41 14.86, 8.26 16.45, 7.18 17.1 C6.1 17.74, 4.6 17.74, 3.52 17.1 C2.44 16.45, 1.29 14.86, 0.72 13.22 C0.14 11.58, -0.12 9.14, 0.08 7.28 C0.28 5.42, 1.03 3.28, 1.91 2.06 C2.79 0.85, 4.2 0, 5.35 0 C6.5 0, 7.91 0.85, 8.79 2.06" stroke="none" stroke-width="0" fill="#e98d5e"></path><path d="M8.79 2.06 C9.67 3.28, 10.42 5.42, 10.62 7.28 C10.82 9.14, 10.56 11.58, 9.98 13.22 C9.41 14.86, 8.26 16.45, 7.18 17.1 C6.1 17.74, 4.6 17.74, 3.52 17.1 C2.44 16.45, 1.29 14.86, 0.72 13.22 C0.14 11.58, -0.12 9.14, 0.08 7.28 C0.28 5.42, 1.03 3.28, 1.91 2.06 C2.79 0.85, 4.2 0, 5.35 0 C6.5 0, 7.91 0.85, 8.79 2.06" stroke="black" stroke-width="1" fill="none"></path></g><g stroke-linecap="round"><g transform="translate(19.63557709639008 30.573416005920535) rotate(0 29.830006340765067 -6.343572430052518)"><path d="M0 -2.95 C1.42 -3.93, 5.56 -7.36, 8.5 -8.85 C11.43 -10.35, 14.83 -12.43, 17.63 -11.91 C20.42 -11.39, 22.79 -6.91, 25.26 -5.73 C27.72 -4.55, 29.62 -4.12, 32.42 -4.85 C35.22 -5.57, 39.07 -9.58, 42.07 -10.07 C45.08 -10.56, 47.53 -9.34, 50.46 -7.78 C53.39 -6.22, 58.13 -1.88, 59.66 -0.69 M0 -2.95 C1.42 -3.93, 5.56 -7.36, 8.5 -8.85 C11.43 -10.35, 14.83 -12.43, 17.63 -11.91 C20.42 -11.39, 22.79 -6.91, 25.26 -5.73 C27.72 -4.55, 29.62 -4.12, 32.42 -4.85 C35.22 -5.57, 39.07 -9.58, 42.07 -10.07 C45.08 -10.56, 47.53 -9.34, 50.46 -7.78 C53.39 -6.22, 58.13 -1.88, 59.66 -0.69" stroke="black" stroke-width="1" fill="none"></path></g></g><g stroke-linecap="round"><g transform="translate(15.666025714092939 33.89881677707763) rotate(0 26.62104843502493 -9.348572883000088)" fill-rule="evenodd"><path d="M0 -3.97 C0 -3.97, 0 -3.97, 0 -3.97 M0 -3.97 C0 -3.97, 0 -3.97, 0 -3.97 M9.46 -9.28 C9.89 -9.46, 10.4 -9.87, 11.92 -11.04 M9.41 -8.73 C10 -9.79, 10.57 -10.38, 11.33 -11.35 M14.01 -7.2 C13.94 -8.42, 16.07 -10.08, 16.41 -10.63 M14.23 -7.49 C15.61 -8.7, 15.95 -10.15, 17.17 -11.67 M19.08 -4.76 C20.34 -7.81, 21.15 -9.52, 22.68 -12.98 M17.78 -5.25 C18.87 -8.27, 20.91 -9.96, 23.08 -11.52 M20.39 -3.46 C21.75 -4.16, 22.41 -9.17, 26.78 -12.23 M20.18 -4.85 C23.93 -7.18, 26.9 -11.14, 29.78 -14.14 M23.25 -1.44 C31.74 -6.98, 34.8 -9.48, 36.12 -15.49 M24.4 -1.95 C28.85 -6.6, 32.3 -10.94, 35.51 -14.07 M33.57 -6.88 C36.21 -9.75, 38.77 -12.54, 39.17 -13.52 M35.05 -7.55 C36.87 -9.69, 38.72 -11.9, 39.17 -11.9 M39.36 -7.35 C41.73 -7.93, 41.65 -9.71, 43.19 -11.21 M39.76 -7.61 C40.64 -8.31, 41.65 -9.4, 42.89 -10.83 M42.43 -4.41 C44.81 -7.73, 45.29 -7.27, 47.01 -10.07 M43.71 -5.21 C43.62 -5.59, 44.4 -6.51, 46.88 -9.34 M46.96 -2.51 C48.6 -4.69, 48.77 -5.77, 50.12 -5.98 M46.74 -3.16 C47.5 -3.99, 48.49 -4.83, 49.25 -6.11 M50.8 -1.51 C51.07 -1.28, 50.97 -1.93, 52.01 -2.75 M50.59 -1.13 C50.92 -1.63, 51.39 -2.03, 51.87 -2.59 M-0.3 -4.23 C-0.3 -4.23, -0.3 -4.23, -0.3 -4.23 M-0.3 -4.23 C-0.3 -4.23, -0.3 -4.23, -0.3 -4.23 M3.8 -6.07 C3.63 -6.23, 3.39 -6.33, 3.19 -6.55 M3.89 -5.92 C3.72 -6.04, 3.49 -6.21, 3.07 -6.59 M8.49 -7.84 C6.92 -8.14, 6.67 -8.19, 6.27 -9.4 M8.25 -7.72 C7.19 -8.29, 6.72 -9.17, 5.58 -9.73 M11.39 -9.52 C9.84 -10.52, 8.24 -12.53, 7.83 -12.86 M11.51 -9.73 C9.88 -11.05, 9.02 -11.68, 7.95 -12.73 M27.97 -6.56 C17.28 -10.46, 16.79 -10.54, 14 -17.5 M24.6 -4.4 C22.06 -7.06, 18.97 -9.43, 9.56 -13.78 M30.27 -7.9 C28.72 -4.06, 25.22 -8.97, 13.17 -14.8 M28.7 -6.52 C25.85 -9.57, 21 -14.02, 17.51 -17.2 M34.46 -9.75 C28.88 -11.85, 24.44 -13.94, 24.64 -19.23 M33.13 -5.84 C29.43 -8.53, 25.65 -13.48, 21.14 -17.8 M36.88 -10.31 C35.63 -10.45, 29.72 -13.41, 28.88 -18.52 M35.99 -8.35 C35.33 -12.23, 32.21 -13.91, 28.3 -18.18 M40.59 -12.7 C38.16 -13.4, 37.62 -14.48, 34.76 -16.52 M39.88 -10.7 C39.22 -11.84, 37.01 -13.21, 33.47 -18.09" stroke="#e98d5e" stroke-width="0.5" fill="none"></path><path d="M0.81 -4.26 C1.74 -6.08, 2.35 -12.79, 5.88 -14.28 C9.4 -15.77, 17.54 -13.22, 21.95 -13.18 C26.37 -13.14, 28.45 -14.23, 32.35 -14.04 C36.26 -13.85, 42 -14.47, 45.39 -12.06 C48.77 -9.65, 52.89 -0.74, 52.68 0.43 C52.47 1.59, 46.19 -3.57, 44.11 -5.07 C42.03 -6.56, 42.78 -9, 40.21 -8.53 C37.64 -8.07, 32.19 -2.65, 28.69 -2.28 C25.19 -1.9, 21.44 -4.79, 19.21 -6.26 C16.99 -7.74, 17.16 -11.16, 15.34 -11.14 C13.52 -11.12, 10.99 -7.61, 8.27 -6.16 C5.56 -4.71, 0.58 -2.8, -0.94 -2.44 M-2.19 -6.88 C-0.47 -8.38, 7.09 -9.46, 10.85 -11.22 C14.61 -12.99, 16.7 -16.16, 20.36 -17.45 C24.03 -18.75, 29.28 -19.89, 32.82 -18.98 C36.37 -18.07, 37.88 -14.87, 41.65 -12 C45.42 -9.12, 54.83 -2.47, 55.43 -1.73 C56.04 -0.98, 48.02 -6.29, 45.3 -7.53 C42.58 -8.76, 41.14 -9.62, 39.1 -9.13 C37.06 -8.64, 36.27 -6.1, 33.07 -4.6 C29.86 -3.1, 22.7 0.71, 19.85 -0.12 C17.01 -0.96, 18.47 -8.67, 16.01 -9.62 C13.55 -10.57, 7.91 -6.81, 5.09 -5.8 C2.28 -4.79, 0.44 -3.78, -0.9 -3.55" stroke="transparent" stroke-width="1" fill="none"></path></g></g><g stroke-linecap="round"><g transform="translate(26.994934323230154 31.185997994067293) rotate(0 24.22909044568587 -6.991251161229229)" fill-rule="evenodd"><path d="M-0.27 -2.89 C-0.27 -2.89, -0.27 -2.89, -0.27 -2.89 M-0.27 -2.89 C-0.27 -2.89, -0.27 -2.89, -0.27 -2.89 M6.82 -5.64 C8.1 -6.52, 9.07 -7.13, 10.12 -8.77 M7.56 -5.74 C7.63 -6.43, 8.33 -7.32, 9.7 -8.53 M14.52 -7.84 C14.91 -7.87, 15.13 -8.72, 15.98 -8.67 M14.41 -7.26 C14.88 -8.09, 15.26 -8.38, 15.56 -9 M18.32 -3.73 C18.46 -5.91, 19.78 -8.08, 21 -10.05 M17.89 -5.11 C18.2 -6.29, 19.67 -7.72, 22.28 -10.78 M21.01 -3.53 C25.03 -7.63, 24 -10.99, 30.53 -10.2 M19.39 -2.82 C22.96 -5.3, 24.67 -6.31, 28.3 -11.56 M27.69 -1.58 C28.26 -3.65, 30.99 -5.95, 31.76 -9.13 M27.33 -3.46 C29.4 -6.26, 31.68 -8.36, 32.77 -10.07 M35.02 -6.75 C35.57 -7.44, 36.17 -9.07, 36.87 -9.03 M34.64 -6.4 C35.64 -7.61, 36.61 -9.16, 37.79 -9.65 M38.71 -4.24 C39.74 -5.82, 39.56 -5.81, 40.49 -8.07 M38.45 -5.1 C39.61 -5.94, 40.38 -7.05, 40.87 -7.61 M42.47 -2.96 C42.24 -4.09, 43.89 -4.36, 43.87 -5.84 M42.07 -3.25 C42.81 -3.82, 43.27 -4.21, 44.24 -5.01 M46.04 -0.98 C46 -1.43, 46.24 -1.48, 46.59 -2 M45.88 -1.15 C46.1 -1.34, 46.32 -1.76, 46.55 -1.99 M0.08 -3.14 C0.08 -3.14, 0.08 -3.14, 0.08 -3.14 M0.08 -3.14 C0.08 -3.14, 0.08 -3.14, 0.08 -3.14 M3.97 -4.79 C3.49 -5.64, 3 -5.82, 2.84 -5.78 M4.06 -4.68 C4.1 -5.01, 3.46 -5.33, 2.76 -6 M8.58 -5.6 C8.11 -6.14, 7.86 -6.91, 6.25 -9.26 M9.16 -5.74 C8.53 -6.69, 7.62 -7.27, 6.09 -8.73 M12.84 -8.61 C12.04 -8.99, 11.67 -8.55, 9.13 -11.4 M13.09 -7.82 C12.41 -8.06, 10.95 -9.35, 8.46 -11.02 M23.22 -6.23 C20.05 -10.01, 14.3 -11.97, 12.95 -10.87 M22.66 -6.41 C20.05 -7.05, 19.37 -9.27, 13.32 -11.79 M26.16 -6.74 C23.55 -6.21, 23.37 -8.39, 18.07 -14.8 M27.52 -5.22 C25.33 -7.06, 23.47 -9.76, 20.42 -13.98 M30.17 -6.42 C31.58 -8.14, 28.7 -11.73, 25.83 -12.78 M30.86 -6.99 C29.25 -9.02, 26.91 -10.32, 24.63 -13.5 M34.42 -9.71 C33.06 -11.5, 31.87 -10.54, 29.59 -14.11 M36.14 -9.45 C34.07 -11.48, 31.09 -12.97, 30.21 -13.49" stroke="#e98d5e" stroke-width="0.5" fill="none"></path><path d="M-0.29 -5.83 C0.7 -7.14, 2.91 -9.12, 6.56 -10.27 C10.22 -11.41, 17.53 -12.18, 21.63 -12.71 C25.74 -13.24, 28.21 -13.97, 31.19 -13.44 C34.17 -12.91, 36.6 -11.65, 39.52 -9.52 C42.44 -7.4, 48.4 -1.83, 48.71 -0.7 C49.03 0.43, 43.8 -1.55, 41.39 -2.73 C38.98 -3.91, 36.48 -7.34, 34.24 -7.78 C32 -8.23, 30.92 -6.17, 27.97 -5.39 C25.01 -4.61, 19.1 -2.74, 16.51 -3.09 C13.92 -3.44, 13.55 -6.7, 12.41 -7.5 C11.27 -8.31, 11.47 -8.49, 9.66 -7.92 C7.84 -7.34, 3.14 -5.17, 1.53 -4.05 M-3.89 -1.09 C-3.43 -1.95, -0.41 -4.98, 3.75 -6.42 C7.91 -7.86, 16.23 -8.93, 21.08 -9.71 C25.94 -10.49, 29.08 -11.19, 32.87 -11.1 C36.66 -11.01, 40.58 -10.45, 43.83 -9.18 C47.08 -7.91, 52.38 -4.24, 52.35 -3.48 C52.31 -2.71, 47.01 -3.69, 43.62 -4.6 C40.24 -5.5, 35.14 -9.48, 32.03 -8.91 C28.92 -8.34, 27.48 -1.96, 24.96 -1.18 C22.44 -0.41, 18.99 -3.61, 16.89 -4.25 C14.79 -4.89, 13.89 -4.16, 12.36 -5.02 C10.82 -5.88, 9.25 -9.19, 7.68 -9.43 C6.1 -9.66, 4.47 -7.94, 2.91 -6.45" stroke="transparent" stroke-width="1" fill="none"></path></g></g><g stroke-linecap="round"><g transform="translate(16.09169625481718 30.619823163031924) rotate(0 28.174628843934897 -8.875273875242101)" fill-rule="evenodd"><path d="M-0.12 -4.08 C-0.12 -4.08, -0.12 -4.08, -0.12 -4.08 M-0.12 -4.08 C-0.12 -4.08, -0.12 -4.08, -0.12 -4.08 M9.39 -9.08 C10.25 -9.85, 11.31 -10.56, 11.27 -11.56 M9.31 -9.28 C9.92 -9.92, 10.38 -10.5, 11.45 -11.23 M13.47 -8.05 C15.88 -10.08, 16.26 -10.76, 18.46 -12.42 M14.92 -8.22 C14.65 -9.07, 15.73 -10.36, 17.63 -12.48 M19.88 -7.76 C20.28 -9.08, 20.72 -11, 23.43 -12.93 M18.49 -7.98 C20.24 -9.53, 21.74 -10.42, 22.7 -12.89 M20.65 -3.28 C21.58 -8.55, 23.12 -8.24, 31.87 -15.46 M21.26 -4.37 C24.35 -8.16, 28.67 -12.82, 30.7 -14.64 M27.82 -2.41 C29.95 -3.49, 31.66 -10.58, 38.97 -12.59 M24.63 -1.83 C27.66 -5.68, 31.84 -9.95, 37.38 -13.51 M29.21 -2.68 C34.7 -8.43, 36.18 -11.69, 43.52 -10.73 M30.69 -2.25 C34.66 -7.08, 37.21 -9.2, 40.85 -15.25 M41.51 -7.71 C41.06 -9.46, 42.61 -10.78, 43.78 -11.29 M40.43 -8.36 C41.63 -9.54, 42.47 -10.54, 44.36 -12.18 M44.5 -7.66 C44.61 -6.74, 46.42 -9.61, 47.21 -11.88 M43.92 -6.33 C44.61 -7.2, 45.67 -8.25, 48.87 -10.91 M48.76 -5.14 C48.54 -5.81, 49.97 -6.1, 50.3 -7.12 M48.06 -4.86 C49.08 -5.7, 49.19 -6.25, 50.37 -7.83 M51.95 -2.57 C51.85 -3.22, 52.5 -3.57, 53.13 -3.88 M51.71 -2.76 C52.13 -3.11, 52.51 -3.59, 52.83 -4.13 M54.76 -0.2 C54.78 -0.42, 55.15 -0.55, 55.58 -1.04 M54.82 -0.02 C54.96 -0.34, 55.09 -0.42, 55.47 -0.9 M-0.17 -4.37 C-0.17 -4.37, -0.17 -4.37, -0.17 -4.37 M-0.17 -4.37 C-0.17 -4.37, -0.17 -4.37, -0.17 -4.37 M3.63 -6.07 C3.42 -6.13, 3.55 -6.62, 2.5 -7.79 M3.89 -6.07 C3.7 -6.54, 3.22 -6.72, 2.62 -7.27 M7.78 -7.33 C6.24 -9.26, 5.36 -9.92, 5.7 -11.19 M7.72 -7.84 C7.04 -8.24, 5.84 -9.46, 5.37 -10.26 M10.8 -10.85 C10.88 -10.7, 9.94 -12.7, 6.94 -14.08 M11.43 -10.47 C10.18 -11.54, 8.52 -11.98, 7.28 -13.68 M25.03 -2.37 C20.44 -8.19, 12.63 -10.85, 12.14 -15.57 M24.01 -5.92 C20.37 -9.59, 17.85 -11.94, 10.86 -15.77 M27.5 -8.29 C21.45 -11.87, 22.2 -16.81, 15.13 -13.68 M28.15 -4.77 C23.38 -10.62, 19.79 -13.89, 16.64 -17.17 M35.23 -5.88 C28.34 -9.47, 27.12 -15.52, 19.62 -18.35 M33.65 -8.64 C30.56 -10.16, 29.88 -12.04, 20.86 -17.54 M35.6 -10.65 C34.19 -12.89, 31.95 -14.2, 24.46 -20.68 M36.74 -8.73 C32.28 -11.74, 29.26 -17, 25.64 -18.07 M40.68 -11.76 C40.45 -15.17, 33.85 -17.14, 29.94 -19.39 M41.92 -11.74 C38.61 -12.83, 34.8 -14.96, 33.14 -19.2 M61.39 -4 C53.27 -6.7, 44.16 -15.58, 38.54 -16.9 M57.78 -2 C49.75 -8.66, 43.42 -12.59, 36.77 -21.01" stroke="#e98d5e" stroke-width="0.5" fill="none"></path><path d="M-2.63 -5.28 C-1.21 -6.49, 5.15 -10.21, 9.32 -11.74 C13.49 -13.27, 18.33 -13.31, 22.39 -14.47 C26.44 -15.62, 29.53 -19.31, 33.63 -18.66 C37.74 -18.02, 43.32 -13.9, 47 -10.59 C50.68 -7.28, 55.35 0.5, 55.73 1.2 C56.11 1.89, 52.07 -4.92, 49.28 -6.41 C46.49 -7.9, 42.47 -7.67, 39.01 -7.75 C35.55 -7.83, 31.33 -7.3, 28.53 -6.9 C25.74 -6.5, 24.23 -5.2, 22.23 -5.34 C20.23 -5.48, 19 -7.38, 16.54 -7.77 C14.07 -8.15, 10.33 -8.26, 7.44 -7.67 C4.54 -7.08, 0.06 -4.94, -0.84 -4.23 M1.14 -8.33 C2.15 -10.25, 4.08 -13.73, 7.3 -15.49 C10.52 -17.25, 16.03 -18.67, 20.47 -18.9 C24.91 -19.14, 28.77 -18.5, 33.95 -16.91 C39.14 -15.33, 47.46 -12.1, 51.59 -9.37 C55.72 -6.65, 60.09 -0.54, 58.74 -0.54 C57.38 -0.54, 47.22 -8.2, 43.47 -9.38 C39.73 -10.56, 38.17 -8.69, 36.27 -7.62 C34.36 -6.55, 34.11 -3.02, 32.05 -2.96 C30 -2.89, 26.38 -5.59, 23.95 -7.22 C21.52 -8.84, 19.4 -12.62, 17.45 -12.72 C15.5 -12.83, 15.27 -8.93, 12.24 -7.84 C9.2 -6.75, 1.03 -6.92, -0.76 -6.18" stroke="transparent" stroke-width="1" fill="none"></path></g></g><g stroke-linecap="round"><g transform="translate(33.82681891160064 59.58310417275061) rotate(178.9119155327144 11.145959869738817 -0.9343877874755435)"><path d="M0 -1.05 C1.93 -1.58, 7.86 -4.81, 11.58 -4.23 C15.3 -3.65, 20.51 1.32, 22.29 2.43 M0 -1.05 C1.93 -1.58, 7.86 -4.81, 11.58 -4.23 C15.3 -3.65, 20.51 1.32, 22.29 2.43" stroke="#000" stroke-width="2" fill="none"></path></g></g></svg>