<svg version="1.1" xmlns="http://www.w3.org/2000/svg" viewBox="0 0 132.54516195196356 97.64255904889615" width="132.54516195196356" height="97.64255904889615">
  <!-- svg-source:excalidraw -->
  
  <defs>
    <style>
      @font-face {
        font-family: "Virgil";
        src: url("https://plus.excalidraw.com/Virgil.woff2");
      }
      @font-face {
        font-family: "Cascadia";
        src: url("https://plus.excalidraw.com/Cascadia.woff2");
      }
    </style>
  </defs>
  <g stroke-linecap="round" transform="translate(53.35610011733479 22.313042379008948) rotate(202.77540904823977 34.759872197055756 32.48964900288411)"><path d="M18.36 3.28 C24.41 0.08, 35.53 -0.58, 42.84 0.8 C50.14 2.19, 57.88 6.27, 62.21 11.61 C66.53 16.94, 68.82 25.8, 68.77 32.84 C68.72 39.87, 66.21 48.58, 61.91 53.79 C57.61 59, 49.94 62.92, 42.97 64.1 C36 65.28, 26.64 64.04, 20.08 60.89 C13.53 57.74, 6.97 51.24, 3.65 45.19 C0.32 39.13, -1.64 31.05, 0.13 24.54 C1.9 18.04, 10.2 10, 14.27 6.13 C18.34 2.26, 22.21 2.17, 24.56 1.33 C26.91 0.48, 28.29 0.51, 28.37 1.08 M27.01 0.79 C33.17 -0.72, 41.7 1.42, 48.16 4.35 C54.61 7.28, 62.46 12.65, 65.74 18.37 C69.02 24.09, 69.34 32.29, 67.85 38.67 C66.35 45.06, 62.28 52.44, 56.76 56.68 C51.24 60.92, 42.15 63.79, 34.73 64.13 C27.32 64.47, 17.88 62.74, 12.26 58.72 C6.65 54.69, 2.19 46.62, 1.03 39.96 C-0.12 33.3, 2.19 25.04, 5.36 18.76 C8.53 12.48, 16.39 5.32, 20.07 2.27 C23.75 -0.78, 26.18 0.7, 27.44 0.47 C28.71 0.24, 27.56 0.37, 27.66 0.9" stroke="none" stroke-width="0" fill="#fff"></path><path d="M50.82 3.24 C56.96 5.93, 63.13 14, 65.91 20.31 C68.69 26.62, 69.52 34.6, 67.5 41.12 C65.48 47.64, 59.71 55.4, 53.79 59.42 C47.87 63.45, 39.12 65.74, 32.01 65.26 C24.89 64.78, 16.49 61.2, 11.1 56.56 C5.71 51.93, 0.67 44.1, -0.32 37.45 C-1.3 30.81, 1.45 22.75, 5.19 16.69 C8.94 10.63, 15.28 3.63, 22.14 1.08 C28.99 -1.46, 40.35 0.32, 46.31 1.43 C52.27 2.53, 55.35 5.88, 57.91 7.72 C60.46 9.57, 62.19 12.18, 61.64 12.5 M24.61 0.17 C31.27 -2.22, 41.29 -0.59, 48.11 1.98 C54.92 4.55, 61.87 9.72, 65.5 15.58 C69.14 21.43, 71.33 30.36, 69.92 37.14 C68.5 43.91, 62.84 51.83, 57.01 56.23 C51.18 60.62, 41.97 62.97, 34.93 63.5 C27.89 64.03, 20.5 63.12, 14.77 59.43 C9.04 55.74, 2.25 48.06, 0.56 41.35 C-1.13 34.63, 1.66 25.5, 4.64 19.15 C7.61 12.81, 15.17 6.49, 18.41 3.3 C21.65 0.11, 23.06 0.24, 24.06 0.01 C25.06 -0.22, 23.86 1.39, 24.39 1.93" stroke="#000000" stroke-width="2" fill="none"></path></g><g stroke-linecap="round"><g transform="translate(81.54545241831147 78.14130979095899) rotate(168.24599606113415 9.059817775208103 0.09089232767996691)"><path d="M0 0 C1.57 -0.43, 6.39 -3.06, 9.41 -2.59 C12.43 -2.12, 16.67 1.92, 18.12 2.82 M0 0 C1.57 -0.43, 6.39 -3.06, 9.41 -2.59 C12.43 -2.12, 16.67 1.92, 18.12 2.82" stroke="#000" stroke-width="2" fill="none"></path></g></g><g stroke-linecap="round"><g transform="translate(108.1820324757382 25.112136534512956) rotate(0 -31.69831348602156 23.198932892561743)"><path d="M1.19 0.04 C-0.96 3.29, -6.78 15.39, -12.83 20.29 C-18.88 25.19, -28.31 27.74, -35.11 29.47 C-41.91 31.2, -48.71 27.69, -53.62 30.67 C-58.54 33.66, -62.9 44.48, -64.59 47.38 M0.35 -0.98 C-1.91 2.35, -7.98 16.34, -13.47 21.53 C-18.97 26.73, -26.02 28.57, -32.63 30.21 C-39.25 31.85, -48.14 28.54, -53.15 31.37 C-58.15 34.21, -60.57 44.66, -62.67 47.23" stroke="#e67700" stroke-width="4" fill="none"></path></g></g><g stroke-linecap="round"><g transform="translate(105.44731566427708 19.65522541472228) rotate(0 -28.78553814115412 15.383641792712297)"><path d="M0.04 0.58 C-3.11 3.37, -11.19 13.25, -18.07 17.9 C-24.95 22.55, -34.66 26.44, -41.22 28.47 C-47.79 30.5, -54.71 29.68, -57.46 30.09 M-1.39 -0.15 C-4.82 3.27, -13.06 14.6, -19.31 19.02 C-25.56 23.44, -32.52 24.37, -38.9 26.36 C-45.29 28.34, -54.75 30.06, -57.62 30.92" stroke="#e67700" stroke-width="4" fill="none"></path></g></g><g stroke-linecap="round"><g transform="translate(104.14866235001227 12.375107936446966) rotate(0 -24.87393733620047 12.244527022169905)"><path d="M0.58 -0.56 C-4.56 0.94, -21.28 4.9, -29.68 9.01 C-38.07 13.13, -46.28 21.65, -49.79 24.13 M-0.57 1.76 C-5.43 3.36, -19.09 6.09, -27.38 9.97 C-35.67 13.85, -46.43 22.64, -50.33 25.05" stroke="#e67700" stroke-width="4" fill="none"></path></g></g><g stroke-linecap="round"><g transform="translate(95.69365775337701 17.93735926103318) rotate(0 -26.53152246046284 13.918058142054178)"><path d="M-0.56 -0.8 C-4.11 1.52, -14.4 10.65, -21.27 14.47 C-28.14 18.3, -36.32 20.03, -41.8 22.18 C-47.27 24.32, -52.18 26.47, -54.12 27.35 M1.35 1.4 C-1.85 3.3, -12.36 8.94, -19.13 12.58 C-25.91 16.22, -33.43 20.54, -39.31 23.22 C-45.19 25.89, -52.38 27.82, -54.41 28.63" stroke="#e67700" stroke-width="4" fill="none"></path></g></g><g stroke-linecap="round"><g transform="translate(103.39506456579238 14.329542557304649) rotate(0 -25.908734382306648 11.544199747287848)"><path d="M-0.8 -1.1 C-4.83 1.04, -15.15 8.17, -23.64 12.25 C-32.14 16.33, -47.22 21.44, -51.76 23.4 M0.99 0.94 C-3.22 3.27, -15.4 9.51, -24.36 13.39 C-33.33 17.26, -48.45 22.26, -52.81 24.18" stroke="#e67700" stroke-width="4" fill="none"></path></g></g><g stroke-linecap="round"><g transform="translate(101.0788666949511 13.328971826470024) rotate(0 -21.94961577539698 10.481674513584494)"><path d="M-1.1 0.43 C-5.7 1.79, -20.98 3.87, -28.21 7.35 C-35.43 10.84, -41.83 19, -44.43 21.35 M0.53 -0.38 C-3.64 1.2, -18.79 5.35, -25.89 8.61 C-33 11.88, -39.1 16.82, -42.07 19.18" stroke="#e67700" stroke-width="4" fill="none"></path></g></g><g stroke-linecap="round"><g stroke-opacity="0.7" fill-opacity="0.7" transform="translate(38.16441592357933 43.45121803636857) rotate(0 -7.638354284335037 -9.395104242284333)"><path d="M0.43 -0.76 C-1.47 -0.95, -9.18 -0.76, -12.22 -2.21 C-15.25 -3.65, -17.42 -6.77, -17.78 -9.45 C-18.14 -12.12, -16.94 -16.6, -14.39 -18.27 C-11.84 -19.93, -5.37 -21.12, -2.46 -19.44 C0.45 -17.76, 2.07 -9.89, 3.09 -8.19 M-0.8 1.45 C-2.84 1.47, -10.51 0.42, -13.44 -1.21 C-16.37 -2.83, -18.29 -5.67, -18.37 -8.33 C-18.45 -10.99, -16.35 -15.3, -13.92 -17.16 C-11.48 -19.01, -6.25 -20.82, -3.75 -19.47 C-1.26 -18.11, 0.25 -11.07, 1.06 -9.03" stroke="#e67700" stroke-width="4" fill="none"></path></g></g><g stroke-linecap="round"><g stroke-opacity="0.7" fill-opacity="0.7" transform="translate(10.764096951857027 23.381548133691922) rotate(0 9.312416509630111 5.139113855087771)"><path d="M-0.76 -0.52 C0.73 0.71, 4.48 5.93, 7.84 7.82 C11.2 9.7, 17.4 10.32, 19.39 10.8 M1.04 1.82 C2.98 2.63, 7.12 4.73, 10.02 5.87 C12.91 7.02, 16.75 7.67, 18.42 8.69" stroke="#e67700" stroke-width="4" fill="none"></path></g></g><g stroke-linecap="round"><g stroke-opacity="0.7" fill-opacity="0.7" transform="translate(17.296807716465082 17.944012702488635) rotate(0 7.89375545342773 4.908212133513189)"><path d="M-0.52 -1.02 C1.28 -0.74, 8.43 -0.81, 11.24 0.94 C14.05 2.7, 15.48 8.22, 16.31 9.51 M1.4 1.05 C3.04 1.58, 8.08 0.65, 10.47 2.28 C12.87 3.91, 14.74 9.66, 15.77 10.84" stroke="#e67700" stroke-width="4" fill="none"></path></g></g><g stroke-linecap="round"><g stroke-opacity="0.7" fill-opacity="0.7" transform="translate(36.25020520908129 31.122729953029648) rotate(0 7.435584794332954 4.656002729672537)"><path d="M-1.02 0.34 C0.23 1.26, 3.92 3.39, 6.74 4.97 C9.56 6.55, 14.51 9.01, 15.89 9.84 M0.64 -0.53 C1.77 0.07, 3.18 1.71, 5.59 3.08 C8.01 4.44, 13.59 6.31, 15.14 7.67" stroke="#e67700" stroke-width="4" fill="none"></path></g></g><g stroke-linecap="round" transform="translate(78.68251650201182 61.531717928135095) rotate(162.26672969170755 0.603571829466091 0.7925690689960447)"><path d="M0.04 0.36 C0.21 0.47, 1.27 1.18, 1.38 1.1 C1.48 1.01, 0.64 -0.14, 0.67 -0.15 C0.7 -0.16, 1.45 0.77, 1.55 1.04 C1.65 1.32, 1.52 1.55, 1.29 1.52 C1.05 1.48, 0.42 1.01, 0.12 0.83 C-0.17 0.66, -0.36 0.61, -0.47 0.46 C-0.58 0.3, -0.72 0.01, -0.53 -0.09 C-0.34 -0.2, 0.57 -0.2, 0.67 -0.18 C0.76 -0.17, 0.06 -0.06, 0.03 0 C0 0.06, 0.53 0.07, 0.49 0.2 M-0.5 -1.4 C-0.16 -1.14, 1.61 0.63, 1.8 1.09 C1.99 1.56, 0.52 1.38, 0.65 1.41 C0.78 1.44, 2.69 1.29, 2.58 1.28 C2.46 1.27, 0.43 1.52, -0.05 1.35 C-0.54 1.19, -0.24 0.29, -0.33 0.3 C-0.43 0.31, -0.86 1.52, -0.6 1.44 C-0.34 1.37, 1.17 -0.05, 1.23 -0.17 C1.3 -0.29, 0.17 0.61, -0.21 0.72 C-0.59 0.82, -1.03 0.75, -1.05 0.47 C-1.07 0.18, -0.52 -1.13, -0.34 -0.98" stroke="#000000" stroke-width="1" fill="none"></path></g><g stroke-linecap="round" transform="translate(107.67347370886182 62.56675216539725) rotate(0 0.6096685146121672 1.0364364748409116)"><path d="M0.96 0.31 C1.17 0.32, 1.93 -0.46, 1.82 -0.29 C1.7 -0.11, 0.42 0.95, 0.27 1.35 C0.11 1.76, 0.79 2.06, 0.87 2.14 C0.96 2.22, 0.95 1.94, 0.76 1.84 C0.57 1.73, -0.03 1.65, -0.24 1.51 C-0.46 1.36, -0.46 1.03, -0.52 0.98 C-0.58 0.93, -0.68 1.46, -0.6 1.21 C-0.53 0.96, -0.28 -0.26, -0.07 -0.51 C0.15 -0.77, 0.51 -0.28, 0.67 -0.34 C0.84 -0.4, 0.8 -0.83, 0.91 -0.9 M-0.93 1.04 C-0.48 1.07, 1.47 -0.47, 2.01 -0.29 C2.54 -0.11, 2.32 2, 2.25 2.11 C2.18 2.21, 1.81 0.55, 1.58 0.36 C1.35 0.17, 1.28 0.84, 0.88 0.98 C0.48 1.12, -0.68 0.88, -0.81 1.2 C-0.93 1.51, 0.19 2.96, 0.13 2.88 C0.07 2.8, -1.2 1.37, -1.15 0.72 C-1.1 0.06, 0.09 -0.84, 0.43 -1.07 C0.78 -1.31, 1.09 -0.82, 0.93 -0.69 C0.77 -0.56, -0.66 -0.45, -0.53 -0.29" stroke="#000000" stroke-width="1" fill="none"></path></g><g stroke-linecap="round"><g transform="translate(108.55154381288503 19.22013580790781) rotate(0 -28.618109798990645 1.3828308021882094)"><path d="M0.02 0.45 C-5.65 -1.76, -8.72 -3.38, -14.9 -8.66 M-0.04 -0.14 C-5.39 -2.81, -10.26 -5.36, -14.54 -6.88 M-14.47 -7.03 C-18.36 -6.76, -21.38 -8.17, -26.47 -9.14 M-14.24 -6.75 C-15.89 -7.19, -19.22 -7.61, -26.13 -8.97 M-27.28 -8.83 C-30.04 -8.64, -34.52 -6.16, -46.28 -2.56 M-26.17 -9.22 C-32.61 -5.92, -39.35 -2.75, -45 -1.24 M-46.64 -1.86 C-47.1 0.53, -48.75 3.68, -57.26 11.74 M-44.04 -2.98 C-48.37 2.24, -53.39 7.65, -56.97 11.99" stroke="#e67700" stroke-width="4" fill="none"></path></g></g></svg>