<svg version="1.1" xmlns="http://www.w3.org/2000/svg" viewBox="0 0 108.733161504505 86.6867846352875" width="108.733161504505" height="86.6867846352875">
  <!-- svg-source:excalidraw -->
  
  <defs>
    <style>
      @font-face {
        font-family: "Virgil";
        src: url("https://plus.excalidraw.com/Virgil.woff2");
      }
      @font-face {
        font-family: "Cascadia";
        src: url("https://plus.excalidraw.com/Cascadia.woff2");
      }
    </style>
  </defs>
  <g stroke-linecap="round" transform="translate(15.866864766095205 21.31689057837002) rotate(0 30.079107672897862 27.684947028458964)"><path d="M19.38 2.41 C24.77 -0.19, 33.37 -0.88, 39.61 0.83 C45.85 2.54, 53.39 7.31, 56.83 12.68 C60.27 18.04, 61.45 27.06, 60.24 33 C59.02 38.95, 54.56 44.52, 49.54 48.35 C44.53 52.17, 36.69 55.75, 30.17 55.95 C23.64 56.16, 15.17 53.56, 10.39 49.58 C5.6 45.59, 2.4 37.97, 1.45 32.07 C0.5 26.18, 0.94 19.38, 4.7 14.22 C8.46 9.05, 20.1 3.26, 24.01 1.08 C27.92 -1.09, 27.99 0.79, 28.18 1.16 M29.21 -0.85 C35.11 -1.66, 42.65 0.81, 47.74 4.77 C52.82 8.74, 58.07 17.02, 59.72 22.93 C61.38 28.84, 60.47 35.39, 57.67 40.22 C54.87 45.06, 48.8 49.53, 42.92 51.92 C37.04 54.31, 28.88 56.25, 22.37 54.57 C15.86 52.89, 7.43 47.06, 3.86 41.84 C0.29 36.62, -0.09 28.78, 0.94 23.27 C1.97 17.75, 5.58 12.79, 10.02 8.76 C14.45 4.73, 24.51 0.51, 27.55 -0.92 C30.58 -2.36, 28.17 -0.22, 28.2 0.16" stroke="none" stroke-width="0" fill="#fff"></path><path d="M34.39 0.33 C40.46 0.79, 47.65 5.16, 52.05 9.83 C56.44 14.51, 60.58 22.49, 60.78 28.41 C60.98 34.33, 57.39 41.06, 53.24 45.35 C49.09 49.64, 42.11 53.11, 35.88 54.13 C29.65 55.14, 21.43 54.21, 15.85 51.43 C10.27 48.64, 4.9 42.95, 2.39 37.43 C-0.12 31.9, -1.27 24, 0.79 18.27 C2.85 12.54, 8.17 5.73, 14.75 3.05 C21.34 0.37, 35.29 1.96, 40.29 2.18 C45.28 2.4, 44.79 4.14, 44.71 4.36 M33.08 -0.35 C39.14 -0.38, 45.33 4.32, 49.72 8.56 C54.1 12.79, 58.39 19.45, 59.39 25.05 C60.38 30.66, 59.31 37.37, 55.68 42.16 C52.05 46.96, 43.93 51.94, 37.61 53.81 C31.29 55.69, 23.62 55.49, 17.75 53.4 C11.88 51.3, 4.98 46.5, 2.38 41.23 C-0.22 35.97, 0.45 27.69, 2.18 21.81 C3.9 15.93, 7.71 9.39, 12.73 5.95 C17.74 2.51, 29.05 2.13, 32.26 1.18 C35.47 0.23, 31.88 -0.06, 32.01 0.24" stroke="#000000" stroke-width="2" fill="none"></path></g><g stroke-linecap="round"><g transform="translate(10.97682286266263 23.322178295745744) rotate(0 43.38975788958987 9.11516196748039)"><path d="M0.32 0.4 C14.56 3.44, 71.3 15.81, 85.52 18.67 M-0.98 -0.44 C13.64 2.26, 72.91 13.9, 87.76 17.11" stroke="#000000" stroke-width="2" fill="none"></path></g></g><g stroke-linecap="round" transform="translate(25.37447186913505 14.665451879966895) rotate(10.74366233694554 25.86620102625602 8.922675867321459)"><path d="M0.92 -1.18 L51.12 -1.08 L52.17 19.79 L1.06 17.79" stroke="none" stroke-width="0" fill="#0dce93"></path><path d="M-1.52 1.8 C15.96 -0.27, 32.78 0.06, 52.98 1.89 M-0.78 0.6 C14.97 0.32, 30.69 -1.12, 51.58 -0.07 M50.49 -0.26 C52.15 2.48, 51.91 7.09, 53.11 19.08 M51.38 0.23 C51.94 4.34, 51.06 9.48, 51.6 18.07 M52.67 18.43 C39.5 18.59, 27.19 18.31, -0.5 19.39 M51.01 18.67 C36.68 17.94, 20.4 17.59, -0.72 18.75 M-0.31 17.3 C-0.64 15.05, -1.28 10.96, 1.64 -1.4 M0.43 17.57 C0.5 11.55, 0.03 3.96, 0.43 0.11" stroke="#000000" stroke-width="2" fill="none"></path></g><g stroke-linecap="round" transform="translate(33.08900360354073 50.50939212163894) rotate(0 0.514128394270756 0.6751180934870717)"><path d="M0.46 0.66 C0.72 0.75, 1.55 0, 1.64 0 C1.73 0.01, 1.24 0.45, 1 0.69 C0.77 0.92, 0.32 1.23, 0.24 1.4 C0.15 1.57, 0.44 1.86, 0.49 1.69 C0.55 1.53, 0.65 0.5, 0.57 0.41 C0.5 0.31, 0.25 1.1, 0.02 1.11 C-0.2 1.13, -0.85 0.74, -0.77 0.49 C-0.69 0.25, 0.33 -0.33, 0.51 -0.37 C0.68 -0.4, 0.42 0.19, 0.28 0.28 C0.14 0.36, -0.28 0.05, -0.33 0.14 M1.56 -0.55 C1.8 -0.22, 1.59 0.85, 1.35 0.92 C1.11 1, 0.28 -0.11, 0.12 -0.1 C-0.04 -0.1, 0.27 0.85, 0.4 0.97 C0.52 1.09, 0.7 0.37, 0.89 0.62 C1.07 0.88, 1.51 2.41, 1.48 2.51 C1.45 2.61, 0.85 1.56, 0.71 1.23 C0.57 0.91, 0.53 0.76, 0.66 0.56 C0.78 0.36, 1.52 -0.06, 1.46 0.05 C1.4 0.15, 0.42 1.23, 0.32 1.2 C0.21 1.16, 0.7 0.18, 0.82 -0.18" stroke="#000000" stroke-width="1" fill="none"></path></g><g stroke-linecap="round" transform="translate(57.783784820080655 49.03534966274992) rotate(0 0.5193216103748455 0.8828467376367826)"><path d="M1.13 0.95 C1.38 0.92, 0.76 0.41, 0.8 0.23 C0.84 0.06, 1.24 -0.2, 1.37 -0.08 C1.5 0.04, 1.6 0.65, 1.58 0.96 C1.55 1.27, 1.56 1.67, 1.2 1.77 C0.84 1.87, -0.39 1.77, -0.59 1.57 C-0.79 1.37, -0.05 0.63, 0 0.57 C0.05 0.51, -0.2 1.27, -0.29 1.19 C-0.37 1.11, -0.7 0.41, -0.52 0.08 C-0.34 -0.26, 0.61 -0.75, 0.82 -0.83 C1.02 -0.92, 0.64 -0.72, 0.72 -0.45 M-0.14 0.4 C0.25 0.07, 1.34 -0.72, 1.38 -0.76 C1.43 -0.8, 0.22 -0.23, 0.12 0.17 C0.02 0.56, 0.79 1.12, 0.78 1.59 C0.77 2.05, -0.12 2.82, 0.04 2.96 C0.19 3.11, 1.64 2.61, 1.72 2.45 C1.81 2.29, 0.8 2.09, 0.55 2.01 C0.3 1.93, 0.29 2.32, 0.22 1.97 C0.15 1.62, -0.09 0.22, 0.14 -0.08 C0.37 -0.39, 1.59 0.06, 1.61 0.14 C1.62 0.22, 0.59 0.18, 0.22 0.38" stroke="#000000" stroke-width="1" fill="none"></path></g><g stroke-linecap="round"><g transform="translate(36.786535784064654 65.76925187216739) rotate(348.25808299303026 11.145959869738817 -0.9343877874755435)"><path d="M0 -1.05 C1.93 -1.58, 7.86 -4.81, 11.58 -4.23 C15.3 -3.65, 20.51 1.32, 22.29 2.43 M0 -1.05 C1.93 -1.58, 7.86 -4.81, 11.58 -4.23 C15.3 -3.65, 20.51 1.32, 22.29 2.43" stroke="#000" stroke-width="2" fill="none"></path></g></g></svg>