<svg version="1.1" xmlns="http://www.w3.org/2000/svg" viewBox="0 0 134.65526634691014 100.19513151386172" width="134.65526634691014" height="100.19513151386172">
  <!-- svg-source:excalidraw -->
  
  <defs>
    <style>
      @font-face {
        font-family: "Virgil";
        src: url("https://plus.excalidraw.com/Virgil.woff2");
      }
      @font-face {
        font-family: "Cascadia";
        src: url("https://plus.excalidraw.com/Cascadia.woff2");
      }
    </style>
  </defs>
  <g stroke-linecap="round" transform="translate(56.525407947747226 19.90191302253197) rotate(202.77540904823977 33.96807733290234 35.24048037724947)"><path d="M44.02 1.86 C50.54 3.55, 58.83 9.05, 62.69 14.92 C66.54 20.8, 67.95 29.91, 67.17 37.11 C66.39 44.32, 62.73 52.62, 58.03 58.18 C53.32 63.74, 45.88 69.32, 38.95 70.48 C32.03 71.64, 22.53 68.69, 16.48 65.13 C10.43 61.57, 5.03 55.85, 2.65 49.13 C0.28 42.42, 0.29 32.05, 2.25 24.83 C4.22 17.6, 8.84 9.81, 14.43 5.78 C20.01 1.75, 30.4 1.22, 35.77 0.63 C41.15 0.03, 44.86 1.71, 46.7 2.24 C48.53 2.76, 47.25 3.34, 46.77 3.78 M25.41 0.37 C32.11 -1.75, 42.1 -0.69, 48.63 2.68 C55.15 6.05, 61.29 13.77, 64.55 20.58 C67.82 27.4, 69.6 36.81, 68.22 43.56 C66.84 50.32, 62.02 56.61, 56.28 61.11 C50.54 65.6, 40.87 69.93, 33.79 70.52 C26.71 71.11, 19.15 69.25, 13.81 64.64 C8.47 60.04, 3.69 50.18, 1.75 42.92 C-0.18 35.66, -0.3 27.55, 2.18 21.1 C4.66 14.65, 12.69 7.78, 16.64 4.21 C20.59 0.65, 24.3 0.01, 25.87 -0.29 C27.44 -0.59, 25.91 1.65, 26.04 2.4" stroke="none" stroke-width="0" fill="#fff"></path><path d="M17.14 5.09 C22.71 1.6, 31.77 -0.36, 38.86 0.9 C45.95 2.16, 54.82 7.15, 59.69 12.67 C64.57 18.19, 67.59 27.03, 68.1 34.02 C68.62 41.01, 66.86 48.9, 62.78 54.61 C58.7 60.33, 50.6 66, 43.62 68.32 C36.64 70.64, 27.29 71.11, 20.89 68.52 C14.5 65.93, 8.75 59.23, 5.25 52.79 C1.75 46.35, -1.03 37.17, -0.11 29.86 C0.81 22.56, 7.15 13.51, 10.78 8.98 C14.4 4.45, 18.95 4, 21.65 2.68 C24.35 1.37, 26.74 0.5, 26.99 1.07 M40.99 -0.52 C47.88 0.32, 55.33 6.99, 60.05 12.83 C64.77 18.67, 68.77 27.5, 69.3 34.52 C69.82 41.54, 67.25 49.35, 63.19 54.97 C59.13 60.6, 51.71 66.13, 44.94 68.27 C38.18 70.4, 29.36 70.2, 22.6 67.79 C15.84 65.37, 8.02 59.97, 4.39 53.78 C0.76 47.59, -0.32 38.09, 0.83 30.64 C1.97 23.2, 6 14.29, 11.27 9.1 C16.54 3.91, 27.62 0.75, 32.44 -0.51 C37.25 -1.77, 38.83 1.3, 40.17 1.55 C41.51 1.8, 40.45 0.75, 40.46 0.99" stroke="#000000" stroke-width="2" fill="none"></path></g><g stroke-linecap="round"><g transform="translate(84.88459173207775 79.58451732343792) rotate(343.9418290214904 9.059817775208103 0.09089232767996691)"><path d="M0 0 C1.57 -0.43, 6.39 -3.06, 9.41 -2.59 C12.43 -2.12, 16.67 1.92, 18.12 2.82 M0 0 C1.57 -0.43, 6.39 -3.06, 9.41 -2.59 C12.43 -2.12, 16.67 1.92, 18.12 2.82" stroke="#000" stroke-width="2" fill="none"></path></g></g><g stroke-linecap="round"><g transform="translate(108.18783845617145 25.7220107336575) rotate(0 -32.44962399619135 24.142064473948267)"><path d="M-0.07 -1.19 C-2.37 1.98, -8.04 14.26, -13.87 19.72 C-19.71 25.18, -28.19 29.53, -35.07 31.56 C-41.96 33.59, -50.43 28.9, -55.19 31.89 C-59.94 34.87, -62.17 46.55, -63.6 49.48 M-1.56 0.8 C-4.06 4.02, -9.89 15.85, -15.06 20.67 C-20.23 25.49, -25.83 27.65, -32.58 29.74 C-39.32 31.83, -50.16 30.39, -55.54 33.23 C-60.91 36.07, -63.72 44.16, -64.83 46.77" stroke="#e67700" stroke-width="4" fill="none"></path></g></g><g stroke-linecap="round"><g transform="translate(105.45312164471034 20.265099613866823) rotate(0 -27.931512452265906 15.339613489592011)"><path d="M-1.19 -0.46 C-4.41 2.54, -12.31 13.38, -18.64 17.94 C-24.96 22.5, -32.87 24.71, -39.13 26.9 C-45.4 29.09, -53.5 30.41, -56.25 31.08 M0.38 -1.74 C-2.54 1.4, -9.89 14.18, -16.52 19.08 C-23.14 23.97, -32.84 25.4, -39.38 27.63 C-45.92 29.85, -52.9 31.79, -55.76 32.42" stroke="#e67700" stroke-width="4" fill="none"></path></g></g><g stroke-linecap="round"><g transform="translate(104.15446833044552 12.984982135591508) rotate(0 -24.928617196049345 12.110986891008679)"><path d="M-0.46 -1.12 C-5.39 0.92, -21.15 6.69, -29.64 11.1 C-38.12 15.51, -48.01 22.87, -51.36 25.35 M1.5 0.9 C-3.03 2.73, -18.9 5.78, -27.32 9.5 C-35.75 13.23, -45.4 20.83, -49.06 23.24" stroke="#e67700" stroke-width="4" fill="none"></path></g></g><g stroke-linecap="round"><g transform="translate(95.69946373381026 18.547233460177722) rotate(0 -27.191742379753123 13.882690839783663)"><path d="M-1.12 -0.76 C-4.12 1.47, -12.6 8.92, -19.18 12.91 C-25.76 16.89, -35.11 20.76, -40.58 23.16 C-46.06 25.55, -50.11 26.44, -52.02 27.28 M0.49 1.46 C-2.48 3.83, -12.67 10.58, -19.6 13.85 C-26.54 17.12, -35.23 18.61, -41.11 21.06 C-46.99 23.5, -52.89 27.78, -54.87 28.52" stroke="#e67700" stroke-width="4" fill="none"></path></g></g><g stroke-linecap="round"><g transform="translate(103.40087054622563 14.93941675644919) rotate(0 -25.130621527740004 12.987732861603718)"><path d="M-0.76 0.99 C-4.88 3.43, -16.87 9.38, -25.21 13.47 C-33.55 17.55, -46.49 23.5, -50.78 25.5 M1.04 0.47 C-2.69 2.64, -14.37 7.71, -23.09 11.58 C-31.82 15.46, -46.72 21.75, -51.31 23.73" stroke="#e67700" stroke-width="4" fill="none"></path></g></g><g stroke-linecap="round"><g transform="translate(101.08467267538435 13.938846025614566) rotate(0 -20.766894056726414 10.801756471787257)"><path d="M0.99 -1.13 C-3.32 0.38, -19.77 4.6, -26.99 8.34 C-34.21 12.07, -39.77 18.97, -42.33 21.28 M0.06 0.89 C-4.27 2.1, -20.6 2.81, -27.7 6.45 C-34.8 10.1, -40.22 20.44, -42.53 22.74" stroke="#e67700" stroke-width="4" fill="none"></path></g></g><g stroke-linecap="round"><g stroke-opacity="0.7" fill-opacity="0.7" transform="translate(38.17022190401258 44.061092235513115) rotate(0 -7.838361788327347 -10.069537265876534)"><path d="M-1.13 0.45 C-2.88 0.27, -8.45 1.31, -11.24 -0.11 C-14.02 -1.52, -17.45 -4.83, -17.85 -8.03 C-18.25 -11.22, -16.14 -17.37, -13.65 -19.28 C-11.16 -21.18, -5.53 -21.34, -2.91 -19.45 C-0.29 -17.56, 0.98 -9.73, 2.05 -7.92 M0.47 -0.36 C-1.32 -0.94, -8.78 -0.08, -11.94 -1.66 C-15.1 -3.24, -17.73 -6.99, -18.48 -9.83 C-19.23 -12.67, -18.78 -17.09, -16.44 -18.7 C-14.1 -20.31, -7.7 -21.17, -4.44 -19.49 C-1.18 -17.81, 2.23 -10.21, 3.13 -8.62" stroke="#e67700" stroke-width="4" fill="none"></path></g></g><g stroke-linecap="round"><g stroke-opacity="0.7" fill-opacity="0.7" transform="translate(10.769902932290279 23.991422332836464) rotate(0 10.017673100612683 5.600017190608696)"><path d="M0.45 0.46 C1.94 1.94, 6.55 5.9, 9.94 7.75 C13.33 9.59, 19.33 11.13, 20.81 11.54 M-0.77 -0.34 C0.57 0.85, 6 4.07, 9.56 5.77 C13.12 7.46, 19.09 8.9, 20.58 9.82" stroke="#e67700" stroke-width="4" fill="none"></path></g></g><g stroke-linecap="round"><g stroke-opacity="0.7" fill-opacity="0.7" transform="translate(17.302613696898334 18.553886901633177) rotate(0 8.14789139694858 4.689487556208178)"><path d="M0.46 1.08 C2.51 1.4, 8.4 1.12, 11.17 2.36 C13.94 3.6, 16.29 7.45, 17.05 8.5 M-0.76 0.6 C1.26 0.56, 7.42 -0.67, 10.36 0.78 C13.31 2.23, 15.97 7.87, 16.91 9.3" stroke="#e67700" stroke-width="4" fill="none"></path></g></g><g stroke-linecap="round"><g stroke-opacity="0.7" fill-opacity="0.7" transform="translate(36.25601118951454 31.73260415217419) rotate(0 8.721567009569753 5.006734246785982)"><path d="M1.08 0.27 C2.36 1.15, 5.86 4.19, 8.16 5.71 C10.46 7.23, 13.73 8.86, 14.88 9.39 M0.19 -0.63 C1.36 -0.1, 4.91 2.33, 7.75 4.21 C10.6 6.09, 16.07 9.74, 17.26 10.65" stroke="#e67700" stroke-width="4" fill="none"></path></g></g><g stroke-linecap="round" transform="translate(78.68832248244507 62.14159212727964) rotate(0 0.603571829466091 0.7925690689960447)"><path d="M0.21 -0.43 C0.54 -0.23, 1.54 1.04, 1.7 1.21 C1.85 1.37, 1.3 0.51, 1.13 0.56 C0.97 0.62, 0.9 1.52, 0.7 1.54 C0.5 1.56, -0.08 0.83, -0.07 0.67 C-0.05 0.51, 0.82 0.64, 0.79 0.58 C0.76 0.52, -0.26 0.3, -0.25 0.31 C-0.23 0.33, 0.85 0.65, 0.88 0.66 C0.91 0.67, -0.2 0.56, -0.07 0.37 C0.07 0.17, 1.44 -0.61, 1.7 -0.5 C1.97 -0.4, 1.49 0.73, 1.52 0.99 M0.11 1.42 C0.3 1.25, 0.67 0.42, 1.02 0.43 C1.38 0.44, 2.16 1.23, 2.26 1.48 C2.36 1.73, 1.99 1.71, 1.64 1.92 C1.29 2.14, 0.52 2.84, 0.16 2.78 C-0.19 2.71, -0.61 1.76, -0.47 1.54 C-0.33 1.32, 0.94 1.51, 1 1.45 C1.06 1.38, 0.13 1.26, -0.12 1.16 C-0.38 1.07, -0.5 0.92, -0.54 0.9 C-0.59 0.87, -0.74 1.36, -0.39 1.02 C-0.05 0.67, 1.38 -1.07, 1.54 -1.16" stroke="#000000" stroke-width="1" fill="none"></path></g><g stroke-linecap="round" transform="translate(107.67927968929507 63.17662636454179) rotate(0 0.6096685146121672 1.0364364748409116)"><path d="M-0.16 0.62 C0.09 0.63, 1.36 0.06, 1.49 0 C1.63 -0.07, 0.68 0.15, 0.64 0.24 C0.61 0.33, 1.38 0.2, 1.29 0.56 C1.2 0.93, 0.36 2.21, 0.13 2.42 C-0.1 2.63, -0.03 1.79, -0.09 1.82 C-0.16 1.86, -0.34 2.8, -0.26 2.62 C-0.18 2.44, 0.26 0.96, 0.37 0.74 C0.48 0.51, 0.5 1.32, 0.41 1.27 C0.32 1.21, -0.31 0.47, -0.15 0.43 C0.01 0.38, 1.13 0.88, 1.38 0.99 M1.82 -0.12 C1.7 0.14, 0.87 0.96, 0.83 1.21 C0.8 1.46, 1.48 1.41, 1.62 1.37 C1.75 1.34, 1.56 1.03, 1.64 1.02 C1.73 1, 2.28 0.96, 2.13 1.3 C1.98 1.64, 0.96 3.03, 0.74 3.06 C0.51 3.09, 0.76 1.97, 0.78 1.47 C0.8 0.96, 0.82 0.43, 0.86 0.04 C0.9 -0.35, 0.92 -1, 1.01 -0.89 C1.1 -0.79, 1.71 0.57, 1.41 0.68 C1.11 0.78, -0.67 -0.34, -0.77 -0.29" stroke="#000000" stroke-width="1" fill="none"></path></g><g stroke-linecap="round"><g transform="translate(108.55734979331828 19.83001000705235) rotate(0 -28.940561225793317 1.1215275144807038)"><path d="M-1.3 -0.14 C-5.67 -3, -8.29 -3.36, -14.13 -7.92 M-0.71 0.5 C-4.5 -2.27, -8.22 -3.47, -13.78 -7.6 M-13.56 -6.43 C-16.87 -6.74, -20.73 -8.59, -24.66 -9.08 M-13.63 -6.99 C-18.32 -7.5, -23.27 -7.71, -25.99 -8.38 M-24.59 -9.83 C-31.56 -7.89, -38.51 -2.97, -46.55 -2.56 M-26.41 -9.25 C-32.75 -7.5, -38.28 -4.08, -45.67 -2.94 M-46.02 -1.78 C-49.96 2.59, -51.19 8.2, -56.84 10.95 M-45.3 -3.04 C-49.01 1.91, -52.99 7, -57.17 12.07" stroke="#e67700" stroke-width="4" fill="none"></path></g></g></svg>