<svg version="1.1" xmlns="http://www.w3.org/2000/svg" viewBox="0 0 96.73013949911456 79.97057844167193" width="96.73013949911456" height="79.97057844167193">
  <!-- svg-source:excalidraw -->
  
  <defs>
    <style>
      @font-face {
        font-family: "Virgil";
        src: url("https://plus.excalidraw.com/Virgil.woff2");
      }
      @font-face {
        font-family: "Cascadia";
        src: url("https://plus.excalidraw.com/Cascadia.woff2");
      }
    </style>
  </defs>
  <g stroke-linecap="round" transform="translate(15.72979934750856 10) rotate(0 32.57838066835984 29.985289220835966)"><path d="M47.81 3.48 C53.72 5.74, 59.11 11.69, 61.77 17.4 C64.44 23.11, 65.68 31.61, 63.78 37.76 C61.88 43.91, 56.34 50.58, 50.39 54.3 C44.44 58.01, 35.04 60.74, 28.06 60.04 C21.09 59.34, 13.3 54.96, 8.53 50.08 C3.76 45.19, -0.19 36.97, -0.57 30.74 C-0.95 24.5, 1.86 17.65, 6.26 12.69 C10.67 7.74, 17.61 1.64, 25.85 1.02 C34.09 0.39, 49.86 6.46, 55.7 8.95 C61.55 11.44, 61.46 15.87, 60.92 15.95 M47.87 1.89 C54.36 4.31, 60.73 11.1, 63.3 17.09 C65.88 23.08, 65.57 31.29, 63.31 37.8 C61.05 44.32, 55.47 52.73, 49.74 56.17 C44.01 59.61, 35.71 59.45, 28.94 58.44 C22.18 57.44, 13.9 54.52, 9.15 50.13 C4.41 45.74, 0.71 38.6, 0.47 32.09 C0.22 25.58, 3.76 16.32, 7.71 11.09 C11.66 5.86, 17.42 2.14, 24.17 0.72 C30.92 -0.7, 44.53 2.1, 48.2 2.57 C51.87 3.04, 46.71 2.92, 46.19 3.56" stroke="none" stroke-width="0" fill="#fff"></path><path d="M20.26 1.66 C26.41 -1.18, 36.28 -1.08, 42.79 0.83 C49.3 2.74, 55.66 7.55, 59.34 13.12 C63.01 18.7, 65.46 27.89, 64.84 34.28 C64.23 40.68, 60.64 47.05, 55.66 51.49 C50.68 55.93, 42.26 60.52, 34.98 60.93 C27.7 61.33, 17.53 58.09, 11.98 53.91 C6.42 49.72, 3.06 41.98, 1.64 35.81 C0.22 29.64, -0.01 22.76, 3.46 16.89 C6.93 11.03, 18.52 3.33, 22.46 0.6 C26.4 -2.13, 26.91 -0.22, 27.1 0.52 M16.33 2.71 C21.72 -0.36, 31.22 0.03, 38.26 1.36 C45.3 2.7, 54.27 5.55, 58.56 10.73 C62.85 15.9, 64.41 25.71, 64.01 32.39 C63.61 39.08, 60.49 46.36, 56.15 50.83 C51.81 55.29, 45.03 58.24, 37.97 59.17 C30.91 60.1, 20.09 59.94, 13.77 56.4 C7.44 52.86, 2.08 44.39, 0.03 37.92 C-2.03 31.45, -1.42 23.29, 1.41 17.58 C4.25 11.86, 14.34 5.65, 17.04 3.61 C19.74 1.57, 17.35 4.97, 17.63 5.33" stroke="#000000" stroke-width="2" fill="none"></path></g><g stroke-linecap="round" transform="translate(32.42464462297994 35.172123479208494) rotate(0 0.556847321506666 0.7312136545040175)"><path d="M-0.3 0.67 C-0.31 0.46, 0.15 -0.47, 0.28 -0.53 C0.42 -0.58, 0.25 -0.04, 0.49 0.34 C0.73 0.73, 1.71 1.51, 1.7 1.8 C1.69 2.09, 0.47 2.28, 0.44 2.06 C0.4 1.85, 1.56 0.5, 1.51 0.5 C1.47 0.5, 0.57 2.04, 0.17 2.07 C-0.23 2.11, -0.96 1.12, -0.88 0.7 C-0.8 0.28, 0.54 -0.37, 0.65 -0.43 C0.76 -0.49, -0.1 0.36, -0.23 0.35 C-0.35 0.33, -0.37 -0.34, -0.1 -0.54 M-0.01 -1.45 C0.17 -1.22, 1.59 0.14, 1.59 0.31 C1.6 0.48, -0.03 -0.5, 0.04 -0.42 C0.11 -0.34, 1.82 0.27, 2.01 0.79 C2.21 1.3, 1.58 2.78, 1.2 2.68 C0.82 2.57, -0.26 0.68, -0.25 0.16 C-0.25 -0.36, 1.34 -0.31, 1.22 -0.44 C1.1 -0.56, -0.67 -0.58, -0.97 -0.59 C-1.28 -0.59, -0.91 -0.51, -0.6 -0.46 C-0.29 -0.41, 0.44 -0.3, 0.89 -0.28 C1.33 -0.27, 2.15 -0.59, 2.07 -0.4" stroke="#000000" stroke-width="1" fill="none"></path></g><g stroke-linecap="round" transform="translate(61.783660312160464 37.69762294745124) rotate(0 0.5624720419259575 0.9562024712743096)"><path d="M1.25 -0.49 C1.21 -0.47, 0.4 -0.61, 0.37 -0.29 C0.34 0.04, 0.8 1.25, 1.06 1.48 C1.32 1.7, 1.85 0.82, 1.92 1.05 C1.98 1.29, 1.87 2.75, 1.45 2.87 C1.02 3, -0.54 2.22, -0.64 1.82 C-0.73 1.42, 0.78 0.57, 0.87 0.48 C0.96 0.39, 0.14 1.43, -0.09 1.27 C-0.32 1.11, -0.69 -0.18, -0.52 -0.49 C-0.34 -0.79, 0.87 -0.8, 0.97 -0.56 C1.08 -0.31, 0.33 0.83, 0.12 0.98 M-0.86 0.63 C-0.51 0.56, 0.89 -1.01, 1.03 -0.81 C1.18 -0.6, 0.07 1.4, 0.01 1.87 C-0.06 2.34, 0.32 2.1, 0.64 2.01 C0.97 1.92, 2.21 1.15, 1.95 1.32 C1.7 1.48, -0.34 3.16, -0.89 3 C-1.45 2.84, -1.36 0.9, -1.4 0.38 C-1.43 -0.15, -1.26 -0.14, -1.09 -0.13 C-0.91 -0.12, -0.58 0.18, -0.35 0.44 C-0.11 0.71, 0.22 1.56, 0.31 1.45 C0.4 1.35, 0 -0.19, 0.19 -0.19" stroke="#000000" stroke-width="1" fill="none"></path></g><g stroke-linecap="round" transform="translate(82.51039578521795 45.71736741273526) rotate(0 1.726513923735638 4.8001045742350925)"><path d="M0.86 0 L2.59 0 L3.45 0.86 L3.45 8.74 L2.59 9.6 L0.22 9.38 L0 8.74 L0 0.86 L0.86 0" stroke="none" stroke-width="0" fill="#e98d5e"></path><path d="M0.86 0 M0.86 0 C1.52 0, 2.18 0, 2.59 0 M0.86 0 C1.28 0, 1.7 0, 2.59 0 M2.59 0 C3.17 0, 3.45 0.29, 3.45 0.86 M2.59 0 C3.17 0, 3.45 0.29, 3.45 0.86 M3.45 0.86 C3.45 3.5, 3.45 6.13, 3.45 8.74 M3.45 0.86 C3.45 2.65, 3.45 4.43, 3.45 8.74 M3.45 8.74 C3.45 9.31, 3.17 9.6, 2.59 9.6 M3.45 8.74 C3.45 9.31, 3.17 9.6, 2.59 9.6 M2.59 9.6 C2.2 9.6, 1.82 9.6, 0.86 9.6 M2.59 9.6 C2.02 9.6, 1.46 9.6, 0.86 9.6 M0.86 9.6 C0.29 9.6, 0 9.31, 0 8.74 M0.86 9.6 C0.29 9.6, 0 9.31, 0 8.74 M0 8.74 C0 5.66, 0 2.58, 0 0.86 M0 8.74 C0 6.68, 0 4.63, 0 0.86 M0 0.86 C0 0.29, 0.29 0, 0.86 0 M0 0.86 C0 0.29, 0.29 0, 0.86 0" stroke="black" stroke-width="1" fill="none"></path></g><g stroke-linecap="round" transform="translate(76.62997161183102 33.61832497700334) rotate(5.555647157401859 5.029975536433994 8.284874136247936)"><path d="M8.26 1.94 C9.09 3.08, 9.8 5.1, 9.98 6.85 C10.17 8.59, 9.92 10.89, 9.39 12.43 C8.85 13.96, 7.76 15.46, 6.75 16.07 C5.74 16.68, 4.32 16.68, 3.31 16.07 C2.3 15.46, 1.21 13.96, 0.67 12.43 C0.14 10.89, -0.11 8.59, 0.08 6.85 C0.26 5.1, 0.97 3.08, 1.8 1.94 C2.62 0.8, 3.95 0, 5.03 0 C6.11 0, 7.44 0.8, 8.26 1.94" stroke="none" stroke-width="0" fill="#e98d5e"></path><path d="M8.26 1.94 C9.09 3.08, 9.8 5.1, 9.98 6.85 C10.17 8.59, 9.92 10.89, 9.39 12.43 C8.85 13.96, 7.76 15.46, 6.75 16.07 C5.74 16.68, 4.32 16.68, 3.31 16.07 C2.3 15.46, 1.21 13.96, 0.67 12.43 C0.14 10.89, -0.11 8.59, 0.08 6.85 C0.26 5.1, 0.97 3.08, 1.8 1.94 C2.62 0.8, 3.95 0, 5.03 0 C6.11 0, 7.44 0.8, 8.26 1.94" stroke="black" stroke-width="1" fill="none"></path></g><g stroke-linecap="round" transform="translate(10.941126370072197 41.70305845739904) rotate(0 1.8366495444829525 5.106306852518401)"><path d="M0.92 0 L3.44 0.23 L3.67 0.92 L3.67 9.29 L2.75 10.21 L0.92 10.21 L0 9.29 L0 0.92 L0.92 0" stroke="none" stroke-width="0" fill="#e98d5e"></path><path d="M0.92 0 M0.92 0 C1.45 0, 1.98 0, 2.75 0 M0.92 0 C1.64 0, 2.37 0, 2.75 0 M2.75 0 C3.37 0, 3.67 0.31, 3.67 0.92 M2.75 0 C3.37 0, 3.67 0.31, 3.67 0.92 M3.67 0.92 C3.67 3.12, 3.67 5.32, 3.67 9.29 M3.67 0.92 C3.67 3.11, 3.67 5.3, 3.67 9.29 M3.67 9.29 C3.67 9.91, 3.37 10.21, 2.75 10.21 M3.67 9.29 C3.67 9.91, 3.37 10.21, 2.75 10.21 M2.75 10.21 C2.2 10.21, 1.65 10.21, 0.92 10.21 M2.75 10.21 C2.28 10.21, 1.81 10.21, 0.92 10.21 M0.92 10.21 C0.31 10.21, 0 9.91, 0 9.29 M0.92 10.21 C0.31 10.21, 0 9.91, 0 9.29 M0 9.29 C0 7.47, 0 5.65, 0 0.92 M0 9.29 C0 7.37, 0 5.45, 0 0.92 M0 0.92 C0 0.31, 0.31 0, 0.92 0 M0 0.92 C0 0.31, 0.31 0, 0.92 0" stroke="black" stroke-width="1" fill="none"></path></g><g stroke-linecap="round" transform="translate(10.04278227523264 27.51402996044817) rotate(5.555647157401859 5.350841456154285 8.813372483851936)"><path d="M8.79 2.06 C9.67 3.28, 10.42 5.42, 10.62 7.28 C10.82 9.14, 10.56 11.58, 9.98 13.22 C9.41 14.86, 8.26 16.45, 7.18 17.1 C6.1 17.74, 4.6 17.74, 3.52 17.1 C2.44 16.45, 1.29 14.86, 0.72 13.22 C0.14 11.58, -0.12 9.14, 0.08 7.28 C0.28 5.42, 1.03 3.28, 1.91 2.06 C2.79 0.85, 4.2 0, 5.35 0 C6.5 0, 7.91 0.85, 8.79 2.06" stroke="none" stroke-width="0" fill="#e98d5e"></path><path d="M8.79 2.06 C9.67 3.28, 10.42 5.42, 10.62 7.28 C10.82 9.14, 10.56 11.58, 9.98 13.22 C9.41 14.86, 8.26 16.45, 7.18 17.1 C6.1 17.74, 4.6 17.74, 3.52 17.1 C2.44 16.45, 1.29 14.86, 0.72 13.22 C0.14 11.58, -0.12 9.14, 0.08 7.28 C0.28 5.42, 1.03 3.28, 1.91 2.06 C2.79 0.85, 4.2 0, 5.35 0 C6.5 0, 7.91 0.85, 8.79 2.06" stroke="black" stroke-width="1" fill="none"></path></g><g stroke-linecap="round"><g transform="translate(19.63557709639008 30.573416005920535) rotate(0 29.830006340765067 -6.343572430052518)"><path d="M0 -2.95 C1.42 -3.93, 5.56 -7.36, 8.5 -8.85 C11.43 -10.35, 14.83 -12.43, 17.63 -11.91 C20.42 -11.39, 22.79 -6.91, 25.26 -5.73 C27.72 -4.55, 29.62 -4.12, 32.42 -4.85 C35.22 -5.57, 39.07 -9.58, 42.07 -10.07 C45.08 -10.56, 47.53 -9.34, 50.46 -7.78 C53.39 -6.22, 58.13 -1.88, 59.66 -0.69 M0 -2.95 C1.42 -3.93, 5.56 -7.36, 8.5 -8.85 C11.43 -10.35, 14.83 -12.43, 17.63 -11.91 C20.42 -11.39, 22.79 -6.91, 25.26 -5.73 C27.72 -4.55, 29.62 -4.12, 32.42 -4.85 C35.22 -5.57, 39.07 -9.58, 42.07 -10.07 C45.08 -10.56, 47.53 -9.34, 50.46 -7.78 C53.39 -6.22, 58.13 -1.88, 59.66 -0.69" stroke="black" stroke-width="1" fill="none"></path></g></g><g stroke-linecap="round"><g transform="translate(15.666025714092939 33.89881677707763) rotate(0 26.943069323651343 -8.421525140471203)" fill-rule="evenodd"><path d="M0 -3.97 C0 -3.97, 0 -3.97, 0 -3.97 M0 -3.97 C0 -3.97, 0 -3.97, 0 -3.97 M9.89 -8.75 C9.88 -10.27, 11.12 -11.23, 11.55 -11.64 M9.46 -9.08 C9.77 -9.49, 10.71 -9.75, 11.62 -10.93 M13.73 -8.7 C16 -10, 15.52 -10.02, 16.43 -10.91 M13.56 -7.34 C14.7 -9.17, 15.61 -9.91, 17.32 -11.55 M17.4 -4.48 C19.29 -8.69, 21.86 -11.06, 23.58 -11.63 M17.24 -6.64 C19.21 -7.43, 21.43 -9.35, 22.18 -11.83 M22.34 -4.82 C23.98 -5.72, 26.91 -9.76, 30.5 -13.07 M22.25 -3.07 C24.98 -6.88, 26.77 -10.28, 29.27 -13.38 M28.06 -3.04 C27.03 -5.86, 33.86 -12.08, 33.73 -14.21 M24.65 -2.05 C30.06 -6.67, 32.95 -10, 34.74 -12.54 M35.21 -8.45 C36.65 -8.61, 38.1 -12.41, 39.35 -12.69 M34.78 -7.74 C36.44 -8.21, 36.8 -10.85, 38.88 -12.9 M40.03 -7.36 C40.89 -9.39, 42.91 -10.19, 42.41 -10.95 M40.36 -7.48 C41.25 -8.14, 41.74 -9.69, 42.53 -10.25 M44.32 -3.9 C44.48 -6.44, 46.72 -7.62, 45.94 -9.08 M43.63 -4.34 C44.42 -6.6, 45.32 -7.73, 47.52 -9.31 M47.38 -3.11 C46.83 -4.5, 48.1 -4.92, 49.72 -5.94 M47.2 -3.04 C47.57 -4.21, 48.39 -4.9, 49.41 -6.26 M50.88 -1.19 C50.69 -1.6, 51.27 -2.15, 52.1 -2.46 M50.63 -1.03 C50.87 -1.75, 51.32 -2.12, 51.84 -2.7 M-0.3 -4.23 C-0.3 -4.23, -0.3 -4.23, -0.3 -4.23 M-0.3 -4.23 C-0.3 -4.23, -0.3 -4.23, -0.3 -4.23 M3.92 -6.11 C3.63 -5.99, 3.54 -6.13, 3.12 -6.39 M3.91 -5.91 C3.56 -6.18, 3.46 -6.36, 3.16 -6.62 M7.62 -7.84 C6.76 -7.9, 6.26 -9.03, 5.36 -10.11 M7.74 -7.53 C7.55 -8.18, 6.52 -8.53, 5.71 -9.63 M11.21 -9.26 C10.35 -10.87, 10.35 -10.95, 7.81 -13.24 M11.5 -10.18 C10.26 -10.71, 10.04 -11.67, 7.99 -12.77 M25.56 -3.56 C21.87 -6.22, 19.03 -12.79, 8.75 -15.62 M26.58 -3 C21.76 -8.3, 18.33 -9.82, 10.97 -14.17 M30.78 -6.64 C23.89 -7.5, 18.81 -11.22, 13.68 -16.04 M31.03 -4.86 C23.03 -8.74, 19.93 -15.13, 15.19 -17.67 M33.53 -7.02 C28.8 -12.95, 28.65 -13.73, 20.23 -15.13 M33.89 -5.78 C30.16 -10.55, 26.95 -11.01, 20.73 -16.25 M35.56 -7.82 C35.99 -11.86, 30.1 -15.22, 27.67 -18.79 M36.28 -8.78 C33.8 -10.96, 32.16 -12.97, 26.85 -16.58 M40.28 -12.56 C37.19 -12.35, 34.57 -15.71, 32.64 -16.11 M39.85 -11.22 C37.98 -13.51, 35.86 -16.54, 33.87 -16.42" stroke="#e98d5e" stroke-width="0.5" fill="none"></path><path d="M-1.39 -5.62 C0.09 -7.49, 2.82 -12.17, 6.92 -13.4 C11.03 -14.63, 19.18 -12.9, 23.24 -13 C27.3 -13.1, 27.06 -13.96, 31.29 -13.99 C35.53 -14.01, 44.91 -15.86, 48.65 -13.17 C52.4 -10.47, 54.82 1.09, 53.75 2.16 C52.68 3.24, 44.64 -4.49, 42.24 -6.69 C39.84 -8.89, 41.82 -11.63, 39.35 -11.03 C36.88 -10.43, 30.69 -4.06, 27.43 -3.09 C24.17 -2.11, 21.33 -3.66, 19.78 -5.19 C18.23 -6.73, 20 -11.81, 18.14 -12.32 C16.29 -12.83, 12.09 -9.45, 8.66 -8.26 C5.23 -7.06, -0.52 -6.06, -2.42 -5.15 M3.05 -0.34 C5.63 -1.91, 9.25 -7.06, 12.47 -9.87 C15.68 -12.67, 19.23 -15.66, 22.35 -17.17 C25.47 -18.67, 27.13 -19.47, 31.19 -18.89 C35.25 -18.32, 42.38 -17.01, 46.69 -13.7 C51.01 -10.4, 57.79 0.34, 57.08 0.95 C56.36 1.56, 45.63 -7.71, 42.42 -10.03 C39.2 -12.35, 39.66 -13.69, 37.78 -12.99 C35.89 -12.29, 33.96 -6.83, 31.11 -5.85 C28.27 -4.88, 23.97 -6.18, 20.73 -7.12 C17.49 -8.05, 14.2 -11.12, 11.69 -11.45 C9.18 -11.77, 8.17 -9.66, 5.69 -9.04 C3.21 -8.43, -2.7 -8.81, -3.19 -7.74" stroke="transparent" stroke-width="1" fill="none"></path></g></g><g stroke-linecap="round"><g transform="translate(26.994934323230154 31.185997994067293) rotate(0 24.401720101509454 -6.244446743489107)" fill-rule="evenodd"><path d="M-0.27 -2.89 C-0.27 -2.89, -0.27 -2.89, -0.27 -2.89 M-0.27 -2.89 C-0.27 -2.89, -0.27 -2.89, -0.27 -2.89 M7.54 -6.15 C7.59 -6.59, 8.39 -7.64, 9.33 -9.07 M7.09 -5.91 C8.12 -6.24, 9.35 -7.42, 10.27 -8.25 M13.92 -7.09 C14.47 -8.34, 15.53 -8.89, 15.86 -9.15 M14.47 -7.48 C14.46 -7.83, 14.89 -8.17, 15.61 -8.76 M18.56 -5.26 C17.98 -5.97, 19 -6.44, 22.18 -9.52 M16.67 -4.97 C19.23 -6.19, 20.78 -8.64, 22 -10.16 M19.43 -1.73 C24.19 -4.23, 25.31 -6.96, 29.55 -11.8 M21.47 -0.82 C23.86 -5.73, 26.7 -9.74, 29.18 -12.44 M26.55 -4.53 C28.57 -3.72, 28.16 -7.88, 32.68 -9.51 M27.25 -2.44 C29.36 -5.71, 32.38 -9.28, 33.87 -9.94 M34.12 -6.54 C36.23 -7.92, 36.26 -8.96, 37.34 -9.67 M34.53 -6.45 C36.18 -8.2, 36.58 -9.13, 37.22 -9.44 M38.7 -5.12 C38.85 -5.26, 40.21 -7.58, 40.76 -7.92 M38.58 -4.62 C39.51 -5.73, 39.55 -6.75, 41.46 -7.71 M42.73 -3.03 C43.01 -3.51, 43.97 -5.38, 44.37 -5.05 M42.51 -3.05 C42.86 -4.11, 43.78 -4.48, 44.26 -5.38 M45.89 -1.36 C45.88 -1.38, 46.12 -1.41, 46.6 -1.97 M45.91 -1.15 C46.05 -1.39, 46.3 -1.7, 46.52 -1.97 M0.08 -3.14 C0.08 -3.14, 0.08 -3.14, 0.08 -3.14 M0.08 -3.14 C0.08 -3.14, 0.08 -3.14, 0.08 -3.14 M4.26 -4.94 C3.81 -5.48, 3.15 -6.17, 2.95 -6.26 M4.3 -4.91 C3.88 -5.37, 3.34 -5.7, 2.77 -6.21 M8.43 -5.89 C8.74 -6.22, 7.96 -7.35, 6.88 -8.91 M9.19 -6.28 C8.08 -6.56, 7.22 -6.92, 5.97 -8.14 M12.84 -8.15 C12.64 -8.95, 10.18 -11.41, 7.71 -11.91 M13.46 -7.18 C11.53 -9.51, 10.23 -10.53, 8.66 -11.81 M23.94 -6.11 C19.25 -5.7, 18.93 -10.19, 11.92 -13.32 M21.43 -6.15 C19.43 -6.62, 16.25 -10.52, 13.22 -13.21 M28.05 -5.19 C26.18 -6.54, 21.89 -10.05, 19.26 -13.88 M28.41 -4.93 C24.25 -7.13, 22.43 -10.05, 20.17 -12.72 M30.8 -8.12 C30.5 -9.88, 28.87 -11.4, 25.21 -11.75 M31.69 -7.94 C29.44 -8.88, 26.07 -12.01, 24.4 -13.09 M35.62 -9.52 C32.85 -9.15, 32.53 -12.36, 31.38 -14.83 M36.16 -9.45 C33.48 -11.18, 32.55 -12.55, 30.89 -14.29" stroke="#e98d5e" stroke-width="0.5" fill="none"></path><path d="M-1.65 -4.79 C-0.71 -5.52, 3.53 -7.48, 7.44 -8.98 C11.35 -10.47, 17.85 -13.57, 21.82 -13.77 C25.79 -13.97, 28.48 -11.06, 31.25 -10.18 C34.01 -9.29, 35.21 -9.73, 38.41 -8.46 C41.62 -7.19, 50.22 -3.38, 50.45 -2.57 C50.68 -1.76, 42.89 -2.51, 39.77 -3.59 C36.65 -4.67, 33.84 -8.84, 31.74 -9.05 C29.64 -9.25, 29.52 -6.28, 27.16 -4.82 C24.8 -3.36, 20.23 0.09, 17.58 -0.29 C14.92 -0.67, 12.9 -5.6, 11.23 -7.12 C9.56 -8.63, 9.62 -9.6, 7.55 -9.4 C5.49 -9.2, -0.12 -6.99, -1.18 -5.93 M2.66 0.52 C3.04 -0.88, 1.99 -11.09, 5.11 -13.07 C8.23 -15.05, 16.73 -11.07, 21.37 -11.35 C26.01 -11.62, 29.5 -15.33, 32.95 -14.7 C36.41 -14.06, 39.88 -10.37, 42.12 -7.54 C44.36 -4.71, 46.55 2.01, 46.38 2.28 C46.22 2.55, 42.72 -3.73, 41.12 -5.92 C39.53 -8.11, 39.71 -11.8, 36.81 -10.86 C33.91 -9.93, 26.75 -2.13, 23.71 -0.31 C20.66 1.51, 20.73 0.76, 18.54 0.07 C16.34 -0.61, 12.88 -3.9, 10.53 -4.43 C8.18 -4.95, 6.4 -3.69, 4.43 -3.08 C2.47 -2.46, -0.57 -0.66, -1.28 -0.72" stroke="transparent" stroke-width="1" fill="none"></path></g></g><g stroke-linecap="round"><g transform="translate(16.09169625481718 30.619823163031924) rotate(0 26.17809496501468 -9.880393838586997)" fill-rule="evenodd"><path d="M-0.12 -4.08 C-0.12 -4.08, -0.12 -4.08, -0.12 -4.08 M-0.12 -4.08 C-0.12 -4.08, -0.12 -4.08, -0.12 -4.08 M9 -9.48 C10.07 -10.28, 10.67 -10.92, 11.05 -11.1 M9.19 -9.08 C10.22 -9.39, 10.61 -9.98, 11.66 -11.04 M15.35 -9.38 C14.87 -9.33, 16.17 -10.79, 17.26 -12.81 M14.37 -9.1 C15.39 -9.95, 16.4 -10.74, 18.22 -12.84 M18.34 -7.88 C19.99 -9.33, 21.87 -10.14, 23.95 -12.67 M18.63 -7.13 C20.02 -8.04, 20.18 -9.57, 23.32 -12.83 M22.2 -3.93 C25.09 -7.97, 27.79 -10.24, 30.5 -12.6 M22.98 -4.83 C23.74 -7.36, 25.31 -9.38, 29.94 -14.65 M22.81 -1.72 C30.49 -8.81, 29.74 -10.54, 38.33 -11.82 M26.37 -2.24 C28.49 -4.64, 30.08 -7.18, 37.6 -13.72 M30.11 0.13 C31.91 -7.05, 35.24 -8.17, 40.8 -11.75 M30.47 0.1 C30.71 -5.48, 34.43 -9.07, 41.74 -12.58 M40.41 -9.31 C42.48 -9.79, 41.82 -10.74, 43.97 -12.52 M41.04 -8.03 C41.65 -10.01, 42.38 -10.38, 44.23 -11.72 M44.35 -6.49 C46.17 -7.34, 45.19 -8.64, 48.79 -10.3 M44.33 -6.74 C44.67 -7.38, 46.41 -8.44, 48.13 -11.59 M47.25 -5.3 C48.56 -5.81, 49.84 -6.36, 50.42 -7.28 M48.07 -5 C49.03 -5.89, 49.7 -6.9, 50.45 -7.62 M51.55 -2.86 C52.1 -3.4, 52.56 -3.27, 53.29 -4.16 M51.58 -2.83 C51.88 -3.05, 52.38 -3.59, 52.9 -4.1 M54.69 -0.04 C54.84 -0.28, 54.91 -0.39, 55.34 -0.77 M54.7 -0.03 C54.86 -0.2, 55.06 -0.41, 55.36 -0.86 M-0.17 -4.37 C-0.17 -4.37, -0.17 -4.37, -0.17 -4.37 M-0.17 -4.37 C-0.17 -4.37, -0.17 -4.37, -0.17 -4.37 M3.78 -5.71 C3.72 -6.25, 3.07 -7.01, 2.33 -7.13 M4.1 -6.09 C3.36 -6.38, 3.01 -6.93, 2.36 -7.53 M7.83 -8.02 C7.53 -8.31, 5.43 -10.21, 4.81 -10.44 M7.81 -7.79 C7.48 -8.86, 5.94 -9.51, 4.85 -10.71 M11.44 -10.16 C10.4 -12.15, 8.48 -12.25, 7.33 -13.21 M11.55 -10.63 C10.5 -11.11, 9.24 -11.66, 7.81 -13.7 M22 -4.33 C17.2 -7.93, 12.98 -11.94, 13.97 -13.66 M22.33 -4.73 C19.92 -9.93, 14.04 -13.41, 11.59 -16.01 M27.97 -8.97 C27.05 -10.5, 17.41 -12.38, 13.39 -15.71 M28.14 -7.22 C24.58 -7.65, 22.01 -9.82, 14.72 -15.3 M34.58 -8.58 C26.71 -13.39, 26.18 -15.3, 18.83 -16.41 M31.71 -7.82 C28.06 -11.73, 24.3 -13.62, 22.88 -17.59 M35.52 -7.96 C32.57 -12.24, 29.14 -13.41, 28.59 -16.3 M36.8 -9.62 C34.9 -13.02, 31.59 -13.17, 25.68 -18.75 M40.24 -12.12 C38.67 -12.16, 34.59 -13.79, 29.99 -19.82 M40.17 -9.62 C39.58 -13.54, 36.03 -15.09, 33.21 -18.58 M56.04 -3.01 C52.47 -7.76, 51.08 -6.72, 37.67 -15.94 M58.22 -1.74 C54.28 -5.98, 47.58 -9.14, 35.82 -19.3" stroke="#e98d5e" stroke-width="0.5" fill="none"></path><path d="M-1.58 -4.4 C0.42 -5.35, 6.79 -9.89, 10.6 -11.55 C14.42 -13.22, 16.94 -13.04, 21.33 -14.41 C25.71 -15.78, 32.44 -20.69, 36.9 -19.77 C41.36 -18.84, 45.24 -12.08, 48.07 -8.86 C50.89 -5.63, 53.8 -0.42, 53.86 -0.43 C53.92 -0.43, 51.11 -7.56, 48.42 -8.91 C45.74 -10.27, 40.96 -9.08, 37.74 -8.56 C34.52 -8.05, 31.22 -6.17, 29.1 -5.83 C26.98 -5.49, 27.06 -5.85, 25.03 -6.52 C23 -7.2, 20.1 -9.22, 16.93 -9.87 C13.75 -10.51, 9.23 -11.52, 5.95 -10.38 C2.68 -9.24, -1.76 -3.74, -2.73 -3.04 M2.75 -6.97 C4.66 -8.5, 6.6 -13.23, 9.28 -15.2 C11.96 -17.18, 15.32 -18.25, 18.83 -18.82 C22.35 -19.39, 26.06 -19.2, 30.35 -18.62 C34.65 -18.04, 40.34 -17.93, 44.59 -15.34 C48.84 -12.74, 54.82 -4.83, 55.85 -3.04 C56.89 -1.25, 52.94 -3.63, 50.79 -4.6 C48.64 -5.57, 45.93 -9.42, 42.95 -8.87 C39.98 -8.32, 36.82 -2.72, 32.93 -1.31 C29.04 0.1, 22.11 0.6, 19.63 -0.4 C17.15 -1.4, 19.66 -5.39, 18.05 -7.33 C16.43 -9.26, 13.56 -12.52, 9.95 -12.02 C6.33 -11.53, -1.77 -5.06, -3.66 -4.35" stroke="transparent" stroke-width="1" fill="none"></path></g></g><g stroke-linecap="round"><g transform="translate(34.82681891160064 57.749770839417124) rotate(354.0138610913823 11.145959869738817 -0.9343877874755435)"><path d="M0 -1.05 C1.93 -1.58, 7.86 -4.81, 11.58 -4.23 C15.3 -3.65, 20.51 1.32, 22.29 2.43 M0 -1.05 C1.93 -1.58, 7.86 -4.81, 11.58 -4.23 C15.3 -3.65, 20.51 1.32, 22.29 2.43" stroke="#000" stroke-width="2" fill="none"></path></g></g></svg>