<svg version="1.1" xmlns="http://www.w3.org/2000/svg" viewBox="0 0 102.95624822668378 93.58104026397677" width="102.95624822668378" height="93.58104026397677">
  <!-- svg-source:excalidraw -->
  
  <defs>
    <style>
      @font-face {
        font-family: "Virgil";
        src: url("https://plus.excalidraw.com/Virgil.woff2");
      }
      @font-face {
        font-family: "Cascadia";
        src: url("https://plus.excalidraw.com/Cascadia.woff2");
      }
    </style>
  </defs>
  <g stroke-linecap="round" transform="translate(10 28.211146207058846) rotate(0 30.079107672897862 27.684947028458964)"><path d="M20.53 2.43 C26.34 0.09, 34.54 -0.21, 40.54 1.66 C46.53 3.53, 53.32 8.5, 56.52 13.65 C59.72 18.79, 60.84 26.65, 59.73 32.53 C58.61 38.41, 54.81 45.29, 49.85 48.95 C44.89 52.6, 36.37 54.54, 29.97 54.47 C23.58 54.4, 16.48 52.25, 11.48 48.55 C6.48 44.85, 1.19 37.97, -0.01 32.26 C-1.2 26.55, 0.54 19.51, 4.29 14.29 C8.03 9.07, 19.08 3.28, 22.46 0.96 C25.85 -1.37, 24.49 -0.17, 24.62 0.32 M32.19 -0.19 C38.32 -0.29, 47.45 3.71, 52.1 7.82 C56.75 11.93, 59.43 18.48, 60.08 24.48 C60.73 30.48, 59.81 39.06, 56.01 43.82 C52.22 48.59, 43.66 51.72, 37.33 53.06 C31 54.41, 23.49 54.29, 18.03 51.89 C12.57 49.49, 7.67 43.57, 4.56 38.65 C1.44 33.72, -2.08 27.7, -0.67 22.36 C0.74 17.02, 7.4 10.23, 12.99 6.61 C18.58 3, 29.85 1.47, 32.86 0.66 C35.87 -0.14, 31.34 1.68, 31.04 1.8" stroke="none" stroke-width="0" fill="#865a48"></path><path d="M33.91 0.64 C40.18 0.76, 48.11 4.21, 52.59 8.51 C57.07 12.81, 60.57 20.49, 60.79 26.45 C61.02 32.4, 58.01 39.44, 53.95 44.23 C49.89 49.03, 42.68 53.82, 36.42 55.24 C30.17 56.65, 21.93 55.35, 16.4 52.73 C10.87 50.11, 5.77 45, 3.23 39.5 C0.69 33.99, -0.53 25.41, 1.15 19.69 C2.83 13.97, 7.17 8.38, 13.33 5.16 C19.48 1.95, 33.45 0.8, 38.06 0.41 C42.68 0.03, 41.26 2.42, 41.03 2.86 M19.03 1.37 C24.53 -1.37, 31.99 -2.23, 38.06 -0.04 C44.14 2.15, 51.77 9.26, 55.5 14.52 C59.22 19.78, 61.15 25.84, 60.43 31.52 C59.7 37.19, 55.86 44.69, 51.13 48.55 C46.39 52.4, 38.53 54.29, 32 54.63 C25.48 54.97, 17.43 54.23, 11.99 50.6 C6.56 46.97, 0.71 38.82, -0.6 32.88 C-1.91 26.93, 0.8 19.91, 4.12 14.94 C7.43 9.96, 16.62 4.86, 19.28 3.02 C21.93 1.19, 19.92 3.56, 20.05 3.93" stroke="#000000" stroke-width="2" fill="none"></path></g><g stroke-linecap="round" transform="translate(21.227704153245213 14.59361862648393) rotate(10.74366233694554 25.86620102625602 13.02064783747096)"><path d="M0.9 0.52 L51.41 1.86 L52.12 26.22 L0.05 27.09" stroke="none" stroke-width="0" fill="#4c6ef5"></path><path d="M0.47 -0.53 C17.94 0.53, 32.9 1.16, 51.29 1.37 M-0.52 0.6 C17 0.35, 35.04 0.92, 51.6 0.01 M50.64 -1.55 C52.04 6.14, 50.82 12.63, 50.25 26.61 M50.8 -0.07 C52.62 8.55, 51.6 16.96, 51.92 26.63 M50.06 25.31 C39.48 26.77, 26.27 27.77, 1.33 27.91 M51.12 25.34 C35 26.54, 20.95 26.87, 0.25 26.06 M0.24 26.77 C0.25 16.7, -1.77 9.48, -0.8 -0.96 M0.48 25.98 C0.1 18.31, 0.32 12.26, 0.11 0.95" stroke="#000000" stroke-width="2" fill="none"></path></g><g stroke-linecap="round" transform="translate(27.888805504117045 57.403647750325945) rotate(0 0.514128394270756 0.6751180934870717)"><path d="M1.34 -0.15 C1.5 -0.11, 1.76 0.56, 1.67 0.73 C1.58 0.89, 1.02 0.66, 0.79 0.85 C0.55 1.03, 0.34 1.71, 0.26 1.84 C0.19 1.98, 0.22 1.64, 0.33 1.68 C0.44 1.71, 1.01 2.19, 0.93 2.03 C0.86 1.87, 0.05 0.9, -0.13 0.71 C-0.32 0.52, -0.29 1.11, -0.17 0.91 C-0.06 0.7, 0.51 -0.41, 0.55 -0.53 C0.58 -0.65, 0.06 0.16, 0.03 0.19 C0 0.22, 0.38 -0.23, 0.38 -0.36 M-0.74 -1.39 C-0.68 -1.02, 0.41 1.39, 0.8 1.72 C1.19 2.05, 1.41 0.68, 1.59 0.62 C1.77 0.56, 1.86 1.37, 1.85 1.37 C1.84 1.37, 1.7 0.45, 1.51 0.61 C1.32 0.78, 1.17 2.42, 0.72 2.38 C0.26 2.34, -1.2 0.65, -1.22 0.38 C-1.24 0.1, 0.3 0.6, 0.61 0.73 C0.93 0.85, 0.53 1, 0.7 1.11 C0.86 1.23, 1.59 1.49, 1.58 1.41 C1.58 1.33, 0.79 1.03, 0.67 0.65" stroke="#000000" stroke-width="1" fill="none"></path></g><g stroke-linecap="round" transform="translate(52.58358672064605 55.92960529143738) rotate(0 0.5193216103748455 0.8828467376367826)"><path d="M0.37 0.69 C0.45 0.57, 1.11 0.13, 1.21 0.07 C1.32 0.01, 0.95 0.12, 1 0.33 C1.06 0.53, 1.53 0.94, 1.53 1.31 C1.52 1.68, 1.02 2.51, 0.96 2.54 C0.9 2.58, 1.33 1.8, 1.18 1.53 C1.03 1.26, 0.13 1.06, 0.05 0.93 C-0.04 0.8, 0.73 1.02, 0.67 0.75 C0.61 0.49, -0.32 -0.44, -0.3 -0.64 C-0.29 -0.83, 0.68 -0.42, 0.77 -0.41 C0.86 -0.41, 0.39 -0.75, 0.25 -0.62 M-0.84 -0.1 C-0.38 0.22, 2.07 0.51, 2.37 0.81 C2.68 1.11, 1.19 1.48, 1 1.72 C0.81 1.96, 1.41 2.19, 1.23 2.27 C1.05 2.34, -0.09 2.48, -0.06 2.18 C-0.03 1.87, 1.49 0.49, 1.42 0.43 C1.34 0.38, -0.31 1.75, -0.5 1.86 C-0.69 1.97, -0.01 1.24, 0.28 1.12 C0.56 1.01, 0.94 1.34, 1.22 1.16 C1.5 0.99, 1.97 0.23, 1.96 0.08 C1.95 -0.06, 1.57 0.49, 1.19 0.31" stroke="#000000" stroke-width="1" fill="none"></path></g><g stroke-linecap="round"><g transform="translate(22.202414004308594 53.1627913421471) rotate(0 7.382389004632387 -2.3489837982158406)"><path d="M0 -1.05 C1.35 -1.58, 5.65 -4.33, 8.11 -4.23 C10.57 -4.13, 13.66 -1.09, 14.76 -0.47 M0 -1.05 C1.35 -1.58, 5.65 -4.33, 8.11 -4.23 C10.57 -4.13, 13.66 -1.09, 14.76 -0.47" stroke="#000000" stroke-width="1" fill="none"></path></g></g><g stroke-linecap="round"><g transform="translate(47.96839915772762 52.11658207415621) rotate(0 6.224367199984044 -1.8817854325534427)"><path d="M0 0 C2.07 -0.63, 10.37 -3.14, 12.45 -3.76 M0 0 C2.07 -0.63, 10.37 -3.14, 12.45 -3.76" stroke="#000000" stroke-width="1" fill="none"></path></g></g><g stroke-linecap="round"><g transform="translate(106.23578807172271 56.90257668662025) rotate(0 -45.45311064753378 -10.282661677230408)"><path d="M-17.54 -3.77 C-26.94 -5.95, -72.88 -17.34, -73.34 -17.26 C-73.8 -17.18, -28.55 -4.92, -20.31 -3.28 C-12.06 -1.64, -18.75 -5.75, -23.9 -7.42 C-29.06 -9.08, -51.97 -13.47, -51.22 -13.3 C-50.48 -13.13, -24.83 -7.37, -19.41 -6.41 M-18.72 -4.44 C-28.41 -6.99, -74.07 -19.34, -74.43 -18.95 C-74.79 -18.56, -29.33 -4.16, -20.88 -2.1 C-12.42 -0.05, -18.44 -4.83, -23.68 -6.64 C-28.92 -8.46, -52.69 -12.93, -52.32 -12.98 C-51.95 -13.03, -26.64 -7.62, -21.45 -6.94" stroke="#4c6ef5" stroke-width="2" fill="none"></path></g></g><g stroke-linecap="round"><g transform="translate(87.1142367831635 57.49567200595993) rotate(0 1.230397569341676 -4.530428694494503)"><path d="M0.7 -0.27 C1.12 -1.5, 2.67 -5.7, 2.85 -6.87 M-0.38 -1.45 C-0.08 -3.11, 2.12 -8.04, 2.33 -8.79" stroke="#000000" stroke-width="2" fill="none"></path></g></g><g stroke-linecap="round"><g transform="translate(24.348465770483017 35.94109760369929) rotate(0 34.170453129483576 7.2328678475391825)"><path d="M-0.27 0.82 C11.08 2.85, 57.2 10.92, 68.61 12.86 M1.79 0.2 C12.97 2.35, 56.92 12.05, 67.85 14.26" stroke="#000000" stroke-width="2" fill="none"></path></g></g><g stroke-linecap="round" transform="translate(43.63173920782174 19.707779863451833) rotate(369.36158870286766 5.381689321900467 6.215472174589422)"><path d="M8.84 1.45 C9.72 2.31, 10.48 3.82, 10.68 5.14 C10.88 6.45, 10.62 8.17, 10.04 9.32 C9.47 10.48, 8.31 11.6, 7.22 12.06 C6.14 12.51, 4.62 12.51, 3.54 12.06 C2.46 11.6, 1.3 10.48, 0.72 9.32 C0.14 8.17, -0.12 6.45, 0.08 5.14 C0.28 3.82, 1.04 2.31, 1.92 1.45 C2.81 0.6, 4.23 0, 5.38 0 C6.53 0, 7.96 0.6, 8.84 1.45" stroke="#000" stroke-width="2" fill="none"></path></g><g stroke-linecap="round" transform="translate(44.552778018829486 20.47180233321251) rotate(369.36158870286766 4.32051114575097 6.215472174589422)"><path d="M7.1 1.45 C7.81 2.31, 8.41 3.82, 8.58 5.14 C8.74 6.45, 8.53 8.17, 8.06 9.32 C7.6 10.48, 6.67 11.6, 5.8 12.06 C4.93 12.51, 3.71 12.51, 2.84 12.06 C1.97 11.6, 1.04 10.48, 0.58 9.32 C0.12 8.17, -0.1 6.45, 0.07 5.14 C0.23 3.82, 0.83 2.31, 1.54 1.45 C2.25 0.6, 3.39 0, 4.32 0 C5.25 0, 6.39 0.6, 7.1 1.45" stroke="#000" stroke-width="2" fill="none"></path></g><g stroke-linecap="round" transform="translate(43.68331216097431 19.86993936453382) rotate(369.36158870286766 5.154293998439698 6.367069056896526)"><path d="M8.47 1.49 C9.31 2.37, 10.04 3.92, 10.23 5.26 C10.42 6.6, 10.17 8.37, 9.62 9.55 C9.07 10.73, 7.95 11.88, 6.92 12.35 C5.88 12.82, 4.43 12.82, 3.39 12.35 C2.35 11.88, 1.24 10.73, 0.69 9.55 C0.14 8.37, -0.11 6.6, 0.08 5.26 C0.27 3.92, 1 2.37, 1.84 1.49 C2.69 0.61, 4.05 0, 5.15 0 C6.26 0, 7.62 0.61, 8.47 1.49" stroke="#000" stroke-width="2" fill="none"></path></g><g stroke-linecap="round" transform="translate(43.701784889781266 20.11205407900934) rotate(369.36158870286766 4.926898674979384 6.367069056896526)"><path d="M8.09 1.49 C8.9 2.37, 9.6 3.92, 9.78 5.26 C9.96 6.6, 9.72 8.37, 9.19 9.55 C8.67 10.73, 7.6 11.88, 6.61 12.35 C5.62 12.82, 4.23 12.82, 3.24 12.35 C2.25 11.88, 1.19 10.73, 0.66 9.55 C0.13 8.37, -0.11 6.6, 0.07 5.26 C0.26 3.92, 0.95 2.37, 1.76 1.49 C2.57 0.61, 3.87 0, 4.93 0 C5.98 0, 7.29 0.61, 8.09 1.49" stroke="#000" stroke-width="2" fill="none"></path></g><g stroke-linecap="round" transform="translate(41.202107756440455 25.31347007011027) rotate(369.36158870286766 6.973456586124485 5.684883086514674)"><path d="M2.84 0 L11.1 0 L13.24 0.71 L13.95 2.84 L13.95 8.53 L13.24 10.66 L11.1 11.37 L2.84 11.37 L0.71 10.66 L0 8.53 L0.18 1.6 L2.84 0" stroke="none" stroke-width="0" fill="#fab005"></path><path d="M2.84 0 M2.84 0 C4.55 0, 6.26 0, 11.1 0 M2.84 0 C5.81 0, 8.78 0, 11.1 0 M11.1 0 C13 0, 13.95 0.95, 13.95 2.84 M11.1 0 C13 0, 13.95 0.95, 13.95 2.84 M13.95 2.84 C13.95 4.2, 13.95 5.56, 13.95 8.53 M13.95 2.84 C13.95 4.56, 13.95 6.27, 13.95 8.53 M13.95 8.53 C13.95 10.42, 13 11.37, 11.1 11.37 M13.95 8.53 C13.95 10.42, 13 11.37, 11.1 11.37 M11.1 11.37 C8.23 11.37, 5.36 11.37, 2.84 11.37 M11.1 11.37 C7.84 11.37, 4.57 11.37, 2.84 11.37 M2.84 11.37 C0.95 11.37, 0 10.42, 0 8.53 M2.84 11.37 C0.95 11.37, 0 10.42, 0 8.53 M0 8.53 C0 7.39, 0 6.24, 0 2.84 M0 8.53 C0 7.1, 0 5.67, 0 2.84 M0 2.84 C0 0.95, 0.95 0, 2.84 0 M0 2.84 C0 0.95, 0.95 0, 2.84 0" stroke="#000" stroke-width="2" fill="none"></path></g><g stroke-linecap="round"><g transform="translate(42.26790578748114 29.50858730449363) rotate(369.36158870286766 6.161351828538955 -0.049072713678697255)"><path d="M0 0 C2.05 -0.02, 10.27 -0.08, 12.32 -0.1 M0 0 C2.05 -0.02, 10.27 -0.08, 12.32 -0.1" stroke="#000" stroke-width="2" fill="none"></path></g></g><g stroke-linecap="round"><g transform="translate(41.699559646916896 32.95602975301608) rotate(369.36158870286766 6.161351828538955 -0.049072713678697255)"><path d="M0 0 C2.05 -0.02, 10.27 -0.08, 12.32 -0.1 M0 0 C2.05 -0.02, 10.27 -0.08, 12.32 -0.1" stroke="#000" stroke-width="2" fill="none"></path></g></g><g stroke-linecap="round"><g transform="translate(42.387428863070454 28.783590871962588) rotate(369.36158870286766 6.161351828538955 -0.049072713678697255)"><path d="M0 0 C2.05 -0.02, 10.27 -0.08, 12.32 -0.1 M0 0 C2.05 -0.02, 10.27 -0.08, 12.32 -0.1" stroke="#000" stroke-width="2" fill="none"></path></g></g><g stroke-linecap="round"><g transform="translate(41.63750977656309 33.332408409855816) rotate(369.36158870286766 6.161351828538955 -0.049072713678697255)"><path d="M0 0 C2.05 -0.02, 10.27 -0.08, 12.32 -0.1 M0 0 C2.05 -0.02, 10.27 -0.08, 12.32 -0.1" stroke="#000" stroke-width="2" fill="none"></path></g></g><g stroke-linecap="round"><g transform="translate(18.83874430382275 39.06844585904173) rotate(4.671279860087183 34.22038533204977 6.428176966465571)"><path d="M1.08 -0.16 C12.39 1.81, 56.93 10.54, 68.25 12.79 M0.19 -1.29 C11.31 0.77, 55.89 11.48, 67.3 14.15" stroke="#000000" stroke-width="2" fill="none"></path></g></g><g stroke-linecap="round"><g transform="translate(28.047222137981407 71.08460665335451) rotate(346.9904598060106 11.145959869738817 -0.9343877874755435)"><path d="M0 -1.05 C1.93 -1.58, 7.86 -4.81, 11.58 -4.23 C15.3 -3.65, 20.51 1.32, 22.29 2.43 M0 -1.05 C1.93 -1.58, 7.86 -4.81, 11.58 -4.23 C15.3 -3.65, 20.51 1.32, 22.29 2.43" stroke="#000" stroke-width="2" fill="none"></path></g></g></svg>